<?xml version="1.0" ?><svg id="Layer_1" style="enable-background:new 0 0 48 48;" version="1.1" viewBox="0 0 48 48" xml:space="preserve" xmlns="http://www.w3.org/2000/svg" xmlns:xlink="http://www.w3.org/1999/xlink"><style type="text/css">
	.st0{fill:#7A8E9B;}
	.st1{fill:#E2E2E2;}
	.st2{fill:#C6C6C6;}
	.st3{fill:#525C6B;}
	.st4{fill:#79CCB8;}
	.st5{fill:#F87670;}
	.st6{fill:#59C5EF;}
</style><g><path class="st0" d="M27.2,0h-24c-1.7,0-3,1.3-3,3v42c0,1.7,1.3,3,3,3h24c1.7,0,3-1.3,3-3V3C30.2,1.3,28.9,0,27.2,0z"/><rect class="st1" height="33" width="30" x="0.2" y="7.5"/><g><rect class="st2" height="1.5" width="7.5" x="11.5" y="3"/><path class="st2" d="M7.3,43.5C7.1,43.7,7,44,7,44.3c0,0.3,0.1,0.5,0.3,0.7c0.2,0.2,0.4,0.3,0.7,0.3c0.3,0,0.5-0.1,0.7-0.3    C8.9,44.8,9,44.5,9,44.3c0-0.3-0.1-0.5-0.3-0.7C8.3,43.2,7.7,43.2,7.3,43.5z"/><path class="st2" d="M15,43.3c-0.5,0-1,0.4-1,1c0,0.5,0.5,1,1,1c0.6,0,1-0.5,1-1C16,43.7,15.6,43.3,15,43.3z"/><path class="st2" d="M22.7,43.5c-0.4-0.4-1-0.4-1.4,0C21.1,43.7,21,44,21,44.3c0,0.3,0.1,0.5,0.3,0.7c0.2,0.2,0.4,0.3,0.7,0.3    c0.3,0,0.5-0.1,0.7-0.3c0.2-0.2,0.3-0.4,0.3-0.7C23,44,22.9,43.7,22.7,43.5z"/></g><g><rect class="st3" height="1.5" width="22" x="4.2" y="23.3"/><rect class="st3" height="1.5" width="22" x="4.2" y="15.2"/><rect class="st3" height="1.5" width="22" x="4.2" y="31.3"/></g><circle class="st3" cx="22" cy="3.7" r="1.1"/><circle class="st4" cx="19.4" cy="24" r="3"/><circle class="st5" cx="10.2" cy="16" r="3"/><circle class="st6" cx="13.4" cy="32" r="3"/><path class="st3" d="M47.9,40.5C47.9,40.5,47.9,40.5,47.9,40.5c-0.3-2.1-1.5-3.8-3.1-4.9V11.7c1.9-1.2,3.2-3.3,3.2-5.7   c0-2.7-1.6-5-3.8-6v7.1l0,0c-1.8,1.1-3.9,1.1-5.7,0V0c-2.3,1.1-3.8,3.4-3.8,6c0,2.4,1.3,4.5,3.2,5.7v23.9c-1.7,1-2.9,2.8-3.1,4.8   c0,0,0,0.1,0,0.1c0,0.3-0.1,0.5-0.1,0.8c0,0,0,0,0,0c0,0,0,0,0,0c0,0.2,0,0.4,0,0.6c0,0,0,0,0,0c0.2,2.4,1.7,4.4,3.8,5.3v0   c0.9,0.4,1.8,0.6,2.8,0.6c1,0,2-0.2,2.8-0.6v0c2.1-1,3.5-3,3.8-5.3c0,0,0,0,0,0c0-0.2,0-0.4,0-0.6c0,0,0,0,0,0c0,0,0,0,0,0   C47.9,41.1,47.9,40.8,47.9,40.5z M43,44.3h-3.4l-1.7-3l1.7-3H43l1.7,3L43,44.3z"/></g></svg>