<?xml version="1.0" ?><svg data-name="Devices 1" height="60" id="Devices_1" viewBox="0 0 60 60" width="60" xmlns="http://www.w3.org/2000/svg"><title/><path d="M15,10a1,1,0,0,1-1-1V1a1,1,0,0,1,2,0V9A1,1,0,0,1,15,10Z" style="fill:#6d6daa;opacity:0.5"/><path d="M45,10a1,1,0,0,1-1-1V1a1,1,0,0,1,2,0V9A1,1,0,0,1,45,10Z" style="fill:#6d6daa;opacity:0.5"/><path d="M35,10a1,1,0,0,1-1-1V1a1,1,0,0,1,2,0V9A1,1,0,0,1,35,10Z" style="fill:#6d6daa;opacity:0.5"/><path d="M25,10a1,1,0,0,1-1-1V1a1,1,0,0,1,2,0V9A1,1,0,0,1,25,10Z" style="fill:#6d6daa;opacity:0.5"/><path d="M20,10a1,1,0,0,1-1-1V1a1,1,0,0,1,2,0V9A1,1,0,0,1,20,10Z" style="fill:#6d6daa;opacity:0.5"/><path d="M40,10a1,1,0,0,1-1-1V1a1,1,0,0,1,2,0V9A1,1,0,0,1,40,10Z" style="fill:#6d6daa;opacity:0.5"/><path d="M30,10a1,1,0,0,1-1-1V1a1,1,0,0,1,2,0V9A1,1,0,0,1,30,10Z" style="fill:#6d6daa;opacity:0.5"/><path d="M15,60a1,1,0,0,1-1-1V51a1,1,0,0,1,2,0v8A1,1,0,0,1,15,60Z" style="fill:#6d6daa;opacity:0.5"/><path d="M45,60a1,1,0,0,1-1-1V51a1,1,0,0,1,2,0v8A1,1,0,0,1,45,60Z" style="fill:#6d6daa;opacity:0.5"/><path d="M35,60a1,1,0,0,1-1-1V51a1,1,0,0,1,2,0v8A1,1,0,0,1,35,60Z" style="fill:#6d6daa;opacity:0.5"/><path d="M25,60a1,1,0,0,1-1-1V51a1,1,0,0,1,2,0v8A1,1,0,0,1,25,60Z" style="fill:#6d6daa;opacity:0.5"/><path d="M40,60a1,1,0,0,1-1-1V51a1,1,0,0,1,2,0v8A1,1,0,0,1,40,60Z" style="fill:#6d6daa;opacity:0.5"/><path d="M30,60a1,1,0,0,1-1-1V51a1,1,0,0,1,2,0v8A1,1,0,0,1,30,60Z" style="fill:#6d6daa;opacity:0.5"/><path d="M20,60a1,1,0,0,1-1-1V51a1,1,0,0,1,2,0v8A1,1,0,0,1,20,60Z" style="fill:#6d6daa;opacity:0.5"/><path d="M59,16H51a1,1,0,0,1,0-2h8a1,1,0,0,1,0,2Z" style="fill:#6d6daa;opacity:0.5"/><path d="M59,46H51a1,1,0,0,1,0-2h8a1,1,0,0,1,0,2Z" style="fill:#6d6daa;opacity:0.5"/><path d="M59,36H51a1,1,0,0,1,0-2h8a1,1,0,0,1,0,2Z" style="fill:#6d6daa;opacity:0.5"/><path d="M59,26H51a1,1,0,0,1,0-2h8a1,1,0,0,1,0,2Z" style="fill:#6d6daa;opacity:0.5"/><path d="M9,16H1a1,1,0,0,1,0-2H9a1,1,0,0,1,0,2Z" style="fill:#6d6daa;opacity:0.5"/><path d="M9,46H1a1,1,0,0,1,0-2H9a1,1,0,0,1,0,2Z" style="fill:#6d6daa;opacity:0.5"/><path d="M9,36H1a1,1,0,0,1,0-2H9a1,1,0,0,1,0,2Z" style="fill:#6d6daa;opacity:0.5"/><path d="M9,26H1a1,1,0,0,1,0-2H9a1,1,0,0,1,0,2Z" style="fill:#6d6daa;opacity:0.5"/><path d="M59,21H51a1,1,0,0,1,0-2h8a1,1,0,0,1,0,2Z" style="fill:#6d6daa;opacity:0.5"/><path d="M59,41H51a1,1,0,0,1,0-2h8a1,1,0,0,1,0,2Z" style="fill:#6d6daa;opacity:0.5"/><path d="M59,31H51a1,1,0,0,1,0-2h8a1,1,0,0,1,0,2Z" style="fill:#6d6daa;opacity:0.5"/><path d="M9,21H1a1,1,0,0,1,0-2H9a1,1,0,0,1,0,2Z" style="fill:#6d6daa;opacity:0.5"/><path d="M9,41H1a1,1,0,0,1,0-2H9a1,1,0,0,1,0,2Z" style="fill:#6d6daa;opacity:0.5"/><path d="M9,31H1a1,1,0,0,1,0-2H9a1,1,0,0,1,0,2Z" style="fill:#6d6daa;opacity:0.5"/><rect height="42" rx="2" ry="2" style="fill:#939fc6" width="42" x="9" y="9"/><path d="M49,9H11a2,2,0,0,0-2,2v3a2,2,0,0,1,2-2H49a2,2,0,0,1,2,2V11A2,2,0,0,0,49,9Z" style="fill:#fff;opacity:0.5"/><path d="M49,48H11a2,2,0,0,1-2-2v3a2,2,0,0,0,2,2H49a2,2,0,0,0,2-2V46A2,2,0,0,1,49,48Z" style="fill:#2c4b75;opacity:0.2"/><rect height="26" rx="2" ry="2" style="fill:#eef6ff" width="26" x="17" y="17"/><path d="M41,17H19a1.99994,1.99994,0,0,0-2,2v3a1.99994,1.99994,0,0,1,2-2H41a1.99994,1.99994,0,0,1,2,2V19A1.99994,1.99994,0,0,0,41,17Z" style="fill:#fff;opacity:0.75"/><path d="M41,40H19a1.99994,1.99994,0,0,1-2-2v3a1.99994,1.99994,0,0,0,2,2H41a1.99994,1.99994,0,0,0,2-2V38A1.99994,1.99994,0,0,1,41,40Z" style="fill:#2c4b75;opacity:0.2"/><path d="M49,52H11a3.00328,3.00328,0,0,1-3-3V11a3.00328,3.00328,0,0,1,3-3H49a3.00328,3.00328,0,0,1,3,3V49A3.00328,3.00328,0,0,1,49,52ZM11,10a1.0013,1.0013,0,0,0-1,1V49a1.0013,1.0013,0,0,0,1,1H49a1.0013,1.0013,0,0,0,1-1V11a1.0013,1.0013,0,0,0-1-1Z" style="fill:#6d6daa"/><path d="M41,44H19a3.00328,3.00328,0,0,1-3-3V19a3.00328,3.00328,0,0,1,3-3H41a3.00328,3.00328,0,0,1,3,3V41A3.00328,3.00328,0,0,1,41,44ZM19,18a1.0013,1.0013,0,0,0-1,1V41a1.0013,1.0013,0,0,0,1,1H41a1.0013,1.0013,0,0,0,1-1V19a1.0013,1.0013,0,0,0-1-1Z" style="fill:#6d6daa"/><path d="M37,32H23a1,1,0,0,1,0-2H37a1,1,0,0,1,0,2Z" style="fill:#6d6daa;opacity:0.5"/><path d="M33,26H27a1,1,0,0,1,0-2h6a1,1,0,0,1,0,2Z" style="fill:#6d6daa;opacity:0.5"/><path d="M37,36H23a1,1,0,0,1,0-2H37a1,1,0,0,1,0,2Z" style="fill:#6d6daa;opacity:0.5"/></svg>