<?xml version="1.0" ?><svg height="60" id="Basic_1" viewBox="0 0 60 60" width="60" xmlns="http://www.w3.org/2000/svg"><title/><path d="M9,3A2,2,0,0,0,5,3V7H9Z" style="fill:#d6b5b0"/><path d="M7,1A2,2,0,0,0,5,3V6A2,2,0,0,1,9,6V3A1.99994,1.99994,0,0,0,7,1Z" style="fill:#fff;opacity:0.5"/><rect height="20" style="fill:#d6b5b0" width="4" x="5" y="35"/><rect height="3" style="fill:#750000;opacity:0.2" width="4" x="5" y="35"/><polygon points="43 7 5 7 5 35 43 35 57 21.001 43 7" style="fill:#eef6ff"/><polygon points="55 19 42 32 5 32 5 35 43 35 57 21 55 19" style="fill:#2c4b75;opacity:0.200000002980232"/><polygon points="42 10 55 23 57 21 43 7 5 7 5 10 42 10" style="fill:#fff;opacity:0.75"/><rect height="28" style="fill:#2c4b75;opacity:0.200000002980232" width="3" x="9" y="7"/><path d="M1,56v3H13V56a1.00005,1.00005,0,0,0-1-1H2A1,1,0,0,0,1,56Z" style="fill:#d4edff"/><path d="M12,55H9a1,1,0,0,1,1,1v3h3V56A1,1,0,0,0,12,55Z" style="fill:#2c4b75;opacity:0.200000002980232"/><path d="M5,55H2a1,1,0,0,0-1,1v3H4V56A1,1,0,0,1,5,55Z" style="fill:#fff;opacity:0.75"/><line style="fill:none;stroke:#6d6daa;stroke-linecap:round;stroke-linejoin:round;stroke-width:2px" x1="9" x2="9" y1="32" y2="10"/><circle cx="26.99959" cy="21.0005" r="10" style="fill:#99db6e"/><path d="M26.99957,28.00049a9.99344,9.99344,0,0,1-9.87549-8.5,10.00028,10.00028,0,1,0,19.751,0A9.99353,9.99353,0,0,1,26.99957,28.00049Z" style="fill:#2c4b75;opacity:0.200000002980232"/><path d="M26.99957,14.00049a9.99353,9.99353,0,0,1,9.87549,8.5,10.00028,10.00028,0,1,0-19.751,0A9.99344,9.99344,0,0,1,26.99957,14.00049Z" style="fill:#fff;opacity:0.5"/><path d="M9,3A2,2,0,0,0,5,3V7H9Z" style="fill:none;stroke:#6d6daa;stroke-linecap:round;stroke-linejoin:round;stroke-width:2px"/><rect height="20" style="fill:none;stroke:#6d6daa;stroke-linecap:round;stroke-linejoin:round;stroke-width:2px" width="4" x="5" y="35"/><polygon points="43 7 5 7 5 35 43 35 57 21.001 43 7" style="fill:none;stroke:#6d6daa;stroke-linecap:round;stroke-linejoin:round;stroke-width:2px"/><path d="M1,56v3H13V56a1.00005,1.00005,0,0,0-1-1H2A1,1,0,0,0,1,56Z" style="fill:none;stroke:#6d6daa;stroke-linecap:round;stroke-linejoin:round;stroke-width:2px"/><circle cx="26.99959" cy="21.0005" r="10" style="fill:none;stroke:#6d6daa;stroke-linecap:round;stroke-linejoin:round;stroke-width:2px"/><polyline points="23 22.001 25.666 24.501 30 17.501" style="fill:none;stroke:#fff;stroke-linecap:round;stroke-linejoin:round;stroke-width:2px"/></svg>