<?xml version="1.0" ?><svg height="60" id="Security" viewBox="0 0 60 60" width="60" xmlns="http://www.w3.org/2000/svg"><title/><polyline points="33 59 33 51 27 51 27 59" style="fill:#ced8ee;fill-rule:evenodd"/><rect height="3" style="fill:#2c4b75;opacity:0.200000002980232" width="6" x="27" y="50.99994"/><path d="M5,35.74815V16.24995L20.26479,1h19.4704L55,16.24995v19.4982L39.73519,51H20.26479L5,35.74815Z" style="fill:#fff;fill-rule:evenodd"/><polygon points="21.265 48 5 31.748 5 35.748 20.265 51 39.735 51 55 35.748 55 31.748 38.735 48 21.265 48" style="fill:#5cbeff;fill-rule:evenodd;opacity:0.300000011920929"/><path d="M9,34.18844V17.81L21.82243,5H38.17756L51,17.81V34.18844L38.17756,47H21.82243L9,34.18844Z" style="fill:none;fill-rule:evenodd"/><path d="M33,60a.99974.99974,0,0,1-1-1V52H28v7a1,1,0,0,1-2,0V51a.99974.99974,0,0,1,1-1h6a.99974.99974,0,0,1,1,1v8A.99974.99974,0,0,1,33,60Z" style="fill:#6d6daa"/><path d="M39.73535,52H20.26465a1.00013,1.00013,0,0,1-.707-.293L4.293,36.45508A.99928.99928,0,0,1,4,35.748V16.25a.9977.9977,0,0,1,.29346-.707L19.55811.293A.999.999,0,0,1,20.26465,0h19.4707a.999.999,0,0,1,.70654.293l15.26465,15.25A.9977.9977,0,0,1,56,16.25V35.748a.99928.99928,0,0,1-.293.707L40.44238,51.707A1.00013,1.00013,0,0,1,39.73535,52ZM20.67871,50H39.32129L54,35.334V16.66406L39.32129,2H20.67871L6,16.66406V35.334Z" style="fill:#6d6daa"/><path d="M9,34.18844V17.81L21.82243,5H38.17756L51,17.81V34.18844L38.17756,47H21.82243L9,34.18844Z" style="fill:#ff9797;fill-rule:evenodd"/><path d="M40.9668,23.32959a2.8402,2.8402,0,0,0-3.27832,1.34277,57.06375,57.06375,0,0,0-.09717-5.97217,2.84623,2.84623,0,0,0-2.78662-2.62646,2.70267,2.70267,0,0,0-1.65039.5058c-.00812-.55188-.018-1.08081-.03125-1.55756A2.96529,2.96529,0,0,0,30.0625,12,3.06476,3.06476,0,0,0,27.001,15.061v.45013a2.935,2.935,0,0,0-1.55322-.40765A2.87463,2.87463,0,0,0,22.54395,17.915c-.00433.70752.00159,1.62268.01337,2.6275a2.57331,2.57331,0,0,0-1.486-.25641,2.86227,2.86227,0,0,0-2.57324,2.6958,31.923,31.923,0,0,0,.11035,5.16064c.10693,1.30811.22852,2.79053.22852,5.02979A9.93667,9.93667,0,0,0,21.146,39.7998,4.62669,4.62669,0,0,0,25.74756,44h6.72412a4.62579,4.62579,0,0,0,4.62061-4.62061V37.98132a8.22437,8.22437,0,0,0,2.79834-2.682c.02-.03564,1.97949-3.64063,1.8916-4.79a16.85723,16.85723,0,0,1,.34766-3.72314l.11768-.74609C42.55322,24.07666,41.57666,23.499,40.9668,23.32959Z" style="fill:#750000;opacity:0.2"/><path d="M38.17773,48H21.82227a1.00013,1.00013,0,0,1-.707-.293L8.293,34.89551a.99928.99928,0,0,1-.293-.707V17.80957a.9977.9977,0,0,1,.29346-.707L21.11572,4.293A.999.999,0,0,1,21.82227,4H38.17773a.999.999,0,0,1,.70654.293L51.70654,17.10254a.9977.9977,0,0,1,.29346.707V34.18848a.99928.99928,0,0,1-.293.707L38.88477,47.707A1.00013,1.00013,0,0,1,38.17773,48ZM22.23633,46H37.76367L50,33.77441V18.22363L37.76367,6H22.23633L10,18.22363V33.77441Z" style="fill:#6d6daa"/><path d="M27.98352,23.86633s-.4472-5.90894-.64655-7.874c-.12927-1.27478-.80817-1.889-1.889-1.889a1.87317,1.87317,0,0,0-1.90381,1.81775c-.01746,2.83948.12445,8.902.18188,11.21588-.10413-.89844-.43195-3.79565-.60443-6.115a1.7887,1.7887,0,0,0-1.92108-1.74438,1.86654,1.86654,0,0,0-1.70435,1.7652c-.23889,3.91467.34076,5.17242.34076,10.12952a8.6062,8.6062,0,0,0,2.28992,6.20691,3.62067,3.62067,0,0,0,3.62067,3.62067h6.72412a3.62069,3.62069,0,0,0,3.62073-3.62067v-1.9137l-.02283-.01489A8.00606,8.00606,0,0,0,39.018,32.8103a17.44009,17.44009,0,0,0,1.76727-4.22418,21.60882,21.60882,0,0,1,.47412-4.69824c.06342-.40784.21552-1.37933-.56036-1.59485-1.57214-.43671-2.42542,1.07635-2.931,2.41382-.43573,1.15253-.52661,2.37628-1.29309,3.11206a97.65081,97.65081,0,0,0,.12109-11.0188,1.86077,1.86077,0,0,0-1.82367-1.72693,1.80628,1.80628,0,0,0-1.82642,1.82642L32.139,26.51715" style="fill:#fff;fill-rule:evenodd"/><path d="M32.12347,13.05a1.98008,1.98008,0,0,0-2.06116-2.05011,2.06114,2.06114,0,0,0-2.06116,2.06122v13.456l4.1203-.21552S32.25079,17.63788,32.12347,13.05Z" style="fill:#fff;fill-rule:evenodd"/><path d="M36.62885,24.64111c.06555-1.79681.11444-3.98511.07489-5.78217-.04272,2.59045-.17139,5.15649-.22882,5.96A2.09784,2.09784,0,0,0,36.62885,24.64111Z" style="fill:#2c4b75;fill-rule:evenodd;opacity:0.200000002980232"/><path d="M23.72607,24.137c-.042-1.69171-.12891-5.384-.16589-8.3587-.00427.048-.01569.09375-.016.14282-.011,1.78815.04114,4.85345.0957,7.45685C23.67474,23.68939,23.70563,23.96045,23.72607,24.137Z" style="fill:#2c4b75;fill-rule:evenodd;opacity:0.200000002980232"/><path d="M41.01276,22.469a13.87783,13.87783,0,0,0-.22748,3.11713A17.44009,17.44009,0,0,1,39.018,29.8103a8.00606,8.00606,0,0,1-2.94843,2.64038l.02283.01489v1.9137a3.62069,3.62069,0,0,1-3.62073,3.62067H25.74756a3.62067,3.62067,0,0,1-3.62067-3.62067A8.6062,8.6062,0,0,1,19.837,28.17236c0-3.28467-.25354-4.94641-.35577-6.83185-.19147,3.679.35577,5.00568.35577,9.83185a8.6062,8.6062,0,0,0,2.28992,6.20691,3.62067,3.62067,0,0,0,3.62067,3.62067h6.72412a3.62069,3.62069,0,0,0,3.62073-3.62067v-1.9137l-.02283-.01489A8.00606,8.00606,0,0,0,39.018,32.8103a17.44009,17.44009,0,0,0,1.76727-4.22418,21.60882,21.60882,0,0,1,.47412-4.69824C41.312,23.5498,41.41742,22.83,41.01276,22.469Z" style="fill:#2c4b75;fill-rule:evenodd;opacity:0.200000002980232"/><path d="M34.5415,37.34473a1.00021,1.00021,0,0,1-.4873-1.874c2.43359-1.35449,3.58057-2.2373,4.09131-3.14941A20.49637,20.49637,0,0,0,39.7876,28.582a17.83325,17.83325,0,0,1,.36719-4.11133l.11621-.73633a2.52317,2.52317,0,0,0,.043-.50586c-.31592-.05371-.92871.02637-1.61035,1.832-.125.33008-.21777.666-.30908.99316A5.11506,5.11506,0,0,1,37.168,28.54a1,1,0,0,1-1.69043-.792,97.45063,97.45063,0,0,0,.12354-10.84863.868.868,0,0,0-.86084-.82715.73717.73717,0,0,0-.53516.21387.8594.8594,0,0,0-.25928.61328l-.81006,9.70215a1.00011,1.00011,0,0,1-1.99316-.168l.80664-9.61816a2.80908,2.80908,0,0,1,.86426-1.96582,2.71606,2.71606,0,0,1,1.99072-.77539,2.84541,2.84541,0,0,1,2.78711,2.625,57.2083,57.2083,0,0,1,.09717,5.97266A2.83967,2.83967,0,0,1,40.9668,21.3291c.60986.16992,1.58691.748,1.28076,2.71094l-.11768.74512a16.86618,16.86618,0,0,0-.34766,3.72363c.08789,1.14844-1.87158,4.75488-1.8916,4.79-.82227,1.4668-2.4707,2.58789-4.86377,3.91992A1.00245,1.00245,0,0,1,34.5415,37.34473Z" style="fill:#6d6daa"/><path d="M28.001,27.51758a.99974.99974,0,0,1-1-1V13.06152A3.06486,3.06486,0,0,1,30.0625,10,2.9657,2.9657,0,0,1,33.123,13.02246c.12646,4.55566-.00049,13.207-.00146,13.29395a1.01134,1.01134,0,0,1-1.01514.98535,1.00036,1.00036,0,0,1-.98486-1.01465c.00146-.08691.12793-8.69531.00244-13.21A.99408.99408,0,0,0,30.0625,12,1.06288,1.06288,0,0,0,29.001,13.06152V26.51758A.99974.99974,0,0,1,28.001,27.51758Z" style="fill:#6d6daa"/><path d="M32.47168,42H25.74756A4.62678,4.62678,0,0,1,21.146,37.79883a9.92935,9.92935,0,0,1-2.30908-6.626c0-2.24023-.12158-3.72266-.22852-5.03027a31.91835,31.91835,0,0,1-.11035-5.16016,2.86268,2.86268,0,0,1,2.57275-2.69629,2.57113,2.57113,0,0,1,1.97412.56836,2.98787,2.98787,0,0,1,1.07373,2.09375c.20313,2.72559.62939,6.32031.63379,6.35645a1.00017,1.00017,0,1,1-1.98633.23633c-.00439-.03613-.43555-3.6748-.6416-6.44434a.99316.99316,0,0,0-.34229-.69141.59988.59988,0,0,0-.45264-.13672.87.87,0,0,0-.83545.83594,30.2886,30.2886,0,0,0,.10742,4.875c.11035,1.3457.23535,2.87109.23535,5.19336a7.60559,7.60559,0,0,0,1.96045,5.46387.99912.99912,0,0,1,.32959.74219A2.62391,2.62391,0,0,0,25.74756,40h6.72412a2.62391,2.62391,0,0,0,2.62061-2.62109V35.46582a1,1,0,0,1,2,0v1.91309A4.6262,4.6262,0,0,1,32.47168,42Z" style="fill:#6d6daa"/><path d="M34.62207,30.01758a1.00006,1.00006,0,0,1-.38135-1.9248,3.45913,3.45913,0,0,0,1.40186-.87891,1.02184,1.02184,0,0,1,1.37354-.25879.97986.97986,0,0,1,.31641,1.32715,4.75108,4.75108,0,0,1-2.33008,1.66016A1.00568,1.00568,0,0,1,34.62207,30.01758Z" style="fill:#6d6daa"/><path d="M23.78223,37.8623h-.30176a3.72113,3.72113,0,0,1-3.853-2.58887A1.00015,1.00015,0,0,1,21.47217,34.5c.54346,1.29688,1.11719,1.3623,2.0083,1.3623h.30176a1,1,0,0,1,0,2Z" style="fill:#6d6daa"/><path d="M23.749,29.06934a.99989.99989,0,0,1-.999-.97363c-.00244-.08594-.22754-8.65625-.20605-12.18066a2.87431,2.87431,0,0,1,2.90381-2.81152A2.79186,2.79186,0,0,1,28.332,15.8916c.19824,1.95508.63037,7.65723.64844,7.89941a.9999.9999,0,1,1-1.99414.15039c-.00439-.05859-.44873-5.91895-.64453-7.84863-.09277-.91309-.47559-.98926-.894-.98926a.87086.87086,0,0,0-.90381.82324c-.021,3.49219.20313,12.03027.20508,12.11621a1.00029,1.00029,0,0,1-.97314,1.02637Z" style="fill:#6d6daa"/></svg>