<?xml version="1.0" ?><!DOCTYPE svg  PUBLIC '-//W3C//DTD SVG 1.1//EN'  'http://www.w3.org/Graphics/SVG/1.1/DTD/svg11.dtd'><svg id="Layer_1" style="enable-background:new 0 0 256 256;" version="1.1" viewBox="0 0 256 256" xml:space="preserve" xmlns="http://www.w3.org/2000/svg" xmlns:xlink="http://www.w3.org/1999/xlink"><style type="text/css">
	.st0{fill:#1C868E;}
	.st1{fill:#40C4DF;}
	.st2{fill:#FFFFFF;}
	.st3{fill:#D8D6D7;}
	.st4{fill:#F85252;}
	.st5{fill:#7BEFE4;}
	.st6{fill:#56C1B3;}
	.st7{fill:#491352;}
	.st8{fill:#41C4DF;}
	.st9{fill:#D73735;}
	.st10{fill:#EDAF85;}
	.st11{fill:#F7C09A;}
	.st12{fill:#1B868E;}
	.st13{fill:none;stroke:#491352;stroke-width:4;stroke-linecap:round;stroke-linejoin:round;stroke-miterlimit:10;}
	.st14{fill:none;stroke:#491352;stroke-width:4;stroke-miterlimit:10;}
</style><g id="XMLID_3640_"><g id="XMLID_2333_"><path class="st2" d="M245.833,156.636H10.167c-2.761,0-5-2.239-5-5V15.879c0-2.761,2.239-5,5-5h235.667    c2.761,0,5,2.239,5,5v135.757C250.833,154.398,248.595,156.636,245.833,156.636z" id="XMLID_3346_"/><path class="st3" d="M112.56,136.64v20H10.17c-2.76,0-5-2.24-5-5V15.88c0-2.76,2.24-5,5-5h15v120.76    c0,1.72,0.87,3.24,2.2,4.14c0.8,0.54,1.76,0.86,2.8,0.86H112.56z" id="XMLID_3345_"/><path class="st5" d="M238.15,27.01v113.5c0,2.76-2.24,5-5,5H22.85c-2.76,0-5-2.24-5-5V27.01c0-2.76,2.24-5,5-5    h210.3C235.91,22.01,238.15,24.25,238.15,27.01z" id="XMLID_3337_"/><rect class="st3" height="60.834" id="XMLID_3328_" width="59.16" x="98.42" y="156.636"/><rect class="st2" height="59.638" id="XMLID_3317_" width="45.105" x="112.562" y="156.64"/><path class="st3" d="M192.17,222.47v17.65c0,2.75-2.25,5-5,5H68.83c-2.75,0-5-2.25-5-5v-17.65c0-2.75,2.25-5,5-5    h118.34C189.92,217.47,192.17,219.72,192.17,222.47z" id="XMLID_3316_"/><path class="st2" d="M192.17,222.47v8.51H82.97c-2.75,0-5-2.25-5-5v-8.51h109.2    C189.92,217.47,192.17,219.72,192.17,222.47z" id="XMLID_3116_"/></g><circle class="st4" cx="101.928" cy="61.572" id="XMLID_4618_" r="11.211"/><circle class="st9" cx="78.381" cy="85.119" id="XMLID_4632_" r="27.628"/><circle class="st1" cx="195.064" cy="148.958" id="XMLID_2332_" r="59"/><path class="st3" d="M226.562,157.163c-4.613-3.964-10.982-4.934-16.46-2.933l-20.307-20.307   c2.161-5.861,0.894-12.702-3.812-17.408c-3.366-3.366-7.822-4.974-12.231-4.827c-2.339,0.078-3.419,2.964-1.764,4.619l7.101,7.101   c1.058,1.058,1.058,2.772,0,3.83l-5.745,5.745c-1.058,1.058-2.772,1.058-3.83,0l-7.097-7.097c-1.68-1.68-4.558-0.537-4.626,1.839   c-0.137,4.776,1.786,9.601,5.773,13.027c4.613,3.964,10.982,4.934,16.46,2.932l20.307,20.307   c-2.161,5.861-0.894,12.702,3.812,17.408c3.366,3.366,7.822,4.974,12.231,4.827c2.339-0.078,3.419-2.964,1.764-4.619l-7.101-7.101   c-1.058-1.058-1.058-2.772,0-3.83l5.745-5.745c1.058-1.058,2.772-1.058,3.83,0l7.097,7.097c1.68,1.68,4.558,0.536,4.626-1.839   C232.472,165.414,230.548,160.589,226.562,157.163z" id="XMLID_2067_"/><path class="st6" d="M231.765,119.146l-6.89-6.89c-0.953-0.953-2.463-1.06-3.541-0.251   c-15.161,11.517-10.742,6.976-15.052,14.693c-1.255,2.36,1.399,3.946,1.74,4.45l-24.504,24.504l-3.958-3.958   c-1.058-1.058-2.772-1.058-3.83,0l-17.369,17.369c-1.057,1.058-1.057,2.772,0,3.83l12.766,12.766c1.058,1.058,2.772,1.058,3.83,0   l17.369-17.369c1.058-1.058,1.058-2.772,0-3.83l-3.958-3.958L212.873,136l1.264,1.264c0.842,0.842,2.135,1.035,3.187,0.476   c7.692-4.251,3.282-0.032,14.692-15.052C232.826,121.609,232.719,120.1,231.765,119.146z" id="XMLID_3462_"/><g id="XMLID_3571_"><path class="st7" d="M131.53,89.79l-18.05,1.33c-1.496,0.083-1.71-1.053-5.52-4.58    c-0.061-1.043,0.451-6.053-2.06-12.37c2.025-0.654,3.8-1.69,5.37-3.26c4.478-4.478,3.811-9.979,3.83-10.111l5.166-1.722    c2.51-0.837,1.245-4.636-1.266-3.795l-4.739,1.58c-0.085-0.1-1.672-5.37-7.621-7.622c-0.001,0-0.001,0-0.002,0l1.58-4.74    c0.35-1.049-0.217-2.181-1.265-2.53c-1.051-0.354-2.182,0.218-2.53,1.265l-1.722,5.166c-0.39,0.056-5.722-0.559-10.111,3.83    c-1.55,1.55-2.64,3.4-3.25,5.37c-6.039-2.395-10.372-1.943-12.38-2.06l-4.03-4.04c-0.39-0.39-0.59-0.93-0.55-1.48l1.33-18.05    c0.09-1.11-0.74-2.06-1.84-2.15c-1.09-0.08-2.06,0.75-2.14,1.85l-1.34,18.05c-0.13,1.71,0.49,3.39,1.71,4.61l1.88,1.88    c-4.73,1.03-9.24,3.23-13.08,6.6L48.66,52.57c-0.78-0.78-2.05-0.78-2.83,0c-0.78,0.78-0.78,2.04,0,2.82l10.24,10.24    c-3.37,3.84-5.57,8.36-6.6,13.09c-1.15-0.899-2.815-3.888-6.49-3.59l-18.05,1.33c-1.1,0.08-1.93,1.04-1.84,2.15    c0.08,1.1,1.05,1.92,2.14,1.84l18.05-1.33c1.431-0.131,1.771,1.09,5.52,4.59c-0.812,17.196,13.125,31.732,30.99,30.99l4.04,4.04    c0.39,0.39,0.6,0.93,0.55,1.479l-1.33,18.05c-0.189,2.598,3.784,3.006,3.99,0.3l1.33-18.05c0.13-1.71-0.49-3.39-1.71-4.61    l-1.88-1.88c1.62-0.35,3.21-0.84,4.75-1.47c2.98-1.2,5.81-2.91,8.34-5.13l10.24,10.24c0.39,0.39,0.9,0.59,1.41,0.59    s1.02-0.2,1.41-0.59c0.78-0.78,0.78-2.05,0-2.83l-10.24-10.24c3.37-3.84,5.57-8.35,6.6-13.08c1.285,1.033,2.784,3.843,6.49,3.59    l18.05-1.34c1.1-0.08,1.93-1.04,1.85-2.14C133.59,90.53,132.63,89.71,131.53,89.79z M79.11,110.71    c-14.731,0.434-26.754-11.571-26.32-26.32c0.383-26.388,37.988-35.229,49.02-9.61C109.315,91.667,96.76,110.46,79.11,110.71z     M92.99,59.35c1.724-6.939,10.434-9.335,15.45-4.29c5.057,5.056,2.638,13.73-4.29,15.45C101.525,65.855,97.631,61.967,92.99,59.35    z" id="XMLID_3589_"/><path class="st7" d="M218.26,139.5l5.12-2.72c0.6-0.32,1.14-0.78,1.55-1.32l8.69-11.57    c1.39-1.87,1.21-4.51-0.44-6.16l-6.89-6.89c-1.65-1.64-4.29-1.83-6.16-0.43l-11.56,8.68c-0.55,0.41-1.01,0.95-1.33,1.55    l-2.72,5.12c-0.95,1.78-0.67,3.91,0.68,5.38l-7.68,7.68l-5.44-5.44c1.87-6.45,0.1-13.5-4.68-18.28    c-3.61-3.61-8.61-5.58-13.71-5.41c-1.88,0.06-3.47,1.19-4.16,2.95c-0.7,1.76-0.29,3.75,1.05,5.08l7.1,7.1    c0.25,0.25,0.285,0.71,0,1.01l-5.75,5.74c-0.28,0.28-0.72,0.28-1,0l-7.1-7.1c-1.35-1.35-3.29-1.75-5.07-1.04    c-1.77,0.7-2.91,2.33-2.97,4.24c-0.16,5.61,2.2,10.93,6.47,14.6c0.52,0.45,1.06,0.86,1.62,1.24c4.53,3.08,10.26,4,15.6,2.46    l5.45,5.45l-1.41,1.4l-2.54-2.54c-0.89-0.89-2.08-1.38-3.33-1.38c-1.26,0-2.44,0.49-3.33,1.38l-17.37,17.37    c-0.86,0.86-1.32,1.98-1.37,3.11v0.45c0.05,1.12,0.51,2.24,1.37,3.1l12.76,12.76c0.92,0.92,2.13,1.38,3.33,1.38    c1.21,0,2.41-0.46,3.33-1.38l17.37-17.36c1.84-1.84,1.84-4.83,0-6.66l-2.54-2.55l1.41-1.4h0l5.44,5.44    c-1.87,6.44-0.1,13.49,4.68,18.27c3.47,3.47,8.21,5.43,13.1,5.43c0.2,0,0.41-0.01,0.61-0.01c1.87-0.07,3.47-1.2,4.16-2.95    c0.69-1.76,0.28-3.76-1.05-5.09l-7.1-7.1c-0.28-0.27-0.28-0.72,0-1l5.75-5.74c0.27-0.28,0.72-0.28,1,0l7.09,7.09    c1.35,1.35,3.29,1.76,5.07,1.05c1.78-0.71,2.92-2.33,2.97-4.24c0.01-0.19,0.01-0.38,0.01-0.57c0-4.03-1.3-7.88-3.68-11.05    c-0.81-1.08-1.74-2.08-2.79-2.98c-0.42-0.36-0.85-0.7-1.3-1.02c-4.58-3.27-10.45-4.26-15.92-2.68l-5.45-5.45l7.68-7.68    C214.409,140.229,216.581,140.411,218.26,139.5z M181.44,142.27c-0.558-0.558-1.39-0.718-2.1-0.46    c-4.97,1.81-10.51,0.83-14.47-2.57c-3.35-2.89-5.2-7.06-5.08-11.46c0.015-0.614,0.776-0.929,1.21-0.48l7.1,7.1    c0.89,0.89,2.07,1.38,3.33,1.38s2.44-0.49,3.33-1.38l5.74-5.75c0.89-0.88,1.38-2.07,1.38-3.32c0-1.26-0.49-2.45-1.38-3.33    l-7.1-7.11c-0.423-0.423-0.16-1.183,0.42-1.2c4.06-0.15,7.88,1.37,10.75,4.24c3.99,3.99,5.31,10,3.35,15.3    c-0.766,2.072,1.552,2.721,6.77,8.42c-0.1,0.1-7.03,7.04-6.93,6.94C187.559,148.389,181.063,141.893,181.44,142.27z     M190.91,166.88l-17.37,17.37c-0.27,0.27-0.72,0.27-1,0l-12.76-12.77c-0.1-0.1-0.17-0.23-0.2-0.37c-0.01-0.09-0.01-0.18,0-0.26    c0.03-0.14,0.1-0.27,0.2-0.37l17.37-17.37c0.18-0.18,0.39-0.21,0.5-0.21s0.32,0.03,0.5,0.21    C191.753,166.713,191.61,166.18,190.91,166.88z M207.68,154.63l1.01,1.01c0.55,0.56,1.37,0.74,2.1,0.47    c1.65-0.6,3.36-0.9,5.05-0.9c3.39,0,6.72,1.18,9.36,3.42c0.02,0.02,0.04,0.03,0.06,0.05c3.35,2.88,5.2,7.06,5.08,11.45    c-0.02,0.41-0.29,0.58-0.45,0.64c-0.17,0.07-0.48,0.13-0.77-0.16l-7.09-7.09c-0.89-0.89-2.07-1.38-3.33-1.38s-2.44,0.49-3.33,1.38    l-5.75,5.74c-0.89,0.89-1.38,2.07-1.38,3.33c0,1.26,0.49,2.44,1.38,3.33l7.1,7.1c0.31,0.3,0.21,0.65,0.16,0.79    c-0.07,0.18-0.23,0.41-0.57,0.42c-4.07,0.14-7.88-1.37-10.75-4.24c-3.99-3.99-5.31-10-3.35-15.31c0.27-0.73,0.09-1.55-0.46-2.1    l-3.95-3.95l-2.36-2.36c0.1-0.1,7.392-7.402,6.93-6.94L207.68,154.63z M188.37,157.67l-2.02-2.02    c4.014-4.005,21.565-21.565,21.67-21.67l2.02,2.02C208.94,137.1,189.235,156.805,188.37,157.67z M208.05,127.64l2.72-5.12    c0.05-0.09,0.12-0.17,0.2-0.23l11.57-8.68c0.273-0.228,0.692-0.186,0.92,0.06l6.89,6.89c0.25,0.25,0.28,0.65,0.07,0.93    c-9.316,12.355-8.662,11.617-8.92,11.76c-7.114,3.743-4.632,3.613-8.63-0.08C208.094,128.364,207.687,128.299,208.05,127.64z" id="XMLID_3585_"/><path class="st7" d="M252.83,129.35V15.88c0-3.86-3.14-7-7-7H10.17c-3.86,0-7,3.14-7,7v135.75c0,3.86,3.14,7,7,7    h86.25v56.83H68.83c-3.86,0-7,3.15-7,7v17.66c0,3.86,3.14,7,7,7h118.34c3.86,0,7-3.14,7-7v-17.66c0-3.85-3.14-7-7-7h-27.59v-16.92    c39.927,28.707,96.48,0.188,96.48-49.58C256.06,142.1,254.92,135.51,252.83,129.35z M10.17,154.63c-1.66,0-3-1.34-3-3V15.88    c0-1.66,1.34-3,3-3h235.66c1.66,0,3,1.34,3,3v104.29c-2.38-4.44-5.31-8.56-8.68-12.26v-80.9c0-3.86-3.15-7-7-7H22.85    c-3.85,0-7,3.14-7,7v113.5c0,3.86,3.15,7,7,7c10.691,0,100.39,0,111.23,0c-0.049,2.374,0.007,4.729,0.25,7.12    C102.811,154.63,33.596,154.63,10.17,154.63z M236.15,27.01v76.89c-37.178-33.889-97.393-10.501-101.84,39.61H22.85    c-1.65,0-3-1.35-3-3V27.01c0-1.66,1.35-3,3-3h210.3C234.8,24.01,236.15,25.35,236.15,27.01z M134.83,158.63    c2.34,14.65,9.92,27.57,20.75,36.78v20.05h-55.16v-56.83H134.83z M187.17,219.46c1.66,0,3,1.35,3,3v17.66c0,1.66-1.34,3-3,3H68.83    c-1.66,0-3-1.34-3-3v-17.66c0-1.65,1.34-3,3-3C90.224,219.46,174.271,219.46,187.17,219.46z M251.69,155.44    c-3.22,28.39-27.39,50.52-56.63,50.52c-33.247,0-59.886-28.572-56.74-62.45c4.842-50.847,70.141-70.452,101.83-29.38    c3.69,4.76,6.64,10.12,8.68,15.91c2.09,5.92,3.23,12.29,3.23,18.92C252.06,151.15,251.94,153.31,251.69,155.44z" id="XMLID_3658_"/></g></g></svg>