<?xml version="1.0" ?><svg data-name="Devices 1" height="60" id="Devices_1" viewBox="0 0 60 60" width="60" xmlns="http://www.w3.org/2000/svg"><title/><path d="M59,25.1008V13a2,2,0,0,0-2-2H3a2,2,0,0,0-2,2V25.1008A5.001,5.001,0,0,1,5,30a5.001,5.001,0,0,1-4,4.8992V47a2,2,0,0,0,2,2H8V45a2,2,0,0,1,4,0v4h6V45a2,2,0,0,1,4,0v4h6V45a2,2,0,0,1,4,0v4h6V45a2,2,0,0,1,4,0v4h6V45a2,2,0,0,1,4,0v4h5a2,2,0,0,0,2-2V34.8992a5.00027,5.00027,0,0,1,0-9.7984Z" style="fill:#89dbba"/><g style="opacity:0.5"><path d="M5,33a4.966,4.966,0,0,0-.24432-1.5A4.99622,4.99622,0,0,1,1,34.89917v3A5.001,5.001,0,0,0,5,33Z" style="fill:#fff"/><path d="M57,11H3a1.99994,1.99994,0,0,0-2,2v3a1.99994,1.99994,0,0,1,2-2H57a2,2,0,0,1,2,2V13A2,2,0,0,0,57,11Z" style="fill:#fff"/><path d="M55.24432,31.5A4.95488,4.95488,0,0,0,59,37.89917v-3A4.99622,4.99622,0,0,1,55.24432,31.5Z" style="fill:#fff"/></g><g style="opacity:0.2"><rect height="3" style="fill:#2c4b75" width="6" x="22" y="46"/><path d="M12,42a2,2,0,0,0-4,0v3a2,2,0,0,1,4,0Z" style="fill:#2c4b75"/><path d="M22,42a2,2,0,0,0-4,0v3a2,2,0,0,1,4,0Z" style="fill:#2c4b75"/><rect height="3" style="fill:#2c4b75" width="6" x="12" y="46"/><path d="M4.75568,28.5A4.96628,4.96628,0,0,0,5,27a5.001,5.001,0,0,0-4-4.89923v3A4.9964,4.9964,0,0,1,4.75568,28.5Z" style="fill:#2c4b75"/><path d="M1,44v3a1.99994,1.99994,0,0,0,2,2H8V46H3A1.99994,1.99994,0,0,1,1,44Z" style="fill:#2c4b75"/><path d="M55,27a4.96628,4.96628,0,0,0,.24432,1.5A4.9964,4.9964,0,0,1,59,25.10077v-3A5.001,5.001,0,0,0,55,27Z" style="fill:#2c4b75"/><path d="M52,42a2,2,0,0,0-4,0v3a2,2,0,0,1,4,0Z" style="fill:#2c4b75"/><path d="M32,42a2,2,0,0,0-4,0v3a2,2,0,0,1,4,0Z" style="fill:#2c4b75"/><rect height="3" style="fill:#2c4b75" width="6" x="42" y="46"/><path d="M57,46H52v3h5a2,2,0,0,0,2-2V44A2,2,0,0,1,57,46Z" style="fill:#2c4b75"/><rect height="3" style="fill:#2c4b75" width="6" x="32" y="46"/><path d="M42,42a2,2,0,0,0-4,0v3a2,2,0,0,1,4,0Z" style="fill:#2c4b75"/></g><rect height="18" style="fill:#9eb2cc" width="10" x="11" y="17"/><rect height="3" style="fill:#fff;opacity:0.5" width="10" x="10.99987" y="16.99983"/><rect height="18" style="fill:#9eb2cc" width="10" x="25" y="17"/><rect height="18" style="fill:#9eb2cc" width="10" x="39" y="17"/><rect height="3" style="fill:#2c4b75;opacity:0.2" width="10" x="10.99987" y="32"/><rect height="3" style="fill:#fff;opacity:0.5" width="10" x="25" y="16.99983"/><rect height="3" style="fill:#2c4b75;opacity:0.2" width="10" x="25" y="32"/><rect height="3" style="fill:#fff;opacity:0.5" width="10" x="39" y="16.99983"/><rect height="3" style="fill:#2c4b75;opacity:0.2" width="10" x="39" y="32"/><path d="M57,50H52a.99974.99974,0,0,1-1-1V45a1,1,0,0,0-2,0v4a.99974.99974,0,0,1-1,1H42a.99974.99974,0,0,1-1-1V45a1,1,0,0,0-2,0v4a.99974.99974,0,0,1-1,1H32a.99974.99974,0,0,1-1-1V45a1,1,0,0,0-2,0v4a.99974.99974,0,0,1-1,1H22a.99974.99974,0,0,1-1-1V45a1,1,0,0,0-2,0v4a.99974.99974,0,0,1-1,1H12a.99974.99974,0,0,1-1-1V45a1,1,0,0,0-2,0v4a.99974.99974,0,0,1-1,1H3a3.00328,3.00328,0,0,1-3-3V34.89941a1.00009,1.00009,0,0,1,.80078-.98A4.01053,4.01053,0,0,0,4,30,4.01053,4.01053,0,0,0,.80078,26.08057,1.00009,1.00009,0,0,1,0,25.10059V13a3.00328,3.00328,0,0,1,3-3H57a3.00328,3.00328,0,0,1,3,3V25.10059a1.00009,1.00009,0,0,1-.80078.98,4.0005,4.0005,0,0,0,0,7.83887,1.00009,1.00009,0,0,1,.80078.98V47A3.00328,3.00328,0,0,1,57,50Zm-4-2h4a1.001,1.001,0,0,0,1-1V35.65771a6.00122,6.00122,0,0,1,0-11.31543V13a1.001,1.001,0,0,0-1-1H3a1.001,1.001,0,0,0-1,1V24.34229A6.02207,6.02207,0,0,1,6,30a6.02207,6.02207,0,0,1-4,5.65771V47a1.001,1.001,0,0,0,1,1H7V45a3,3,0,0,1,6,0v3h4V45a3,3,0,0,1,6,0v3h4V45a3,3,0,0,1,6,0v3h4V45a3,3,0,0,1,6,0v3h4V45a3,3,0,0,1,6,0Zm6-22.89941h0Z" style="fill:#6d6daa"/><path d="M21,36H11a.99974.99974,0,0,1-1-1V17a.99974.99974,0,0,1,1-1H21a.99974.99974,0,0,1,1,1V35A.99974.99974,0,0,1,21,36Zm-9-2h8V18H12Z" style="fill:#6d6daa"/><path d="M35,36H25a.99974.99974,0,0,1-1-1V17a.99974.99974,0,0,1,1-1H35a.99974.99974,0,0,1,1,1V35A.99974.99974,0,0,1,35,36Zm-9-2h8V18H26Z" style="fill:#6d6daa"/><path d="M49,36H39a.99974.99974,0,0,1-1-1V17a.99974.99974,0,0,1,1-1H49a.99974.99974,0,0,1,1,1V35A.99974.99974,0,0,1,49,36Zm-9-2h8V18H40Z" style="fill:#6d6daa"/></svg>