<?xml version="1.0" ?><svg height="60" id="Basic_1" viewBox="0 0 60 60" width="60" xmlns="http://www.w3.org/2000/svg"><title/><path d="M50,55l-5-5-5,5-5-5-5,5-5-5-5,5-5-5-5,5V23A20,20,0,0,1,30,3h0A20,20,0,0,1,50,23Z" style="fill:#96d7ff"/><path d="M30,3c8.83655,0,16,8.95428,16,20V51l4,4V23A20,20,0,0,0,30,3Z" style="fill:#2c4b75;opacity:0.2"/><polygon points="28.75 53.333 30 55 29.25 50 28.75 53.333" style="fill:#96d7ff"/><polygon points="30.75 50 30 55 31.25 53.333 30.75 50" style="fill:#96d7ff"/><polygon points="27.5 51.667 28.125 52.5 27.75 50 27.5 51.667" style="fill:#96d7ff"/><path d="M15,23V50l5,5,5-5,2,2V23c0-11.04572,1.34314-20,3-20C21.7157,3,15,11.95429,15,23Z" style="fill:#fff;opacity:0.5"/><polygon points="31.875 52.5 32.5 51.667 32.25 50 31.875 52.5" style="fill:#96d7ff"/><path d="M40,52l-4.29289-4.29289a1,1,0,0,0-1.41421,0L30,52l-4.29289-4.29289a1,1,0,0,0-1.41421,0L20,52l-4.29289-4.29289a1,1,0,0,0-1.41421,0L10,52v3l5-5,5,5,5-5,5,5,5-5,5,5,5-5,5,5V52l-4.29289-4.29289a1,1,0,0,0-1.41421,0Z" style="fill:#2c4b75;opacity:0.2"/><path d="M30,3A20,20,0,0,0,10,23v3a20,20,0,1,1,40,0V23A20,20,0,0,0,30,3Z" style="fill:#fff;opacity:0.5"/><path d="M50,55l-5-5-5,5-5-5-5,5-5-5-5,5-5-5-5,5V23A20,20,0,0,1,30,3h0A20,20,0,0,1,50,23Z" style="fill:none;stroke:#6d6daa;stroke-linecap:round;stroke-linejoin:round;stroke-width:2px"/><path d="M38,29h0a2,2,0,0,1-2-2V21a2,2,0,0,1,2-2h0a2,2,0,0,1,2,2v6A2,2,0,0,1,38,29Z" style="fill:#fff"/><path d="M28,29h0a2,2,0,0,1-2-2V21a2,2,0,0,1,2-2h0a2,2,0,0,1,2,2v6A2,2,0,0,1,28,29Z" style="fill:#fff"/><path d="M38,19a1.99994,1.99994,0,0,0-2,2v3a2,2,0,0,1,4,0V21A1.99994,1.99994,0,0,0,38,19Z" style="fill:#2c4b75;opacity:0.2"/><path d="M28,29h0a2,2,0,0,1-2-2V21a2,2,0,0,1,2-2h0a2,2,0,0,1,2,2v6A2,2,0,0,1,28,29Z" style="fill:#fff"/><path d="M28,19a1.99994,1.99994,0,0,0-2,2v3a2,2,0,0,1,4,0V21A1.99994,1.99994,0,0,0,28,19Z" style="fill:#2c4b75;opacity:0.2"/><path d="M38,29h0a2,2,0,0,1-2-2V21a2,2,0,0,1,2-2h0a2,2,0,0,1,2,2v6A2,2,0,0,1,38,29Z" style="fill:none;stroke:#6d6daa;stroke-linecap:round;stroke-linejoin:round;stroke-width:2px"/><path d="M28,29h0a2,2,0,0,1-2-2V21a2,2,0,0,1,2-2h0a2,2,0,0,1,2,2v6A2,2,0,0,1,28,29Z" style="fill:none;stroke:#6d6daa;stroke-linecap:round;stroke-linejoin:round;stroke-width:2px"/></svg>