<?xml version="1.0" ?><svg height="60" id="Basic_2" viewBox="0 0 60 60" width="60" xmlns="http://www.w3.org/2000/svg"><title/><path d="M57,33.7242V26.2758L50.59561,24.141a21.28166,21.28166,0,0,0-1.8893-4.5619l3.019-6.0376-5.2668-5.2668-6.0376,3.019A21.27141,21.27141,0,0,0,35.859,9.4044L33.72421,3h-7.4484L24.141,9.4044a21.27152,21.27152,0,0,0-4.56191,1.8893l-6.0376-3.019-5.2668,5.2668,3.019,6.0376a21.27147,21.27147,0,0,0-1.8893,4.5619L3,26.2758v7.4484L9.40441,35.859a21.27147,21.27147,0,0,0,1.8893,4.5619l-3.019,6.0376,5.2668,5.2668,6.0376-3.019A21.27152,21.27152,0,0,0,24.141,50.5956L26.27581,57h7.4484L35.859,50.5956a21.27141,21.27141,0,0,0,4.56189-1.8893l6.0376,3.019,5.2668-5.2668-3.019-6.0376a21.28166,21.28166,0,0,0,1.8893-4.5619Z" style="fill:#ced8ee"/><path d="M48.7063,37.4209l.751,1.50183A21.31017,21.31017,0,0,0,50.59558,35.859L57,33.72418v-3L50.59558,32.859A21.2806,21.2806,0,0,1,48.7063,37.4209Z" style="fill:#2c4b75;opacity:0.2"/><path d="M46.4585,48.72528l-6.0376-3.019A21.2718,21.2718,0,0,1,35.859,47.59558L33.72418,54H26.27582L24.141,47.59558A21.27309,21.27309,0,0,1,19.5791,45.7063l-6.0376,3.019L9.27478,44.45856,8.27472,46.4585l5.26678,5.26678,6.0376-3.019A21.27309,21.27309,0,0,0,24.141,50.59558L26.27582,57h7.44836L35.859,50.59558A21.2718,21.2718,0,0,0,40.4209,48.7063l6.0376,3.019,5.26678-5.26678-1.00006-1.99994Z" style="fill:#2c4b75;opacity:0.2"/><path d="M10.54272,38.92273l.751-1.50183A21.27438,21.27438,0,0,1,9.40442,32.859L3,30.72418v3L9.40442,35.859A21.31017,21.31017,0,0,0,10.54272,38.92273Z" style="fill:#2c4b75;opacity:0.2"/><path d="M11.2937,22.5791l-.751-1.50183A21.30747,21.30747,0,0,0,9.40442,24.141L3,26.27576v3L9.40442,27.141A21.2718,21.2718,0,0,1,11.2937,22.5791Z" style="fill:#fff;opacity:0.5"/><path d="M13.5415,11.27466l6.0376,3.019A21.27016,21.27016,0,0,1,24.141,12.40436L26.27582,6h7.44836L35.859,12.40436A21.26887,21.26887,0,0,1,40.4209,14.2937l6.0376-3.019,4.26672,4.26678,1.00006-1.99994L46.4585,8.27466l-6.0376,3.019A21.26887,21.26887,0,0,0,35.859,9.40436L33.72418,3H26.27582L24.141,9.40436A21.27016,21.27016,0,0,0,19.5791,11.2937l-6.0376-3.019L8.27472,13.5415l1.00006,1.99994Z" style="fill:#fff;opacity:0.5"/><path d="M50.59558,24.141a21.30747,21.30747,0,0,0-1.13831-3.06372l-.751,1.50183A21.278,21.278,0,0,1,50.59558,27.141L57,29.27576v-3Z" style="fill:#fff;opacity:0.5"/><circle cx="30.00002" cy="30" r="15" style="fill:#d4edff"/><path d="M30,42A15.00077,15.00077,0,0,1,15.07574,28.5C15.02673,28.99353,15,29.49359,15,30a15,15,0,0,0,30,0c0-.50641-.02673-1.00647-.07574-1.5A15.00077,15.00077,0,0,1,30,42Z" style="fill:#2c4b75;opacity:0.2"/><path d="M30,18A15.00077,15.00077,0,0,1,44.92426,31.5c.049-.49353.07574-.99359.07574-1.5a15,15,0,0,0-30,0c0,.50641.02673,1.00647.07574,1.5A15.00077,15.00077,0,0,1,30,18Z" style="fill:#fff;opacity:0.5"/><path d="M57,33.7242V26.2758L50.59561,24.141a21.28166,21.28166,0,0,0-1.8893-4.5619l3.019-6.0376-5.2668-5.2668-6.0376,3.019A21.27141,21.27141,0,0,0,35.859,9.4044L33.72421,3h-7.4484L24.141,9.4044a21.27152,21.27152,0,0,0-4.56191,1.8893l-6.0376-3.019-5.2668,5.2668,3.019,6.0376a21.27147,21.27147,0,0,0-1.8893,4.5619L3,26.2758v7.4484L9.40441,35.859a21.27147,21.27147,0,0,0,1.8893,4.5619l-3.019,6.0376,5.2668,5.2668,6.0376-3.019A21.27152,21.27152,0,0,0,24.141,50.5956L26.27581,57h7.4484L35.859,50.5956a21.27141,21.27141,0,0,0,4.56189-1.8893l6.0376,3.019,5.2668-5.2668-3.019-6.0376a21.28166,21.28166,0,0,0,1.8893-4.5619Z" style="fill:none;stroke:#6d6daa;stroke-linecap:round;stroke-linejoin:round;stroke-width:2px"/><circle cx="30.00002" cy="30" r="15" style="fill:none;stroke:#6d6daa;stroke-linecap:round;stroke-linejoin:round;stroke-width:2px"/><path d="M30,28.30769,32.17564,19.757a.65593.65593,0,0,0-1.22611-.40469L22.48907,30.54026a.76273.76273,0,0,0,.56137,1.16027l6.18151-.00822L26.97823,40.243a.65593.65593,0,0,0,1.22611.40469l9.30661-11.20514a.76273.76273,0,0,0-.56137-1.16027Z" style="fill:#fff27d;stroke:#6d6daa;stroke-linecap:round;stroke-linejoin:round;stroke-width:2px"/><line style="fill:none;stroke:#6d6daa;stroke-linecap:round;stroke-linejoin:round;stroke-width:2px" x1="19.00011" x2="19.00011" y1="30.03" y2="30"/><line style="fill:none;stroke:#6d6daa;stroke-linecap:round;stroke-linejoin:round;stroke-width:2px" x1="41.00011" x2="41.00011" y1="30.03" y2="30"/></svg>