<?xml version="1.0" ?><svg height="60" id="Basic_2" viewBox="0 0 60 60" width="60" xmlns="http://www.w3.org/2000/svg"><title/><path d="M24,56.7173a23,23,0,1,0,0-41.4346" style="fill:#eef6ff"/><path d="M34,56a22.90689,22.90689,0,0,1-10-2.28271v3A23.00838,23.00838,0,0,0,57,36c0-.50446-.022-1.0036-.054-1.5A22.99747,22.99747,0,0,1,34,56Z" style="fill:#2c4b75;opacity:0.2"/><path d="M56.94606,37.5c.032-.4964.054-.99554.054-1.5A23.00838,23.00838,0,0,0,24,15.28271v3A23.00455,23.00455,0,0,1,56.94606,37.5Z" style="fill:#fff;opacity:0.75"/><path d="M24,52.1337a19,19,0,1,0,0-32.2674" style="fill:#d4edff"/><circle cx="34.00002" cy="36" r="2" style="fill:none;stroke:#6d6daa;stroke-linecap:round;stroke-linejoin:round;stroke-width:2px"/><line style="fill:none;stroke:#6d6daa;stroke-linecap:round;stroke-linejoin:round;stroke-width:2px" x1="41.77822" x2="30.46452" y1="28.2218" y2="39.5355"/><path d="M31.75417,17.14435c-.39563.04669-.78638.10858-1.17419.1792-.187.03448-.37659.06158-.56158.10162-.4657.09937-.92291.22083-1.37524.35364-.30487.09052-.60437.1933-.90271.29852q-.246.086-.48871.17883a19.19156,19.19156,0,0,0-3.24915,1.60864L24,19.86633v2.98938A18.97146,18.97146,0,0,1,52.92427,37.5C52.96315,37.0036,53,36.50641,53,36A19,19,0,0,0,34,17c-.57715,0-1.14545.03595-1.70947.0863C32.11086,17.1026,31.93233,17.123,31.75417,17.14435Z" style="fill:#2c4b75;opacity:0.2"/><path d="M24,45.75989V50.0025L49.27187,24.73065v-.00006q-.43643-.59042-.9118-1.14783c-.05542-.06409-.11456-.12469-.17084-.188-.28369-.32361-.57275-.6424-.87994-.94415Z" style="fill:#fff;opacity:0.5"/><path d="M31.75417,17.14435c-.39563.04669-.78638.10858-1.17419.1792-.187.03448-.37659.06158-.56158.10162-.4657.09937-.92291.22083-1.37524.35364-.30487.09052-.60437.1933-.90271.29852q-.246.086-.48871.17883a19.19156,19.19156,0,0,0-3.24915,1.60864L24,19.86633V41.51727L44.99458,20.52271c-.34033-.24225-.6922-.469-1.04846-.68909-.09534-.05878-.19073-.11731-.28717-.17444-.338-.20074-.68164-.39313-1.03265-.57324-.11951-.061-.24225-.11633-.36322-.17493a18.92844,18.92844,0,0,0-1.83014-.77026c-.19781-.07129-.39111-.15173-.59186-.21661-.24957-.08124-.50653-.14539-.7605-.21637-.30511-.08459-.61078-.16748-.92181-.237-.23315-.05261-.46875-.09821-.70514-.14209q-.54822-.1008-1.10736-.169c-.197-.0246-.39276-.05267-.59167-.07111C35.1761,17.03552,34.59236,17,34,17c-.57715,0-1.14545.03595-1.70947.0863C32.11086,17.1026,31.93233,17.123,31.75417,17.14435Z" style="fill:#fff;opacity:0.5"/><path d="M24,56.7173a23,23,0,1,0,0-41.4346" style="fill:none;stroke:#6d6daa;stroke-linecap:round;stroke-linejoin:round;stroke-width:2px"/><path d="M24,52.1337a19,19,0,1,0,0-32.2674" style="fill:none;stroke:#6d6daa;stroke-linecap:round;stroke-linejoin:round;stroke-width:2px"/><circle cx="34.00002" cy="7" r="6" style="fill:none;stroke:#6d6daa;stroke-linecap:round;stroke-linejoin:round;stroke-width:2px"/><line style="fill:none;stroke:#6d6daa;stroke-linecap:round;stroke-linejoin:round;stroke-width:2px;opacity:0.5" x1="34.00002" x2="34.00002" y1="21" y2="21"/><line style="fill:none;stroke:#6d6daa;stroke-linecap:round;stroke-linejoin:round;stroke-width:2px;opacity:0.5" x1="34.00002" x2="34.00002" y1="51" y2="51"/><line style="fill:none;stroke:#6d6daa;stroke-linecap:round;stroke-linejoin:round;stroke-width:2px;opacity:0.5" x1="49.00002" x2="49.00002" y1="36" y2="36"/><line style="fill:none;stroke:#6d6daa;stroke-linecap:round;stroke-linejoin:round;stroke-width:2px;opacity:0.5" x1="26.50002" x2="26.50002" y1="23.0096" y2="23.0096"/><line style="fill:none;stroke:#6d6daa;stroke-linecap:round;stroke-linejoin:round;stroke-width:2px;opacity:0.5" x1="41.50002" x2="41.50002" y1="48.9904" y2="48.9904"/><line style="fill:none;stroke:#6d6daa;stroke-linecap:round;stroke-linejoin:round;stroke-width:2px;opacity:0.5" x1="46.99042" x2="46.99042" y1="28.5" y2="28.5"/><line style="fill:none;stroke:#6d6daa;stroke-linecap:round;stroke-linejoin:round;stroke-width:2px;opacity:0.5" x1="46.99042" x2="46.99042" y1="43.5" y2="43.5"/><line style="fill:none;stroke:#6d6daa;stroke-linecap:round;stroke-linejoin:round;stroke-width:2px;opacity:0.5" x1="41.50002" x2="41.50002" y1="23.0096" y2="23.0096"/><line style="fill:none;stroke:#6d6daa;stroke-linecap:round;stroke-linejoin:round;stroke-width:2px;opacity:0.5" x1="26.50002" x2="26.50002" y1="48.9904" y2="48.9904"/><polyline points="33 13 33 8 35 8 35 13" style="fill:none;stroke:#6d6daa;stroke-linecap:round;stroke-linejoin:round;stroke-width:2px"/><rect height="5.65685" style="fill:none;stroke:#6d6daa;stroke-linecap:round;stroke-linejoin:round;stroke-width:2px" transform="translate(4.29542 43.37007) rotate(-45)" width="1.41421" x="53.79291" y="13.67157"/><line style="fill:none;stroke:#6d6daa;stroke-linecap:round;stroke-linejoin:round;stroke-width:2px" x1="54.00002" x2="50.72922" y1="17" y2="20.2708"/><line style="fill:none;stroke:#6d6daa;stroke-linecap:round;stroke-linejoin:round;stroke-width:2px;opacity:0.5" x1="19.00002" x2="20.00002" y1="20" y2="20"/><line style="fill:none;stroke:#6d6daa;stroke-linecap:round;stroke-linejoin:round;stroke-width:2px;opacity:0.5" x1="14.00002" x2="20.00002" y1="28" y2="28"/><line style="fill:none;stroke:#6d6daa;stroke-linecap:round;stroke-linejoin:round;stroke-width:2px;opacity:0.5" x1="17.00002" x2="20.00002" y1="24" y2="24"/><line style="fill:none;stroke:#6d6daa;stroke-linecap:round;stroke-linejoin:round;stroke-width:2px;opacity:0.5" x1="9.99999" x2="20.00002" y1="52" y2="52"/><line style="fill:none;stroke:#6d6daa;stroke-linecap:round;stroke-linejoin:round;stroke-width:2px;opacity:0.5" x1="11.00002" x2="20.00002" y1="32" y2="32"/><line style="fill:none;stroke:#6d6daa;stroke-linecap:round;stroke-linejoin:round;stroke-width:2px;opacity:0.5" x1="0.99998" x2="20.00002" y1="44" y2="44"/><line style="fill:none;stroke:#6d6daa;stroke-linecap:round;stroke-linejoin:round;stroke-width:2px;opacity:0.5" x1="5.99999" x2="20.00002" y1="48" y2="48"/><line style="fill:none;stroke:#6d6daa;stroke-linecap:round;stroke-linejoin:round;stroke-width:2px;opacity:0.5" x1="3.99999" x2="20.00002" y1="40" y2="40"/><line style="fill:none;stroke:#6d6daa;stroke-linecap:round;stroke-linejoin:round;stroke-width:2px;opacity:0.5" x1="6.99999" x2="20.00002" y1="36" y2="36"/></svg>