<?xml version="1.0" encoding="UTF-8"?>
<svg xmlns="http://www.w3.org/2000/svg" xmlns:xlink="http://www.w3.org/1999/xlink" width="409.600006pt" height="409.600006pt" viewBox="0 0 409.600006 409.600006" version="1.1">
<g id="surface1">
<path style=" stroke:none;fill-rule:nonzero;fill:rgb(30%,30%,30%);fill-opacity:1;" d="M 204.800781 0 C 91.691406 0 0 91.695312 0 204.800781 C 0 317.910156 91.691406 409.601562 204.800781 409.601562 C 317.90625 409.601562 409.601562 317.910156 409.601562 204.800781 C 409.601562 91.695312 317.90625 0 204.800781 0 Z M 99.199219 68.5 L 127.550781 68.5 C 128.535156 68.5 129.519531 68.734375 130.398438 69.175781 L 151.148438 79.523438 L 192.425781 79.523438 C 198.050781 79.523438 202.824219 84.238281 202.824219 89.898438 L 202.824219 144.550781 C 202.824219 150.210938 198.050781 154.925781 192.425781 154.925781 L 168.523438 154.925781 L 168.523438 189.726562 L 206.800781 189.726562 L 206.800781 163.273438 C 206.800781 157.613281 211.574219 152.925781 217.199219 152.925781 L 245.550781 152.925781 C 246.535156 152.925781 247.519531 153.160156 248.398438 153.601562 L 269.175781 163.949219 L 310.425781 163.949219 C 316.050781 163.949219 320.824219 168.664062 320.824219 174.324219 L 320.824219 228.976562 C 320.824219 234.636719 316.050781 239.324219 310.425781 239.324219 L 217.199219 239.324219 C 211.574219 239.324219 206.800781 234.636719 206.800781 228.976562 L 206.800781 202.523438 L 168.523438 202.523438 L 168.523438 289.847656 L 206.800781 289.847656 L 206.800781 265.023438 C 206.800781 259.363281 211.574219 254.648438 217.199219 254.648438 L 245.550781 254.648438 C 246.535156 254.652344 247.519531 254.882812 248.398438 255.324219 L 269.175781 265.675781 L 310.425781 265.675781 C 316.050781 265.675781 320.824219 270.390625 320.824219 276.050781 L 320.824219 330.699219 C 320.824219 336.359375 316.046875 341.074219 310.425781 341.074219 L 217.199219 341.074219 C 211.578125 341.074219 206.800781 336.359375 206.800781 330.699219 L 206.800781 302.648438 L 162.125 302.648438 C 158.773438 302.648438 155.726562 299.601562 155.726562 296.25 L 155.726562 196.875 C 155.671875 196.402344 155.671875 195.921875 155.726562 195.449219 L 155.726562 154.925781 L 99.199219 154.925781 C 93.574219 154.925781 88.800781 150.210938 88.800781 144.550781 L 88.800781 78.875 C 88.800781 73.214844 93.574219 68.5 99.199219 68.5 Z M 101.601562 81.300781 L 101.601562 142.125 L 190.023438 142.125 L 190.023438 92.324219 L 149.648438 92.324219 C 148.664062 92.324219 147.679688 92.089844 146.800781 91.648438 L 126.023438 81.300781 Z M 219.601562 165.726562 L 219.601562 226.523438 L 308.023438 226.523438 L 308.023438 176.75 L 267.675781 176.75 C 266.683594 176.75 265.6875 176.519531 264.800781 176.074219 L 244.050781 165.726562 Z M 219.601562 267.449219 L 219.601562 328.273438 L 308.023438 328.273438 L 308.023438 278.472656 L 267.675781 278.472656 C 266.683594 278.476562 265.6875 278.242188 264.800781 277.800781 L 244.050781 267.449219 Z M 219.601562 267.449219 "/>
</g>
</svg>
