<?xml version="1.0" encoding="UTF-8"?>
<svg xmlns="http://www.w3.org/2000/svg" xmlns:xlink="http://www.w3.org/1999/xlink" width="51.200001pt" height="51.200001pt" viewBox="0 0 51.200001 51.200001" version="1.1">
<g id="surface1">
<path style="fill:none;stroke-width:1.6;stroke-linecap:butt;stroke-linejoin:round;stroke:rgb(26%,26%,26%);stroke-opacity:1;stroke-miterlimit:10;" d="M 43.199219 12 L 45.601562 12 C 46.484375 12 47.199219 12.71875 47.199219 13.601562 L 47.199219 40.800781 C 47.199219 41.683594 46.484375 42.398438 45.601562 42.398438 L 5.601562 42.398438 C 4.71875 42.398438 4 41.683594 4 40.800781 L 4 13.601562 C 4 12.71875 4.71875 12 5.601562 12 L 8 12 "/>
<path style="fill:none;stroke-width:1.6;stroke-linecap:butt;stroke-linejoin:round;stroke:rgb(26%,26%,26%);stroke-opacity:1;stroke-miterlimit:10;" d="M 36.800781 47.199219 L 14.398438 47.199219 "/>
<path style="fill:none;stroke-width:1.6;stroke-linecap:butt;stroke-linejoin:round;stroke:rgb(26%,26%,26%);stroke-opacity:1;stroke-miterlimit:10;" d="M 29.601562 42.398438 L 29.601562 47.199219 "/>
<path style="fill:none;stroke-width:1.6;stroke-linecap:butt;stroke-linejoin:round;stroke:rgb(26%,26%,26%);stroke-opacity:1;stroke-miterlimit:10;" d="M 21.601562 42.398438 L 21.601562 47.199219 "/>
<path style="fill:none;stroke-width:1.6;stroke-linecap:butt;stroke-linejoin:round;stroke:rgb(26%,26%,26%);stroke-opacity:1;stroke-miterlimit:10;" d="M 47.199219 37.601562 L 4 37.601562 "/>
<path style="fill:none;stroke-width:1.6;stroke-linecap:butt;stroke-linejoin:round;stroke:rgb(26%,26%,26%);stroke-opacity:1;stroke-miterlimit:10;" d="M 40.800781 35.199219 L 40.800781 4 L 16.800781 4 L 16.800781 10.398438 L 10.398438 10.398438 L 10.398438 35.199219 "/>
<path style="fill:none;stroke-width:1.6;stroke-linecap:butt;stroke-linejoin:round;stroke:rgb(26%,26%,26%);stroke-opacity:1;stroke-miterlimit:10;" d="M 16.800781 4 L 10.398438 10.398438 "/>
<path style="fill:none;stroke-width:1.6;stroke-linecap:butt;stroke-linejoin:round;stroke:rgb(26%,26%,26%);stroke-opacity:1;stroke-miterlimit:10;" d="M 24 13.601562 L 36.800781 13.601562 "/>
<path style="fill:none;stroke-width:1.6;stroke-linecap:butt;stroke-linejoin:round;stroke:rgb(26%,26%,26%);stroke-opacity:1;stroke-miterlimit:10;" d="M 20.800781 8.800781 L 36.800781 8.800781 "/>
<path style="fill:none;stroke-width:1.6;stroke-linecap:butt;stroke-linejoin:round;stroke:rgb(26%,26%,26%);stroke-opacity:1;stroke-miterlimit:10;" d="M 24 16.800781 L 33.601562 16.800781 "/>
<path style="fill:none;stroke-width:1.6;stroke-linecap:butt;stroke-linejoin:round;stroke:rgb(26%,26%,26%);stroke-opacity:1;stroke-miterlimit:10;" d="M 24 21.601562 L 36.800781 21.601562 "/>
<path style="fill:none;stroke-width:1.6;stroke-linecap:butt;stroke-linejoin:round;stroke:rgb(26%,26%,26%);stroke-opacity:1;stroke-miterlimit:10;" d="M 24 24.800781 L 33.601562 24.800781 "/>
<path style="fill:none;stroke-width:1.6;stroke-linecap:butt;stroke-linejoin:round;stroke:rgb(26%,26%,26%);stroke-opacity:1;stroke-miterlimit:10;" d="M 24 29.601562 L 36.800781 29.601562 "/>
<path style="fill:none;stroke-width:1.6;stroke-linecap:butt;stroke-linejoin:round;stroke:rgb(26%,26%,26%);stroke-opacity:1;stroke-miterlimit:10;" d="M 24 32.800781 L 33.601562 32.800781 "/>
<path style="fill:none;stroke-width:1.6;stroke-linecap:round;stroke-linejoin:round;stroke:rgb(26%,26%,26%);stroke-opacity:1;stroke-miterlimit:10;" d="M 15.199219 15.199219 L 16.800781 16.800781 L 20 13.601562 "/>
<path style="fill:none;stroke-width:1.6;stroke-linecap:round;stroke-linejoin:round;stroke:rgb(26%,26%,26%);stroke-opacity:1;stroke-miterlimit:10;" d="M 15.199219 23.199219 L 16.800781 24.800781 L 20 21.601562 "/>
<path style="fill:none;stroke-width:1.6;stroke-linecap:round;stroke-linejoin:round;stroke:rgb(26%,26%,26%);stroke-opacity:1;stroke-miterlimit:10;" d="M 15.199219 31.199219 L 16.800781 32.800781 L 20 29.601562 "/>
<path style="fill:none;stroke-width:1.6;stroke-linecap:butt;stroke-linejoin:round;stroke:rgb(26%,26%,26%);stroke-opacity:1;stroke-miterlimit:10;" d="M 27.199219 40 L 24 40 "/>
</g>
</svg>
