<?xml version="1.0" ?><!DOCTYPE svg  PUBLIC '-//W3C//DTD SVG 1.1//EN'  'http://www.w3.org/Graphics/SVG/1.1/DTD/svg11.dtd'><svg height="64px" id="Image" style="enable-background:new 0 0 64 64;" version="1.1" viewBox="0 0 64 64" width="64px" xml:space="preserve" xmlns="http://www.w3.org/2000/svg" xmlns:xlink="http://www.w3.org/1999/xlink"><g><path d="M54,15h3   c1.104,0,2,0.896,2,2v34c0,1.104-0.896,2-2,2H7c-1.104,0-2-0.896-2-2V17c0-1.104,0.896-2,2-2h3" style="fill:none;stroke:#424242;stroke-width:2;stroke-linejoin:round;stroke-miterlimit:10;"/><line style="fill:none;stroke:#424242;stroke-width:2;stroke-linejoin:round;stroke-miterlimit:10;" x1="46" x2="18" y1="59" y2="59"/><line style="fill:none;stroke:#424242;stroke-width:2;stroke-linejoin:round;stroke-miterlimit:10;" x1="37" x2="37" y1="53" y2="59"/><line style="fill:none;stroke:#424242;stroke-width:2;stroke-linejoin:round;stroke-miterlimit:10;" x1="27" x2="27" y1="53" y2="59"/><line style="fill:none;stroke:#424242;stroke-width:2;stroke-linejoin:round;stroke-miterlimit:10;" x1="59" x2="5" y1="47" y2="47"/><polyline points="51,44 51,5 21,5    21,13 13,13 13,44  " style="fill:none;stroke:#424242;stroke-width:2;stroke-linejoin:round;stroke-miterlimit:10;"/><line style="fill:none;stroke:#424242;stroke-width:2;stroke-linejoin:round;stroke-miterlimit:10;" x1="21" x2="13" y1="5" y2="13"/><line style="fill:none;stroke:#424242;stroke-width:2;stroke-linejoin:round;stroke-miterlimit:10;" x1="30" x2="46" y1="17" y2="17"/><line style="fill:none;stroke:#424242;stroke-width:2;stroke-linejoin:round;stroke-miterlimit:10;" x1="26" x2="46" y1="11" y2="11"/><line style="fill:none;stroke:#424242;stroke-width:2;stroke-linejoin:round;stroke-miterlimit:10;" x1="30" x2="42" y1="21" y2="21"/><line style="fill:none;stroke:#424242;stroke-width:2;stroke-linejoin:round;stroke-miterlimit:10;" x1="30" x2="46" y1="27" y2="27"/><line style="fill:none;stroke:#424242;stroke-width:2;stroke-linejoin:round;stroke-miterlimit:10;" x1="30" x2="42" y1="31" y2="31"/><line style="fill:none;stroke:#424242;stroke-width:2;stroke-linejoin:round;stroke-miterlimit:10;" x1="30" x2="46" y1="37" y2="37"/><line style="fill:none;stroke:#424242;stroke-width:2;stroke-linejoin:round;stroke-miterlimit:10;" x1="30" x2="42" y1="41" y2="41"/><polyline points="   19,19 21,21 25,17  " style="fill:none;stroke:#424242;stroke-width:2;stroke-linecap:round;stroke-linejoin:round;stroke-miterlimit:10;"/><polyline points="   19,29 21,31 25,27  " style="fill:none;stroke:#424242;stroke-width:2;stroke-linecap:round;stroke-linejoin:round;stroke-miterlimit:10;"/><polyline points="   19,39 21,41 25,37  " style="fill:none;stroke:#424242;stroke-width:2;stroke-linecap:round;stroke-linejoin:round;stroke-miterlimit:10;"/><line style="fill:none;stroke:#424242;stroke-width:2;stroke-linejoin:round;stroke-miterlimit:10;" x1="34" x2="30" y1="50" y2="50"/></g></svg>