<?xml version="1.0" ?><!DOCTYPE svg  PUBLIC '-//W3C//DTD SVG 1.1//EN'  'http://www.w3.org/Graphics/SVG/1.1/DTD/svg11.dtd'><svg enable-background="new 0 0 128 128" height="128px" id="Layer_1" version="1.1" viewBox="0 0 128 128" width="128px" xml:space="preserve" xmlns="http://www.w3.org/2000/svg" xmlns:xlink="http://www.w3.org/1999/xlink"><path d="M44.5,11.7c1.4,0,2.5,0.1,4.5,0.3v3.9v3l2.8,0.8c1.7,0.5,3.4,1.2,4.9,2.1l2.6,1.4l2.1-2.1l2.8-2.8  c2.3,1.8,4.4,3.8,6.1,6.1l-2.8,2.8l-2.1,2.1l1.4,2.6c0.9,1.6,1.5,3.3,2.1,5l0.8,2.9h3h3.9c0.2,1,0.3,3.1,0.3,4.5S76.9,47,76.7,49  h-3.9h-3l-0.8,2.6c-0.5,1.7-1.2,3.3-2.1,4.9l-1.4,2.6l2.1,2.1l2.8,2.8c-1.8,2.3-3.8,4.4-6.1,6.1l-2.8-2.8l-2.1-2.1l-2.6,1.4  c-1.6,0.9-3.2,1.5-4.9,2.1L49,69.5v3v3.9c-2,0.2-3.1,0.3-4.5,0.3c-1.4,0-2.5-0.1-4.5-0.3v-3.9v-3l-2.8-0.8c-1.7-0.5-3.4-1.2-4.9-2.1  l-2.6-1.4l-2.1,2.1L24.8,70c-2.3-1.8-4.4-3.8-6.1-6.1l2.8-2.8l2.1-2.1l-1.4-2.6c-0.9-1.6-1.5-3-2.1-4.8L19.2,49h-3h-3.9  c-0.2-2-0.3-3.1-0.3-4.5s0.1-3.5,0.3-4.5h3.9h3l0.8-2.9c0.5-1.7,1.2-3.5,2.1-5l1.4-2.6l-2.1-2.1l-2.8-2.8c1.8-2.3,3.8-4.4,6.1-6.1  l2.8,2.8l2.1,2.1l2.6-1.4c1.6-0.9,3.2-1.5,4.9-2.1l2.8-0.8v-3V12C42,11.8,43.1,11.7,44.5,11.7 M44.5,7.7c-2.9,0-5.5,0.3-8.5,1v7.3  c-2,0.6-3.9,1.4-5.7,2.4l-5.1-5.1c-4.8,3-8.8,7-11.8,11.8l5.1,5.2c-1,1.8-1.8,3.8-2.4,5.8H9c-0.6,3-1,5.6-1,8.5C8,47.4,8.3,50,9,53  h7.3c0.6,2,1.4,3.7,2.4,5.5l-5.1,5c3,4.8,7,8.8,11.8,11.7l5-5.2c1.8,1,3.7,1.8,5.7,2.4v7.3c3,0.6,5.6,1,8.5,1s5.5-0.3,8.5-1v-7.3  c2-0.6,3.9-1.4,5.7-2.4l5.1,5.1c4.8-3,8.8-7,11.8-11.8l-5.1-4.9c1-1.8,1.8-3.5,2.4-5.5H80c0.6-3,1-5.6,1-8.5c0-2.9-0.3-5.5-1-8.5  h-7.3c-0.6-2-1.4-4-2.4-5.8l5.1-5.2c-3-4.8-7-8.8-11.8-11.8l-5,5.1c-1.8-1-3.7-1.8-5.7-2.4V8.7C50,8,47.4,7.7,44.5,7.7L44.5,7.7z" fill="#2C3E50"/><path d="M44.5,26c-10.1,0-18.3,8.2-18.3,18.3s8.2,18.3,18.3,18.3s18.3-8.2,18.3-18.3S54.6,26,44.5,26z M44.5,60.5  c-9,0-16.3-7.3-16.3-16.3S35.5,28,44.5,28s16.3,7.3,16.3,16.3S53.5,60.5,44.5,60.5z" fill="#3B97D3"/><path d="M99.3,56.5c0.5,0,0.9,0.1,1.4,0.1c0.5,0.1,0.9,0.1,1.4,0.2l-0.2,1.2l-0.4,3l2.7,1.2c1,0.4,1.9,1,2.8,1.6  l2.4,1.8l2.4-1.8l1-0.8c0.6,0.7,1.2,1.4,1.7,2.2l-1,0.8l-2.4,1.8l1.1,2.8c0.4,1,0.7,2,0.8,3.1l0.5,3l3,0.4l1.2,0.2  c0,0.5-0.1,0.9-0.1,1.4c-0.1,0.5-0.1,0.9-0.2,1.4l-1.2-0.2l-3-0.4L112,82c-0.4,1-1,1.9-1.6,2.8l-1.8,2.4l1.8,2.4l0.8,1  c-0.7,0.6-1.4,1.2-2.2,1.7l-0.8-1l-1.8-2.4l-2.8,1.1c-1,0.4-2,0.7-3.1,0.8l-3,0.5l-0.4,3l-0.2,1.2c-0.5,0-0.9-0.1-1.4-0.1  c-0.5-0.1-0.9-0.1-1.4-0.2l0.2-1.2l0.4-3l-2.7-1.2c-1-0.4-1.9-1-2.8-1.6l-2.4-1.8l-2.4,1.8l-1,0.8c-0.6-0.7-1.2-1.4-1.7-2.2l1-0.8  l2.4-1.8l-1.1-2.8c-0.4-1-0.7-2-0.8-3.1l-0.5-3l-3-0.4l-1.2-0.2c0-0.5,0.1-0.9,0.1-1.4c0.1-0.5,0.1-0.9,0.2-1.4l1.2,0.2l3,0.4  l1.2-2.7c0.4-1,1-1.9,1.6-2.8l1.8-2.4L86,62.5l-0.8-1c0.7-0.6,1.4-1.2,2.2-1.7l0.8,1l1.8,2.4l2.8-1.1c1-0.4,2-0.7,3.1-0.8l3-0.5  l0.4-3L99.3,56.5 M98.3,52.5c-0.8,0-1.7,0-2.5,0.1l-0.6,4.6c-1.3,0.2-2.6,0.6-3.9,1.1l-2.9-3.7c-3.3,1.5-6.2,3.8-8.5,6.6l2.9,3.7  c-0.8,1.1-1.4,2.2-2,3.5l-4.6-0.6c-0.6,1.7-1.1,3.4-1.3,5.2s-0.2,3.6-0.1,5.4l4.6,0.6c0.2,1.3,0.6,2.6,1.1,3.9l-3.7,2.9  c1.5,3.3,3.8,6.2,6.6,8.5l3.7-2.9c1.1,0.8,2.2,1.4,3.5,2L90.1,98c1.7,0.6,3.4,1.1,5.2,1.3c1,0.1,2,0.2,2.9,0.2c0.8,0,1.7,0,2.5-0.1  l0.6-4.6c1.3-0.2,2.6-0.6,3.9-1.1l2.9,3.7c3.3-1.5,6.2-3.8,8.5-6.6l-2.9-3.7c0.8-1.1,1.4-2.2,2-3.5l4.6,0.6c0.6-1.7,1.1-3.4,1.3-5.2  s0.2-3.6,0.1-5.4L117,73c-0.2-1.3-0.6-2.6-1.1-3.9l3.7-2.9c-1.5-3.3-3.8-6.2-6.6-8.5l-3.7,2.9c-1.1-0.8-2.2-1.4-3.5-2l0.6-4.6  c-1.7-0.6-3.4-1.1-5.2-1.3C100.2,52.6,99.2,52.5,98.3,52.5L98.3,52.5z" fill="#3B97D3"/><path d="M99.6,65.5c-5.8-0.7-11.1,3.4-11.8,9.1c-0.7,5.8,3.4,11.1,9.1,11.8c5.8,0.7,11.1-3.4,11.8-9.1  C109.5,71.5,105.4,66.3,99.6,65.5z M106.7,77.1c-0.5,4.3-4.2,7.5-8.5,7.5c-0.4,0-0.7,0-1.1-0.1c-2.3-0.3-4.3-1.4-5.7-3.2  c-1.4-1.8-2-4-1.7-6.3c0.5-4.3,4.2-7.5,8.5-7.5c0.4,0,0.7,0,1.1,0.1c2.3,0.3,4.3,1.4,5.7,3.2C106.4,72.6,107,74.8,106.7,77.1z" fill="#2C3E50"/><path d="M74.3,100.9l1.8,0.8c0.4,0.2,0.8,0.4,1.2,0.7l1.6,1.1l0.7,1.8c0.2,0.4,0.3,0.9,0.4,1.3l0.3,1.9l-0.8,1.8  c-0.2,0.4-0.4,0.8-0.7,1.2l-1.1,1.6l-1.8,0.7c-0.4,0.2-0.9,0.3-1.3,0.4l-1.9,0.3l-1.8-0.8c-0.4-0.2-0.8-0.4-1.2-0.7l-1.6-1.1  l-0.7-1.8c-0.2-0.4-0.3-0.9-0.4-1.3l-0.3-1.9l0.8-1.8c0.2-0.4,0.4-0.8,0.7-1.2l1.1-1.6l1.8-0.7c0.4-0.2,0.9-0.3,1.3-0.4L74.3,100.9   M73.4,94.6c-0.5,0-0.9,0-1.4,0.1l-0.3,2.6c-0.7,0.1-1.5,0.3-2.2,0.6L68,95.8c-1.8,0.8-3.5,2.1-4.7,3.7l1.6,2.1  c-0.4,0.6-0.8,1.3-1.1,1.9l-2.6-0.3c-0.3,0.9-0.6,1.9-0.7,2.9c-0.1,1-0.1,2,0,3l2.6,0.3c0.1,0.7,0.3,1.5,0.6,2.2l-2.1,1.6  c0.8,1.8,2.1,3.5,3.7,4.7l2.1-1.6c0.6,0.4,1.3,0.8,1.9,1.1l-0.3,2.6c0.9,0.3,1.9,0.6,2.9,0.7c0.5,0.1,1.1,0.1,1.6,0.1  c0.5,0,0.9,0,1.4-0.1l0.3-2.6c0.7-0.1,1.5-0.3,2.2-0.6l1.6,2.1c1.8-0.8,3.5-2.1,4.7-3.7l-1.6-2.1c0.4-0.6,0.8-1.3,1.1-1.9l2.6,0.3  c0.3-0.9,0.6-1.9,0.7-2.9c0.1-1,0.1-2,0-3l-2.6-0.3c-0.1-0.7-0.3-1.5-0.6-2.2l2.1-1.6c-0.8-1.8-2.1-3.5-3.7-4.7l-2.1,1.6  c-0.6-0.4-1.3-0.8-1.9-1.1l0.3-2.6c-0.9-0.3-1.9-0.6-2.9-0.7C74.5,94.7,74,94.6,73.4,94.6L73.4,94.6z" fill="#2C3E50"/></svg>