<?xml version="1.0" encoding="UTF-8"?>
<svg xmlns="http://www.w3.org/2000/svg" xmlns:xlink="http://www.w3.org/1999/xlink" width="48pt" height="48pt" viewBox="0 0 48 48" version="1.1">
<defs>
<filter id="alpha" filterUnits="objectBoundingBox" x="0%" y="0%" width="100%" height="100%">
  <feColorMatrix type="matrix" in="SourceGraphic" values="0 0 0 0 1 0 0 0 0 1 0 0 0 0 1 0 0 0 1 0"/>
</filter>
<clipPath id="clip1">
  <rect width="48" height="48"/>
</clipPath>
<g id="surface10" clip-path="url(#clip1)">
<rect x="0" y="0" width="48" height="48" style="fill:rgb(0%,0%,0%);fill-opacity:0.5;stroke:none;"/>
</g>
<mask id="mask0">
  <g filter="url(#alpha)">
<use xlink:href="#surface10"/>
  </g>
</mask>
<clipPath id="clip3">
  <rect width="48" height="48"/>
</clipPath>
<g id="surface83" clip-path="url(#clip3)">
<path style=" stroke:none;fill-rule:nonzero;fill:rgb(100%,100%,100%);fill-opacity:1;" d="M 0.800781 5.601562 L 47.199219 5.601562 L 47.199219 8 L 0.800781 8 Z M 0.800781 5.601562 "/>
</g>
<clipPath id="clip2">
  <rect width="48" height="48"/>
</clipPath>
<g id="surface8" clip-path="url(#clip2)">
<use xlink:href="#surface83"/>
</g>
<clipPath id="clip4">
  <rect width="48" height="48"/>
</clipPath>
<g id="surface17" clip-path="url(#clip4)">
<rect x="0" y="0" width="48" height="48" style="fill:rgb(0%,0%,0%);fill-opacity:0.2;stroke:none;"/>
</g>
<mask id="mask1">
  <g filter="url(#alpha)">
<use xlink:href="#surface17"/>
  </g>
</mask>
<clipPath id="clip6">
  <rect width="48" height="48"/>
</clipPath>
<g id="surface99" clip-path="url(#clip6)">
<path style=" stroke:none;fill-rule:nonzero;fill:rgb(28%,28%,28%);fill-opacity:1;" d="M 0.800781 41.601562 L 47.199219 41.601562 L 47.199219 44 L 0.800781 44 Z M 0.800781 41.601562 "/>
</g>
<clipPath id="clip5">
  <rect width="48" height="48"/>
</clipPath>
<g id="surface15" clip-path="url(#clip5)">
<use xlink:href="#surface99"/>
</g>
<clipPath id="clip7">
  <rect width="48" height="48"/>
</clipPath>
<g id="surface24" clip-path="url(#clip7)">
<rect x="0" y="0" width="48" height="48" style="fill:rgb(0%,0%,0%);fill-opacity:0.2;stroke:none;"/>
</g>
<mask id="mask2">
  <g filter="url(#alpha)">
<use xlink:href="#surface24"/>
  </g>
</mask>
<clipPath id="clip9">
  <rect width="48" height="48"/>
</clipPath>
<g id="surface115" clip-path="url(#clip9)">
<path style=" stroke:none;fill-rule:nonzero;fill:rgb(28%,28%,28%);fill-opacity:1;" d="M 30.398438 16 L 36.800781 16 C 37.6875 16 38.398438 16.714844 38.398438 17.601562 L 38.398438 22.398438 C 38.398438 23.285156 37.6875 24 36.800781 24 L 30.398438 24 C 29.511719 24 28.800781 23.285156 28.800781 22.398438 L 28.800781 17.601562 C 28.800781 16.714844 29.511719 16 30.398438 16 Z M 30.398438 16 "/>
</g>
<clipPath id="clip8">
  <rect width="48" height="48"/>
</clipPath>
<g id="surface22" clip-path="url(#clip8)">
<use xlink:href="#surface115"/>
</g>
<clipPath id="clip10">
  <rect width="48" height="48"/>
</clipPath>
<g id="surface31" clip-path="url(#clip10)">
<rect x="0" y="0" width="48" height="48" style="fill:rgb(0%,0%,0%);fill-opacity:0.2;stroke:none;"/>
</g>
<mask id="mask3">
  <g filter="url(#alpha)">
<use xlink:href="#surface31"/>
  </g>
</mask>
<clipPath id="clip12">
  <rect width="48" height="48"/>
</clipPath>
<g id="surface131" clip-path="url(#clip12)">
<path style=" stroke:none;fill-rule:nonzero;fill:rgb(28%,28%,28%);fill-opacity:1;" d="M 29.601562 19.199219 L 37.601562 19.199219 L 37.601562 21.601562 L 29.601562 21.601562 Z M 29.601562 19.199219 "/>
</g>
<clipPath id="clip11">
  <rect width="48" height="48"/>
</clipPath>
<g id="surface29" clip-path="url(#clip11)">
<use xlink:href="#surface131"/>
</g>
<clipPath id="clip13">
  <rect width="48" height="48"/>
</clipPath>
<g id="surface38" clip-path="url(#clip13)">
<rect x="0" y="0" width="48" height="48" style="fill:rgb(0%,0%,0%);fill-opacity:0.2;stroke:none;"/>
</g>
<mask id="mask4">
  <g filter="url(#alpha)">
<use xlink:href="#surface38"/>
  </g>
</mask>
<clipPath id="clip15">
  <rect width="48" height="48"/>
</clipPath>
<g id="surface147" clip-path="url(#clip15)">
<path style=" stroke:none;fill-rule:nonzero;fill:rgb(28%,28%,28%);fill-opacity:1;" d="M 42.398438 41.601562 L 23.199219 41.601562 "/>
</g>
<clipPath id="clip14">
  <rect width="48" height="48"/>
</clipPath>
<g id="surface36" clip-path="url(#clip14)">
<use xlink:href="#surface147"/>
</g>
<clipPath id="clip16">
  <rect width="48" height="48"/>
</clipPath>
<g id="surface45" clip-path="url(#clip16)">
<rect x="0" y="0" width="48" height="48" style="fill:rgb(0%,0%,0%);fill-opacity:0.2;stroke:none;"/>
</g>
<mask id="mask5">
  <g filter="url(#alpha)">
<use xlink:href="#surface45"/>
  </g>
</mask>
<clipPath id="clip18">
  <rect width="48" height="48"/>
</clipPath>
<g id="surface163" clip-path="url(#clip18)">
<path style=" stroke:none;fill-rule:nonzero;fill:rgb(28%,28%,28%);fill-opacity:1;" d="M 19.199219 27.199219 L 8 27.199219 "/>
</g>
<clipPath id="clip17">
  <rect width="48" height="48"/>
</clipPath>
<g id="surface43" clip-path="url(#clip17)">
<use xlink:href="#surface163"/>
</g>
<clipPath id="clip19">
  <rect width="48" height="48"/>
</clipPath>
<g id="surface52" clip-path="url(#clip19)">
<rect x="0" y="0" width="48" height="48" style="fill:rgb(0%,0%,0%);fill-opacity:0.2;stroke:none;"/>
</g>
<mask id="mask6">
  <g filter="url(#alpha)">
<use xlink:href="#surface52"/>
  </g>
</mask>
<clipPath id="clip21">
  <rect width="48" height="48"/>
</clipPath>
<g id="surface179" clip-path="url(#clip21)">
<path style=" stroke:none;fill-rule:nonzero;fill:rgb(28%,28%,28%);fill-opacity:1;" d="M 8 40.800781 L 9.601562 40.800781 C 10.4375 40.800781 11.199219 40.039062 11.199219 39.199219 L 11.199219 34.398438 "/>
</g>
<clipPath id="clip20">
  <rect width="48" height="48"/>
</clipPath>
<g id="surface50" clip-path="url(#clip20)">
<use xlink:href="#surface179"/>
</g>
<clipPath id="clip22">
  <rect width="48" height="48"/>
</clipPath>
<g id="surface59" clip-path="url(#clip22)">
<rect x="0" y="0" width="48" height="48" style="fill:rgb(0%,0%,0%);fill-opacity:0.5;stroke:none;"/>
</g>
<mask id="mask7">
  <g filter="url(#alpha)">
<use xlink:href="#surface59"/>
  </g>
</mask>
<clipPath id="clip24">
  <rect width="48" height="48"/>
</clipPath>
<g id="surface195" clip-path="url(#clip24)">
<path style=" stroke:none;fill-rule:nonzero;fill:rgb(100%,100%,100%);fill-opacity:1;" d="M 7.199219 30.398438 L 10.398438 30.398438 L 10.398438 32.800781 L 7.199219 32.800781 Z M 7.199219 30.398438 "/>
<path style=" stroke:none;fill-rule:nonzero;fill:rgb(100%,100%,100%);fill-opacity:1;" d="M 15.199219 30.398438 L 18.398438 30.398438 L 18.398438 32.800781 L 15.199219 32.800781 Z M 15.199219 30.398438 "/>
</g>
<clipPath id="clip23">
  <rect width="48" height="48"/>
</clipPath>
<g id="surface57" clip-path="url(#clip23)">
<use xlink:href="#surface195"/>
</g>
<clipPath id="clip25">
  <rect width="48" height="48"/>
</clipPath>
<g id="surface66" clip-path="url(#clip25)">
<rect x="0" y="0" width="48" height="48" style="fill:rgb(0%,0%,0%);fill-opacity:0.5;stroke:none;"/>
</g>
<mask id="mask8">
  <g filter="url(#alpha)">
<use xlink:href="#surface66"/>
  </g>
</mask>
<clipPath id="clip27">
  <rect width="48" height="48"/>
</clipPath>
<g id="surface211" clip-path="url(#clip27)">
<path style=" stroke:none;fill-rule:nonzero;fill:rgb(100%,100%,100%);fill-opacity:1;" d="M 7.199219 10.398438 L 20 10.398438 L 20 13.601562 L 7.199219 13.601562 Z M 7.199219 10.398438 "/>
</g>
<clipPath id="clip26">
  <rect width="48" height="48"/>
</clipPath>
<g id="surface64" clip-path="url(#clip26)">
<use xlink:href="#surface211"/>
</g>
<clipPath id="clip28">
  <rect width="48" height="48"/>
</clipPath>
<g id="surface73" clip-path="url(#clip28)">
<rect x="0" y="0" width="48" height="48" style="fill:rgb(0%,0%,0%);fill-opacity:0.2;stroke:none;"/>
</g>
<mask id="mask9">
  <g filter="url(#alpha)">
<use xlink:href="#surface73"/>
  </g>
</mask>
<clipPath id="clip30">
  <rect width="48" height="48"/>
</clipPath>
<g id="surface72" clip-path="url(#clip30)">
<path style=" stroke:none;fill-rule:nonzero;fill:rgb(28%,28%,28%);fill-opacity:1;" d="M 7.199219 22.398438 L 20 22.398438 L 20 24.800781 L 7.199219 24.800781 Z M 7.199219 22.398438 "/>
</g>
<clipPath id="clip29">
  <rect width="48" height="48"/>
</clipPath>
<g id="surface71" clip-path="url(#clip29)">
<use xlink:href="#surface72"/>
</g>
</defs>
<g id="surface1">
<path style=" stroke:none;fill-rule:nonzero;fill:rgb(77%,77%,77%);fill-opacity:1;" d="M 37.601562 3.199219 L 42.398438 3.199219 L 42.398438 5.601562 L 37.601562 5.601562 Z M 37.601562 3.199219 "/>
<path style=" stroke:none;fill-rule:nonzero;fill:rgb(77%,77%,77%);fill-opacity:1;" d="M 31.199219 3.199219 L 34.398438 3.199219 L 34.398438 5.601562 L 31.199219 5.601562 Z M 31.199219 3.199219 "/>
<path style=" stroke:none;fill-rule:nonzero;fill:rgb(77%,77%,77%);fill-opacity:1;" d="M 28 3.199219 L 31.199219 3.199219 L 31.199219 5.601562 L 28 5.601562 Z M 28 3.199219 "/>
<path style=" stroke:none;fill-rule:nonzero;fill:rgb(77%,77%,77%);fill-opacity:1;" d="M 24.800781 3.199219 L 28 3.199219 L 28 5.601562 L 24.800781 5.601562 Z M 24.800781 3.199219 "/>
<path style=" stroke:none;fill-rule:nonzero;fill:rgb(77%,77%,77%);fill-opacity:1;" d="M 21.601562 3.199219 L 24.800781 3.199219 L 24.800781 5.601562 L 21.601562 5.601562 Z M 21.601562 3.199219 "/>
<path style=" stroke:none;fill-rule:nonzero;fill:rgb(75%,75%,75%);fill-opacity:1;" d="M 0.800781 5.601562 L 47.199219 5.601562 L 47.199219 44 L 0.800781 44 Z M 0.800781 5.601562 "/>
<use xlink:href="#surface8" mask="url(#mask0)"/>
<use xlink:href="#surface15" mask="url(#mask1)"/>
<path style=" stroke:none;fill-rule:nonzero;fill:rgb(100%,100%,100%);fill-opacity:1;" d="M 3.199219 36 L 0.800781 36 C 0.382812 36 0 35.617188 0 35.199219 C 0 34.78125 0.382812 34.398438 0.800781 34.398438 L 3.199219 34.398438 C 3.617188 34.398438 4 34.78125 4 35.199219 C 4 35.617188 3.617188 36 3.199219 36 Z M 3.199219 36 "/>
<path style=" stroke:none;fill-rule:nonzero;fill:rgb(100%,100%,100%);fill-opacity:1;" d="M 3.199219 38.398438 L 0.800781 38.398438 C 0.382812 38.398438 0 38.019531 0 37.601562 C 0 37.179688 0.382812 36.800781 0.800781 36.800781 L 3.199219 36.800781 C 3.617188 36.800781 4 37.179688 4 37.601562 C 4 38.019531 3.617188 38.398438 3.199219 38.398438 Z M 3.199219 38.398438 "/>
<path style=" stroke:none;fill-rule:nonzero;fill:rgb(96%,96%,96%);fill-opacity:1;" d="M 0.800781 16 L 3.199219 16 L 3.199219 28 L 0.800781 28 Z M 0.800781 16 "/>
<path style=" stroke:none;fill-rule:nonzero;fill:rgb(96%,96%,96%);fill-opacity:1;" d="M 0.800781 28 L 3.199219 28 L 3.199219 32.800781 L 0.800781 32.800781 Z M 0.800781 28 "/>
<path style=" stroke:none;fill-rule:nonzero;fill:rgb(100%,100%,100%);fill-opacity:1;" d="M 3.199219 12 L 0.800781 12 C 0.382812 12 0 11.617188 0 11.199219 C 0 10.78125 0.382812 10.398438 0.800781 10.398438 L 3.199219 10.398438 C 3.617188 10.398438 4 10.78125 4 11.199219 C 4 11.617188 3.617188 12 3.199219 12 Z M 3.199219 12 "/>
<path style=" stroke:none;fill-rule:nonzero;fill:rgb(100%,100%,100%);fill-opacity:1;" d="M 3.199219 14.398438 L 0.800781 14.398438 C 0.382812 14.398438 0 14.019531 0 13.601562 C 0 13.179688 0.382812 12.800781 0.800781 12.800781 L 3.199219 12.800781 C 3.617188 12.800781 4 13.179688 4 13.601562 C 4 14.019531 3.617188 14.398438 3.199219 14.398438 Z M 3.199219 14.398438 "/>
<path style=" stroke:none;fill-rule:nonzero;fill:rgb(100%,100%,100%);fill-opacity:1;" d="M 3.199219 9.601562 L 0.800781 9.601562 C 0.382812 9.601562 0 9.21875 0 8.800781 C 0 8.382812 0.382812 8 0.800781 8 L 3.199219 8 C 3.617188 8 4 8.382812 4 8.800781 C 4 9.21875 3.617188 9.601562 3.199219 9.601562 Z M 3.199219 9.601562 "/>
<path style=" stroke:none;fill-rule:nonzero;fill:rgb(45%,45%,45%);fill-opacity:1;" d="M 47.199219 44.800781 L 0.800781 44.800781 "/>
<use xlink:href="#surface22" mask="url(#mask2)"/>
<path style=" stroke:none;fill-rule:nonzero;fill:rgb(45%,45%,45%);fill-opacity:1;" d="M 29.601562 16 L 28.800781 16 C 28.382812 16 28 15.617188 28 15.199219 C 28 14.78125 28.382812 14.398438 28.800781 14.398438 L 29.601562 14.398438 C 30.019531 14.398438 30.398438 14.78125 30.398438 15.199219 C 30.398438 15.617188 30.019531 16 29.601562 16 Z M 29.601562 16 "/>
<path style=" stroke:none;fill-rule:nonzero;fill:rgb(45%,45%,45%);fill-opacity:1;" d="M 29.601562 18.398438 L 28.800781 18.398438 C 28.382812 18.398438 28 18.019531 28 17.601562 C 28 17.179688 28.382812 16.800781 28.800781 16.800781 L 29.601562 16.800781 C 30.019531 16.800781 30.398438 17.179688 30.398438 17.601562 C 30.398438 18.019531 30.019531 18.398438 29.601562 18.398438 Z M 29.601562 18.398438 "/>
<path style=" stroke:none;fill-rule:nonzero;fill:rgb(45%,45%,45%);fill-opacity:1;" d="M 29.601562 20.800781 L 28.800781 20.800781 C 28.382812 20.800781 28 20.417969 28 20 C 28 19.582031 28.382812 19.199219 28.800781 19.199219 L 29.601562 19.199219 C 30.019531 19.199219 30.398438 19.582031 30.398438 20 C 30.398438 20.417969 30.019531 20.800781 29.601562 20.800781 Z M 29.601562 20.800781 "/>
<path style=" stroke:none;fill-rule:nonzero;fill:rgb(45%,45%,45%);fill-opacity:1;" d="M 38.398438 16 L 37.601562 16 C 37.179688 16 36.800781 15.617188 36.800781 15.199219 C 36.800781 14.78125 37.179688 14.398438 37.601562 14.398438 L 38.398438 14.398438 C 38.820312 14.398438 39.199219 14.78125 39.199219 15.199219 C 39.199219 15.617188 38.820312 16 38.398438 16 Z M 38.398438 16 "/>
<path style=" stroke:none;fill-rule:nonzero;fill:rgb(45%,45%,45%);fill-opacity:1;" d="M 38.398438 18.398438 L 37.601562 18.398438 C 37.179688 18.398438 36.800781 18.019531 36.800781 17.601562 C 36.800781 17.179688 37.179688 16.800781 37.601562 16.800781 L 38.398438 16.800781 C 38.820312 16.800781 39.199219 17.179688 39.199219 17.601562 C 39.199219 18.019531 38.820312 18.398438 38.398438 18.398438 Z M 38.398438 18.398438 "/>
<path style=" stroke:none;fill-rule:nonzero;fill:rgb(45%,45%,45%);fill-opacity:1;" d="M 38.398438 20.800781 L 37.601562 20.800781 C 37.179688 20.800781 36.800781 20.417969 36.800781 20 C 36.800781 19.582031 37.179688 19.199219 37.601562 19.199219 L 38.398438 19.199219 C 38.820312 19.199219 39.199219 19.582031 39.199219 20 C 39.199219 20.417969 38.820312 20.800781 38.398438 20.800781 Z M 38.398438 20.800781 "/>
<path style=" stroke:none;fill-rule:nonzero;fill:rgb(85%,85%,85%);fill-opacity:1;" d="M 23.199219 29.601562 L 42.398438 29.601562 L 42.398438 32.800781 L 23.199219 32.800781 Z M 23.199219 29.601562 "/>
<path style=" stroke:none;fill-rule:nonzero;fill:rgb(96%,96%,96%);fill-opacity:1;" d="M 29.601562 13.601562 L 37.601562 13.601562 L 37.601562 21.601562 L 29.601562 21.601562 Z M 29.601562 13.601562 "/>
<path style=" stroke:none;fill-rule:nonzero;fill:rgb(100%,100%,100%);fill-opacity:1;" d="M 29.601562 13.601562 L 37.601562 13.601562 L 37.601562 16 L 29.601562 16 Z M 29.601562 13.601562 "/>
<use xlink:href="#surface29" mask="url(#mask3)"/>
<path style=" stroke:none;fill-rule:nonzero;fill:rgb(85%,85%,85%);fill-opacity:1;" d="M 23.199219 32.800781 L 42.398438 32.800781 L 42.398438 36 L 23.199219 36 Z M 23.199219 32.800781 "/>
<path style=" stroke:none;fill-rule:nonzero;fill:rgb(85%,85%,85%);fill-opacity:1;" d="M 23.199219 36 L 42.398438 36 L 42.398438 39.199219 L 23.199219 39.199219 Z M 23.199219 36 "/>
<use xlink:href="#surface36" mask="url(#mask4)"/>
<use xlink:href="#surface43" mask="url(#mask5)"/>
<path style=" stroke:none;fill-rule:nonzero;fill:rgb(45%,45%,45%);fill-opacity:1;" d="M 23.199219 32 L 21.601562 32 C 21.179688 32 20.800781 31.617188 20.800781 31.199219 C 20.800781 30.78125 21.179688 30.398438 21.601562 30.398438 L 23.199219 30.398438 C 23.617188 30.398438 24 30.78125 24 31.199219 C 24 31.617188 23.617188 32 23.199219 32 Z M 23.199219 32 "/>
<path style=" stroke:none;fill-rule:nonzero;fill:rgb(45%,45%,45%);fill-opacity:1;" d="M 23.199219 35.199219 L 21.601562 35.199219 C 21.179688 35.199219 20.800781 34.820312 20.800781 34.398438 C 20.800781 33.980469 21.179688 33.601562 21.601562 33.601562 L 23.199219 33.601562 C 23.617188 33.601562 24 33.980469 24 34.398438 C 24 34.820312 23.617188 35.199219 23.199219 35.199219 Z M 23.199219 35.199219 "/>
<path style=" stroke:none;fill-rule:nonzero;fill:rgb(45%,45%,45%);fill-opacity:1;" d="M 23.199219 38.398438 L 21.601562 38.398438 C 21.179688 38.398438 20.800781 38.019531 20.800781 37.601562 C 20.800781 37.179688 21.179688 36.800781 21.601562 36.800781 L 23.199219 36.800781 C 23.617188 36.800781 24 37.179688 24 37.601562 C 24 38.019531 23.617188 38.398438 23.199219 38.398438 Z M 23.199219 38.398438 "/>
<path style=" stroke:none;fill-rule:nonzero;fill:rgb(45%,45%,45%);fill-opacity:1;" d="M 44 32 L 42.398438 32 C 41.980469 32 41.601562 31.617188 41.601562 31.199219 C 41.601562 30.78125 41.980469 30.398438 42.398438 30.398438 L 44 30.398438 C 44.417969 30.398438 44.800781 30.78125 44.800781 31.199219 C 44.800781 31.617188 44.417969 32 44 32 Z M 44 32 "/>
<path style=" stroke:none;fill-rule:nonzero;fill:rgb(45%,45%,45%);fill-opacity:1;" d="M 44 35.199219 L 42.398438 35.199219 C 41.980469 35.199219 41.601562 34.820312 41.601562 34.398438 C 41.601562 33.980469 41.980469 33.601562 42.398438 33.601562 L 44 33.601562 C 44.417969 33.601562 44.800781 33.980469 44.800781 34.398438 C 44.800781 34.820312 44.417969 35.199219 44 35.199219 Z M 44 35.199219 "/>
<path style=" stroke:none;fill-rule:nonzero;fill:rgb(45%,45%,45%);fill-opacity:1;" d="M 44 38.398438 L 42.398438 38.398438 C 41.980469 38.398438 41.601562 38.019531 41.601562 37.601562 C 41.601562 37.179688 41.980469 36.800781 42.398438 36.800781 L 44 36.800781 C 44.417969 36.800781 44.800781 37.179688 44.800781 37.601562 C 44.800781 38.019531 44.417969 38.398438 44 38.398438 Z M 44 38.398438 "/>
<path style=" stroke:none;fill-rule:nonzero;fill:rgb(85%,85%,85%);fill-opacity:1;" d="M 7.199219 10.398438 L 10.398438 10.398438 L 10.398438 24.800781 L 7.199219 24.800781 Z M 7.199219 10.398438 "/>
<use xlink:href="#surface50" mask="url(#mask6)"/>
<path style=" stroke:none;fill-rule:nonzero;fill:rgb(45%,45%,45%);fill-opacity:1;" d="M 7.199219 32.800781 L 6.398438 32.800781 C 5.980469 32.800781 5.601562 32.417969 5.601562 32 C 5.601562 31.582031 5.980469 31.199219 6.398438 31.199219 L 7.199219 31.199219 C 7.617188 31.199219 8 31.582031 8 32 C 8 32.417969 7.617188 32.800781 7.199219 32.800781 Z M 7.199219 32.800781 "/>
<path style=" stroke:none;fill-rule:nonzero;fill:rgb(45%,45%,45%);fill-opacity:1;" d="M 7.199219 35.199219 L 6.398438 35.199219 C 5.980469 35.199219 5.601562 34.820312 5.601562 34.398438 C 5.601562 33.980469 5.980469 33.601562 6.398438 33.601562 L 7.199219 33.601562 C 7.617188 33.601562 8 33.980469 8 34.398438 C 8 34.820312 7.617188 35.199219 7.199219 35.199219 Z M 7.199219 35.199219 "/>
<path style=" stroke:none;fill-rule:nonzero;fill:rgb(45%,45%,45%);fill-opacity:1;" d="M 7.199219 37.601562 L 6.398438 37.601562 C 5.980469 37.601562 5.601562 37.21875 5.601562 36.800781 C 5.601562 36.382812 5.980469 36 6.398438 36 L 7.199219 36 C 7.617188 36 8 36.382812 8 36.800781 C 8 37.21875 7.617188 37.601562 7.199219 37.601562 Z M 7.199219 37.601562 "/>
<path style=" stroke:none;fill-rule:nonzero;fill:rgb(45%,45%,45%);fill-opacity:1;" d="M 19.199219 32.800781 L 18.398438 32.800781 C 17.980469 32.800781 17.601562 32.417969 17.601562 32 C 17.601562 31.582031 17.980469 31.199219 18.398438 31.199219 L 19.199219 31.199219 C 19.617188 31.199219 20 31.582031 20 32 C 20 32.417969 19.617188 32.800781 19.199219 32.800781 Z M 19.199219 32.800781 "/>
<path style=" stroke:none;fill-rule:nonzero;fill:rgb(45%,45%,45%);fill-opacity:1;" d="M 19.199219 35.199219 L 18.398438 35.199219 C 17.980469 35.199219 17.601562 34.820312 17.601562 34.398438 C 17.601562 33.980469 17.980469 33.601562 18.398438 33.601562 L 19.199219 33.601562 C 19.617188 33.601562 20 33.980469 20 34.398438 C 20 34.820312 19.617188 35.199219 19.199219 35.199219 Z M 19.199219 35.199219 "/>
<path style=" stroke:none;fill-rule:nonzero;fill:rgb(45%,45%,45%);fill-opacity:1;" d="M 19.199219 37.601562 L 18.398438 37.601562 C 17.980469 37.601562 17.601562 37.21875 17.601562 36.800781 C 17.601562 36.382812 17.980469 36 18.398438 36 L 19.199219 36 C 19.617188 36 20 36.382812 20 36.800781 C 20 37.21875 19.617188 37.601562 19.199219 37.601562 Z M 19.199219 37.601562 "/>
<path style=" stroke:none;fill-rule:nonzero;fill:rgb(45%,45%,45%);fill-opacity:1;" d="M 15.199219 32.800781 L 14.398438 32.800781 C 13.980469 32.800781 13.601562 32.417969 13.601562 32 C 13.601562 31.582031 13.980469 31.199219 14.398438 31.199219 L 15.199219 31.199219 C 15.617188 31.199219 16 31.582031 16 32 C 16 32.417969 15.617188 32.800781 15.199219 32.800781 Z M 15.199219 32.800781 "/>
<path style=" stroke:none;fill-rule:nonzero;fill:rgb(45%,45%,45%);fill-opacity:1;" d="M 15.199219 35.199219 L 14.398438 35.199219 C 13.980469 35.199219 13.601562 34.820312 13.601562 34.398438 C 13.601562 33.980469 13.980469 33.601562 14.398438 33.601562 L 15.199219 33.601562 C 15.617188 33.601562 16 33.980469 16 34.398438 C 16 34.820312 15.617188 35.199219 15.199219 35.199219 Z M 15.199219 35.199219 "/>
<path style=" stroke:none;fill-rule:nonzero;fill:rgb(45%,45%,45%);fill-opacity:1;" d="M 15.199219 37.601562 L 14.398438 37.601562 C 13.980469 37.601562 13.601562 37.21875 13.601562 36.800781 C 13.601562 36.382812 13.980469 36 14.398438 36 L 15.199219 36 C 15.617188 36 16 36.382812 16 36.800781 C 16 37.21875 15.617188 37.601562 15.199219 37.601562 Z M 15.199219 37.601562 "/>
<path style=" stroke:none;fill-rule:nonzero;fill:rgb(45%,45%,45%);fill-opacity:1;" d="M 11.199219 32.800781 L 10.398438 32.800781 C 9.980469 32.800781 9.601562 32.417969 9.601562 32 C 9.601562 31.582031 9.980469 31.199219 10.398438 31.199219 L 11.199219 31.199219 C 11.617188 31.199219 12 31.582031 12 32 C 12 32.417969 11.617188 32.800781 11.199219 32.800781 Z M 11.199219 32.800781 "/>
<path style=" stroke:none;fill-rule:nonzero;fill:rgb(45%,45%,45%);fill-opacity:1;" d="M 11.199219 35.199219 L 10.398438 35.199219 C 9.980469 35.199219 9.601562 34.820312 9.601562 34.398438 C 9.601562 33.980469 9.980469 33.601562 10.398438 33.601562 L 11.199219 33.601562 C 11.617188 33.601562 12 33.980469 12 34.398438 C 12 34.820312 11.617188 35.199219 11.199219 35.199219 Z M 11.199219 35.199219 "/>
<path style=" stroke:none;fill-rule:nonzero;fill:rgb(45%,45%,45%);fill-opacity:1;" d="M 11.199219 37.601562 L 10.398438 37.601562 C 9.980469 37.601562 9.601562 37.21875 9.601562 36.800781 C 9.601562 36.382812 9.980469 36 10.398438 36 L 11.199219 36 C 11.617188 36 12 36.382812 12 36.800781 C 12 37.21875 11.617188 37.601562 11.199219 37.601562 Z M 11.199219 37.601562 "/>
<path style=" stroke:none;fill-rule:nonzero;fill:rgb(85%,85%,85%);fill-opacity:1;" d="M 7.199219 38.398438 L 10.398438 38.398438 L 10.398438 30.398438 L 7.199219 30.398438 Z M 15.199219 30.398438 L 15.199219 38.398438 L 18.398438 38.398438 L 18.398438 30.398438 Z M 15.199219 30.398438 "/>
<use xlink:href="#surface57" mask="url(#mask7)"/>
<path style=" stroke:none;fill-rule:nonzero;fill:rgb(85%,85%,85%);fill-opacity:1;" d="M 10.398438 10.398438 L 13.601562 10.398438 L 13.601562 24.800781 L 10.398438 24.800781 Z M 10.398438 10.398438 "/>
<path style=" stroke:none;fill-rule:nonzero;fill:rgb(85%,85%,85%);fill-opacity:1;" d="M 13.601562 10.398438 L 16.800781 10.398438 L 16.800781 24.800781 L 13.601562 24.800781 Z M 13.601562 10.398438 "/>
<path style=" stroke:none;fill-rule:nonzero;fill:rgb(45%,45%,45%);fill-opacity:1;" d="M 44 27.199219 L 42.398438 27.199219 C 41.980469 27.199219 41.601562 26.820312 41.601562 26.398438 C 41.601562 25.980469 41.980469 25.601562 42.398438 25.601562 L 43.199219 25.601562 L 43.199219 24.800781 C 43.199219 24.382812 43.582031 24 44 24 C 44.417969 24 44.800781 24.382812 44.800781 24.800781 L 44.800781 26.398438 C 44.800781 26.820312 44.417969 27.199219 44 27.199219 Z M 44 27.199219 "/>
<path style=" stroke:none;fill-rule:nonzero;fill:rgb(45%,45%,45%);fill-opacity:1;" d="M 24.800781 27.199219 L 23.199219 27.199219 "/>
<path style=" stroke:none;fill-rule:nonzero;fill:rgb(85%,85%,85%);fill-opacity:1;" d="M 16.800781 10.398438 L 20 10.398438 L 20 24.800781 L 16.800781 24.800781 Z M 16.800781 10.398438 "/>
<use xlink:href="#surface64" mask="url(#mask8)"/>
<use xlink:href="#surface71" mask="url(#mask9)"/>
<path style=" stroke:none;fill-rule:nonzero;fill:rgb(45%,45%,45%);fill-opacity:1;" d="M 42.398438 6.398438 L 37.601562 6.398438 "/>
<path style=" stroke:none;fill-rule:nonzero;fill:rgb(45%,45%,45%);fill-opacity:1;" d="M 34.398438 6.398438 L 31.199219 6.398438 "/>
<path style=" stroke:none;fill-rule:nonzero;fill:rgb(45%,45%,45%);fill-opacity:1;" d="M 31.199219 6.398438 L 28 6.398438 "/>
<path style=" stroke:none;fill-rule:nonzero;fill:rgb(45%,45%,45%);fill-opacity:1;" d="M 28 6.398438 L 24.800781 6.398438 "/>
<path style=" stroke:none;fill-rule:nonzero;fill:rgb(45%,45%,45%);fill-opacity:1;" d="M 24.800781 6.398438 L 21.601562 6.398438 "/>
<path style=" stroke:none;fill-rule:nonzero;fill:rgb(45%,45%,45%);fill-opacity:1;" d="M 3.199219 28.800781 L 0.800781 28.800781 "/>
<path style=" stroke:none;fill-rule:nonzero;fill:rgb(45%,45%,45%);fill-opacity:1;" d="M 3.199219 33.601562 L 0.800781 33.601562 "/>
<path style=" stroke:none;fill-rule:nonzero;fill:rgb(45%,45%,45%);fill-opacity:1;" d="M 39.199219 25.601562 L 28 25.601562 "/>
<path style=" stroke:none;fill-rule:nonzero;fill:rgb(45%,45%,45%);fill-opacity:1;" d="M 42.398438 33.601562 L 23.199219 33.601562 "/>
<path style=" stroke:none;fill-rule:nonzero;fill:rgb(45%,45%,45%);fill-opacity:1;" d="M 37.601562 22.398438 L 29.601562 22.398438 "/>
<path style=" stroke:none;fill-rule:nonzero;fill:rgb(45%,45%,45%);fill-opacity:1;" d="M 42.398438 36.800781 L 23.199219 36.800781 "/>
<path style=" stroke:none;fill-rule:nonzero;fill:rgb(45%,45%,45%);fill-opacity:1;" d="M 10.398438 25.601562 L 7.199219 25.601562 "/>
<path style=" stroke:none;fill-rule:nonzero;fill:rgb(45%,45%,45%);fill-opacity:1;" d="M 10.398438 39.199219 L 7.199219 39.199219 "/>
<path style=" stroke:none;fill-rule:nonzero;fill:rgb(45%,45%,45%);fill-opacity:1;" d="M 18.398438 39.199219 L 15.199219 39.199219 "/>
<path style=" stroke:none;fill-rule:nonzero;fill:rgb(45%,45%,45%);fill-opacity:1;" d="M 13.601562 25.601562 L 10.398438 25.601562 "/>
<path style=" stroke:none;fill-rule:nonzero;fill:rgb(45%,45%,45%);fill-opacity:1;" d="M 16.800781 25.601562 L 13.601562 25.601562 "/>
<path style=" stroke:none;fill-rule:nonzero;fill:rgb(45%,45%,45%);fill-opacity:1;" d="M 20 25.601562 L 16.800781 25.601562 "/>
<path style=" stroke:none;fill-rule:nonzero;fill:rgb(45%,45%,45%);fill-opacity:1;" d="M 10.398438 14.398438 L 7.199219 14.398438 C 6.78125 14.398438 6.398438 14.019531 6.398438 13.601562 C 6.398438 13.179688 6.78125 12.800781 7.199219 12.800781 L 10.398438 12.800781 C 10.820312 12.800781 11.199219 13.179688 11.199219 13.601562 C 11.199219 14.019531 10.820312 14.398438 10.398438 14.398438 Z M 10.398438 14.398438 "/>
<path style=" stroke:none;fill-rule:nonzero;fill:rgb(45%,45%,45%);fill-opacity:1;" d="M 13.601562 14.398438 L 10.398438 14.398438 C 9.980469 14.398438 9.601562 14.019531 9.601562 13.601562 C 9.601562 13.179688 9.980469 12.800781 10.398438 12.800781 L 13.601562 12.800781 C 14.019531 12.800781 14.398438 13.179688 14.398438 13.601562 C 14.398438 14.019531 14.019531 14.398438 13.601562 14.398438 Z M 13.601562 14.398438 "/>
<path style=" stroke:none;fill-rule:nonzero;fill:rgb(45%,45%,45%);fill-opacity:1;" d="M 16.800781 14.398438 L 13.601562 14.398438 C 13.179688 14.398438 12.800781 14.019531 12.800781 13.601562 C 12.800781 13.179688 13.179688 12.800781 13.601562 12.800781 L 16.800781 12.800781 C 17.21875 12.800781 17.601562 13.179688 17.601562 13.601562 C 17.601562 14.019531 17.21875 14.398438 16.800781 14.398438 Z M 16.800781 14.398438 "/>
<path style=" stroke:none;fill-rule:nonzero;fill:rgb(45%,45%,45%);fill-opacity:1;" d="M 20 14.398438 L 16.800781 14.398438 C 16.382812 14.398438 16 14.019531 16 13.601562 C 16 13.179688 16.382812 12.800781 16.800781 12.800781 L 20 12.800781 C 20.417969 12.800781 20.800781 13.179688 20.800781 13.601562 C 20.800781 14.019531 20.417969 14.398438 20 14.398438 Z M 20 14.398438 "/>
</g>
</svg>
