<?xml version="1.0" ?><svg data-name="Devices 3" height="60" id="Devices_3" viewBox="0 0 60 60" width="60" xmlns="http://www.w3.org/2000/svg"><title/><rect height="3" style="fill:#abcfd3" width="6" x="47" y="3.99974"/><rect height="3" style="fill:#abcfd3" width="4" x="39" y="3.99974"/><rect height="3" style="fill:#abcfd3" width="4" x="35" y="3.99974"/><rect height="3" style="fill:#abcfd3" width="4" x="31" y="3.99974"/><rect height="3" style="fill:#abcfd3" width="4" x="27" y="3.99974"/><path d="M23,8a.99974.99974,0,0,1-1-1V5a1,1,0,0,1,2,0V7A.99974.99974,0,0,1,23,8Z" style="fill:#6d6daa"/><path d="M57,8a.99974.99974,0,0,1-1-1V5a1,1,0,0,1,2,0V7A.99974.99974,0,0,1,57,8Z" style="fill:#6d6daa"/><rect height="48" style="fill:#89dbba" width="58" x="1" y="6.99974"/><rect height="3.00002" style="fill:#fff;opacity:0.5" width="58" x="0.99974" y="6.9996"/><rect height="3.00002" style="fill:#2c4b75;opacity:0.2" width="58" x="0.99974" y="51.99998"/><path d="M4,45H1a1,1,0,0,1,0-2H4a1,1,0,0,1,0,2Z" style="fill:#fff"/><path d="M4,48H1a1,1,0,0,1,0-2H4a1,1,0,0,1,0,2Z" style="fill:#fff"/><rect height="15" style="fill:#eef6ff" width="3" x="1" y="19.99974"/><rect height="6" style="fill:#eef6ff" width="3" x="1" y="34.99974"/><path d="M56,53a.99183.99183,0,0,1-.71-.29,1.16226,1.16226,0,0,1-.21045-.33008.94639.94639,0,0,1,0-.75977A1.14886,1.14886,0,0,1,55.29,51.29a1.00955,1.00955,0,0,1,.90967-.27051.65357.65357,0,0,1,.18018.06055.73882.73882,0,0,1,.18018.08984A1.6816,1.6816,0,0,1,56.71,51.29a1.03729,1.03729,0,0,1,.21.33008.9411.9411,0,0,1,0,.75977,1.17134,1.17134,0,0,1-.21.33008,1.15386,1.15386,0,0,1-.33008.21A.99953.99953,0,0,1,56,53Z" style="fill:#6d6daa"/><path d="M52,53a.99183.99183,0,0,1-.71-.29,1.16226,1.16226,0,0,1-.21045-.33008.94639.94639,0,0,1,0-.75977A1.03019,1.03019,0,0,1,51.29,51.29a.98545.98545,0,0,1,1.62988.33008A.99953.99953,0,0,1,53,52a.838.838,0,0,1-.08008.37988,1.17134,1.17134,0,0,1-.21.33008,1.15386,1.15386,0,0,1-.33008.21A.99953.99953,0,0,1,52,53Z" style="fill:#6d6daa"/><path d="M54,55a1,1,0,0,1-.38037-.08008.90422.90422,0,0,1-.54-.54A.844.844,0,0,1,53,54a.999.999,0,0,1,.07959-.37988.90422.90422,0,0,1,.54-.54.99542.99542,0,0,1,.76025,0,1.15386,1.15386,0,0,1,.33008.21,1.03729,1.03729,0,0,1,.21.33008A.9892.9892,0,0,1,54.71,54.71,1.03393,1.03393,0,0,1,54,55Z" style="fill:#6d6daa"/><path d="M48,53a1,1,0,0,1-.38037-.08008.90422.90422,0,0,1-.54-.54A.844.844,0,0,1,47,52a.999.999,0,0,1,.07959-.37988A1.03019,1.03019,0,0,1,47.29,51.29a.95523.95523,0,0,1,.15967-.12012.55236.55236,0,0,1,.16992-.08984.65357.65357,0,0,1,.18018-.06055.95557.95557,0,0,1,.58008.06055.90089.90089,0,0,1,.54.54.9411.9411,0,0,1,0,.75977,1.17134,1.17134,0,0,1-.21.33008A.99183.99183,0,0,1,48,53Z" style="fill:#6d6daa"/><path d="M50,55a1,1,0,0,1-.38037-.08008.90422.90422,0,0,1-.54-.54.94639.94639,0,0,1,0-.75977.90422.90422,0,0,1,.54-.54.9986.9986,0,0,1,1.09033.21,1.03729,1.03729,0,0,1,.21.33008A.838.838,0,0,1,51,54a.99146.99146,0,0,1-.29.71A1.03393,1.03393,0,0,1,50,55Z" style="fill:#6d6daa"/><path d="M42,55a1.03393,1.03393,0,0,1-.71-.29.99109.99109,0,0,1-.21045-1.08984A1.03019,1.03019,0,0,1,41.29,53.29a.98545.98545,0,0,1,1.62988.33008.9411.9411,0,0,1,0,.75977,1.17134,1.17134,0,0,1-.21.33008,1.15386,1.15386,0,0,1-.33008.21A.99953.99953,0,0,1,42,55Z" style="fill:#6d6daa"/><path d="M44,53a1,1,0,0,1-.38037-.08008.90422.90422,0,0,1-.54-.54.94639.94639,0,0,1,0-.75977A1.03019,1.03019,0,0,1,43.29,51.29a1.04667,1.04667,0,0,1,1.41992,0,1.15773,1.15773,0,0,1,.21.33008A.838.838,0,0,1,45,52a.98074.98074,0,0,1-.07031.37988A1.19516,1.19516,0,0,1,44.71,52.71a1.15386,1.15386,0,0,1-.33008.21A.99953.99953,0,0,1,44,53Z" style="fill:#6d6daa"/><path d="M46,55a1,1,0,0,1-.38037-.08008.90422.90422,0,0,1-.54-.54.94639.94639,0,0,1,0-.75977A1.03019,1.03019,0,0,1,45.29,53.29a1.04667,1.04667,0,0,1,1.41992,0,1.15773,1.15773,0,0,1,.21.33008.9411.9411,0,0,1,0,.75977,1.17134,1.17134,0,0,1-.21.33008,1.15386,1.15386,0,0,1-.33008.21A.99953.99953,0,0,1,46,55Z" style="fill:#6d6daa"/><path d="M5,56a.99974.99974,0,0,1-1-1V52a1,1,0,0,1,2,0v3A.99974.99974,0,0,1,5,56Z" style="fill:#fff"/><path d="M8,56a.99974.99974,0,0,1-1-1V52a1,1,0,0,1,2,0v3A.99974.99974,0,0,1,8,56Z" style="fill:#fff"/><path d="M11,56a.99974.99974,0,0,1-1-1V52a1,1,0,0,1,2,0v3A.99974.99974,0,0,1,11,56Z" style="fill:#fff"/><path d="M14,56a.99974.99974,0,0,1-1-1V52a1,1,0,0,1,2,0v3A.99974.99974,0,0,1,14,56Z" style="fill:#fff"/><path d="M17,56a.99974.99974,0,0,1-1-1V52a1,1,0,0,1,2,0v3A.99974.99974,0,0,1,17,56Z" style="fill:#fff"/><path d="M20,56a.99974.99974,0,0,1-1-1V52a1,1,0,0,1,2,0v3A.99974.99974,0,0,1,20,56Z" style="fill:#fff"/><path d="M23,56a.99974.99974,0,0,1-1-1V52a1,1,0,0,1,2,0v3A.99974.99974,0,0,1,23,56Z" style="fill:#fff"/><path d="M26,56a.99974.99974,0,0,1-1-1V52a1,1,0,0,1,2,0v3A.99974.99974,0,0,1,26,56Z" style="fill:#fff"/><path d="M4,15H1a1,1,0,0,1,0-2H4a1,1,0,0,1,0,2Z" style="fill:#fff"/><path d="M4,18H1a1,1,0,0,1,0-2H4a1,1,0,0,1,0,2Z" style="fill:#fff"/><path d="M4,12H1a1,1,0,0,1,0-2H4a1,1,0,0,1,0,2Z" style="fill:#fff"/><path d="M59,56H1a.99974.99974,0,0,1-1-1V7A.99974.99974,0,0,1,1,6H59a.99974.99974,0,0,1,1,1V55A.99974.99974,0,0,1,59,56ZM2,54H58V8H2Z" style="fill:#6d6daa"/><path d="M51,18V15a2,2,0,0,0-2-2H35a2,2,0,0,0-2,2v3l-1,1v6l1,1v3a2,2,0,0,0,2,2H49a2,2,0,0,0,2-2V26l1-1V19Z" style="fill:#939fc6"/><rect height="10" rx="2" ry="2" style="fill:#2c4b75;opacity:0.2" width="12" x="36" y="20"/><path d="M37,20H36a1,1,0,0,1,0-2h1a1,1,0,0,1,0,2Z" style="fill:#6d6daa"/><path d="M37,23H36a1,1,0,0,1,0-2h1a1,1,0,0,1,0,2Z" style="fill:#6d6daa"/><path d="M37,26H36a1,1,0,0,1,0-2h1a1,1,0,0,1,0,2Z" style="fill:#6d6daa"/><path d="M48,20H47a1,1,0,0,1,0-2h1a1,1,0,0,1,0,2Z" style="fill:#6d6daa"/><path d="M48,23H47a1,1,0,0,1,0-2h1a1,1,0,0,1,0,2Z" style="fill:#6d6daa"/><path d="M48,26H47a1,1,0,0,1,0-2h1a1,1,0,0,1,0,2Z" style="fill:#6d6daa"/><path d="M45,18a.99974.99974,0,0,1-1-1V16a1,1,0,0,1,2,0v1A.99974.99974,0,0,1,45,18Z" style="fill:#6d6daa"/><path d="M42,18a.99974.99974,0,0,1-1-1V16a1,1,0,0,1,2,0v1A.99974.99974,0,0,1,42,18Z" style="fill:#6d6daa"/><path d="M39,18a.99974.99974,0,0,1-1-1V16a1,1,0,0,1,2,0v1A.99974.99974,0,0,1,39,18Z" style="fill:#6d6daa"/><path d="M45,29a.99974.99974,0,0,1-1-1V27a1,1,0,0,1,2,0v1A.99974.99974,0,0,1,45,29Z" style="fill:#6d6daa"/><path d="M42,29a.99974.99974,0,0,1-1-1V27a1,1,0,0,1,2,0v1A.99974.99974,0,0,1,42,29Z" style="fill:#6d6daa"/><path d="M39,29a.99974.99974,0,0,1-1-1V27a1,1,0,0,1,2,0v1A.99974.99974,0,0,1,39,29Z" style="fill:#6d6daa"/><rect height="4" style="fill:#ced8ee" width="24" x="29" y="36.99974"/><rect height="10" style="fill:#eef6ff" width="10" x="37" y="16.99974"/><rect height="3.00026" style="fill:#fff" width="10" x="37" y="16.99974"/><rect height="3.00026" style="fill:#2c4b75;opacity:0.2" width="10" x="37" y="23.99974"/><rect height="4" style="fill:#ced8ee" width="24" x="29" y="40.99974"/><rect height="4" style="fill:#ced8ee" width="24" x="29" y="44.99974"/><path d="M53,52H29a1,1,0,0,1-1-1V48H54v3A1,1,0,0,1,53,52Z" style="fill:#2c4b75;opacity:0.2"/><path d="M24,34H10a2,2,0,0,1-2-2V30H26v2A2,2,0,0,1,24,34Z" style="fill:#2c4b75;opacity:0.2"/><path d="M29,40H27a1,1,0,0,1,0-2h2a1,1,0,0,1,0,2Z" style="fill:#6d6daa"/><path d="M29,44H27a1,1,0,0,1,0-2h2a1,1,0,0,1,0,2Z" style="fill:#6d6daa"/><path d="M29,48H27a1,1,0,0,1,0-2h2a1,1,0,0,1,0,2Z" style="fill:#6d6daa"/><path d="M55,40H53a1,1,0,0,1,0-2h2a1,1,0,0,1,0,2Z" style="fill:#6d6daa"/><path d="M55,44H53a1,1,0,0,1,0-2h2a1,1,0,0,1,0,2Z" style="fill:#6d6daa"/><path d="M55,48H53a1,1,0,0,1,0-2h2a1,1,0,0,1,0,2Z" style="fill:#6d6daa"/><path d="M44,42a.99974.99974,0,0,1-1-1V37a1,1,0,0,1,2,0v4A.99974.99974,0,0,1,44,42Z" style="fill:#6d6daa"/><path d="M44,46a.99974.99974,0,0,1-1-1V41a1,1,0,0,1,2,0v4A.99974.99974,0,0,1,44,46Z" style="fill:#6d6daa"/><path d="M44,50a.99974.99974,0,0,1-1-1V45a1,1,0,0,1,2,0v4A.99974.99974,0,0,1,44,50Z" style="fill:#6d6daa"/><rect height="18" style="fill:#ced8ee" width="4" x="9" y="12.99974"/><path d="M10,51h2a2,2,0,0,0,2-2V43a2,2,0,0,0-2-2H10a2,2,0,0,0-2,2v6A2,2,0,0,0,10,51Zm8-8v6a2,2,0,0,0,2,2h2a2,2,0,0,0,2-2V43a2,2,0,0,0-2-2H20A2,2,0,0,0,18,43Z" style="fill:#2c4b75;opacity:0.2"/><path d="M9,41H8a1,1,0,0,1,0-2H9a1,1,0,0,1,0,2Z" style="fill:#6d6daa"/><path d="M9,44H8a1,1,0,0,1,0-2H9a1,1,0,0,1,0,2Z" style="fill:#6d6daa"/><path d="M9,47H8a1,1,0,0,1,0-2H9a1,1,0,0,1,0,2Z" style="fill:#6d6daa"/><path d="M24,41H23a1,1,0,0,1,0-2h1a1,1,0,0,1,0,2Z" style="fill:#6d6daa"/><path d="M24,44H23a1,1,0,0,1,0-2h1a1,1,0,0,1,0,2Z" style="fill:#6d6daa"/><path d="M24,47H23a1,1,0,0,1,0-2h1a1,1,0,0,1,0,2Z" style="fill:#6d6daa"/><path d="M19,41H18a1,1,0,0,1,0-2h1a1,1,0,0,1,0,2Z" style="fill:#6d6daa"/><path d="M19,44H18a1,1,0,0,1,0-2h1a1,1,0,0,1,0,2Z" style="fill:#6d6daa"/><path d="M19,47H18a1,1,0,0,1,0-2h1a1,1,0,0,1,0,2Z" style="fill:#6d6daa"/><path d="M14,41H13a1,1,0,0,1,0-2h1a1,1,0,0,1,0,2Z" style="fill:#6d6daa"/><path d="M14,44H13a1,1,0,0,1,0-2h1a1,1,0,0,1,0,2Z" style="fill:#6d6daa"/><path d="M14,47H13a1,1,0,0,1,0-2h1a1,1,0,0,1,0,2Z" style="fill:#6d6daa"/><path d="M9,47.99969h4v-10H9Zm10-10v10h4v-10Z" style="fill:#ced8ee"/><g style="opacity:0.5"><rect height="3.00031" style="fill:#fff" width="4" x="9" y="37.99969"/><rect height="3.00031" style="fill:#fff" width="4" x="19" y="37.99969"/></g><path d="M11,34a.99974.99974,0,0,1-1-1V31a1,1,0,0,1,2,0v2A.99974.99974,0,0,1,11,34Z" style="fill:#6d6daa"/><path d="M15,34a.99974.99974,0,0,1-1-1V31a1,1,0,0,1,2,0v2A.99974.99974,0,0,1,15,34Z" style="fill:#6d6daa"/><path d="M19,34a.99974.99974,0,0,1-1-1V31a1,1,0,0,1,2,0v2A.99974.99974,0,0,1,19,34Z" style="fill:#6d6daa"/><path d="M11,14a.99974.99974,0,0,1-1-1V11a1,1,0,0,1,2,0v2A.99974.99974,0,0,1,11,14Z" style="fill:#6d6daa"/><path d="M15,14a.99974.99974,0,0,1-1-1V11a1,1,0,0,1,2,0v2A.99974.99974,0,0,1,15,14Z" style="fill:#6d6daa"/><path d="M19,14a.99974.99974,0,0,1-1-1V11a1,1,0,0,1,2,0v2A.99974.99974,0,0,1,19,14Z" style="fill:#6d6daa"/><rect height="18" style="fill:#ced8ee" width="4" x="13" y="12.99974"/><rect height="18" style="fill:#ced8ee" width="4" x="17" y="12.99974"/><path d="M23,34a.99974.99974,0,0,1-1-1V31a1,1,0,0,1,2,0v2A.99974.99974,0,0,1,23,34Z" style="fill:#6d6daa"/><path d="M23,14a.99974.99974,0,0,1-1-1V11a1,1,0,0,1,2,0v2A.99974.99974,0,0,1,23,14Z" style="fill:#6d6daa"/><path d="M29,14a.99974.99974,0,0,1-1-1V11a.99974.99974,0,0,1,1-1h2a1,1,0,0,1,0,2H30v1A.99974.99974,0,0,1,29,14Z" style="fill:#6d6daa"/><path d="M55,14a.99974.99974,0,0,1-1-1V12H53a1,1,0,0,1,0-2h2a.99974.99974,0,0,1,1,1v2A.99974.99974,0,0,1,55,14Z" style="fill:#6d6daa"/><path d="M55,34H53a1,1,0,0,1,0-2h1V31a1,1,0,0,1,2,0v2A.99974.99974,0,0,1,55,34Z" style="fill:#6d6daa"/><path d="M31,34H29a.99974.99974,0,0,1-1-1V31a1,1,0,0,1,2,0v1h1a1,1,0,0,1,0,2Z" style="fill:#6d6daa"/><rect height="18" style="fill:#ced8ee" width="4" x="21" y="12.99974"/><rect height="4.00037" style="fill:#fff;opacity:0.5" width="16.00024" x="8.99916" y="12.99924"/><rect height="3.00037" style="fill:#2c4b75;opacity:0.2" width="16.00024" x="8.99909" y="27.9996"/><path d="M53,8H47a.99974.99974,0,0,1-1-1V4a.99974.99974,0,0,1,1-1h6a.99974.99974,0,0,1,1,1V7A.99974.99974,0,0,1,53,8ZM48,6h4V5H48Z" style="fill:#6d6daa"/><path d="M43,8H39a.99974.99974,0,0,1-1-1V4a.99974.99974,0,0,1,1-1h4a.99974.99974,0,0,1,1,1V7A.99974.99974,0,0,1,43,8ZM40,6h2V5H40Z" style="fill:#6d6daa"/><path d="M39,8H35a.99974.99974,0,0,1-1-1V4a.99974.99974,0,0,1,1-1h4a.99974.99974,0,0,1,1,1V7A.99974.99974,0,0,1,39,8ZM36,6h2V5H36Z" style="fill:#6d6daa"/><path d="M35,8H31a.99974.99974,0,0,1-1-1V4a.99974.99974,0,0,1,1-1h4a.99974.99974,0,0,1,1,1V7A.99974.99974,0,0,1,35,8ZM32,6h2V5H32Z" style="fill:#6d6daa"/><path d="M31,8H27a.99974.99974,0,0,1-1-1V4a.99974.99974,0,0,1,1-1h4a.99974.99974,0,0,1,1,1V7A.99974.99974,0,0,1,31,8ZM28,6h2V5H28Z" style="fill:#6d6daa"/><path d="M4,36H1a.99974.99974,0,0,1-1-1V20a.99974.99974,0,0,1,1-1H4a.99974.99974,0,0,1,1,1V35A.99974.99974,0,0,1,4,36ZM2,34H3V21H2Z" style="fill:#6d6daa"/><path d="M4,42H1a.99974.99974,0,0,1-1-1V35a.99974.99974,0,0,1,1-1H4a.99974.99974,0,0,1,1,1v6A.99974.99974,0,0,1,4,42ZM2,40H3V36H2Z" style="fill:#6d6daa"/><path d="M49,32H35a3.00328,3.00328,0,0,1-3-3V26.41406l-.707-.707A.99928.99928,0,0,1,31,25V19a.99928.99928,0,0,1,.293-.707l.707-.707V15a3.00328,3.00328,0,0,1,3-3H49a3.00328,3.00328,0,0,1,3,3v2.58594l.707.707A.99928.99928,0,0,1,53,19v6a.99928.99928,0,0,1-.293.707l-.707.707V29A3.00328,3.00328,0,0,1,49,32ZM33,24.58594l.707.707A.99928.99928,0,0,1,34,26v3a1.001,1.001,0,0,0,1,1H49a1.001,1.001,0,0,0,1-1V26a.99928.99928,0,0,1,.293-.707l.707-.707V19.41406l-.707-.707A.99928.99928,0,0,1,50,18V15a1.001,1.001,0,0,0-1-1H35a1.001,1.001,0,0,0-1,1v3a.99928.99928,0,0,1-.293.707l-.707.707Z" style="fill:#6d6daa"/><path d="M53,42H29a.99974.99974,0,0,1-1-1V37a.99974.99974,0,0,1,1-1H53a.99974.99974,0,0,1,1,1v4A.99974.99974,0,0,1,53,42ZM30,40H52V38H30Z" style="fill:#6d6daa"/><path d="M47,28H37a.99974.99974,0,0,1-1-1V17a.99974.99974,0,0,1,1-1H47a.99974.99974,0,0,1,1,1V27A.99974.99974,0,0,1,47,28Zm-9-2h8V18H38Z" style="fill:#6d6daa"/><path d="M53,46H29a.99974.99974,0,0,1-1-1V41a.99974.99974,0,0,1,1-1H53a.99974.99974,0,0,1,1,1v4A.99974.99974,0,0,1,53,46ZM30,44H52V42H30Z" style="fill:#6d6daa"/><path d="M53,50H29a.99974.99974,0,0,1-1-1V45a.99974.99974,0,0,1,1-1H53a.99974.99974,0,0,1,1,1v4A.99974.99974,0,0,1,53,50ZM30,48H52V46H30Z" style="fill:#6d6daa"/><path d="M13,32H9a.99974.99974,0,0,1-1-1V13a.99974.99974,0,0,1,1-1h4a.99974.99974,0,0,1,1,1V31A.99974.99974,0,0,1,13,32Zm-3-2h2V14H10Z" style="fill:#6d6daa"/><path d="M13,49H9a.99974.99974,0,0,1-1-1V38a.99974.99974,0,0,1,1-1h4a.99974.99974,0,0,1,1,1V48A.99974.99974,0,0,1,13,49Zm-3-2h2V39H10Z" style="fill:#6d6daa"/><path d="M23,49H19a.99974.99974,0,0,1-1-1V38a.99974.99974,0,0,1,1-1h4a.99974.99974,0,0,1,1,1V48A.99974.99974,0,0,1,23,49Zm-3-2h2V39H20Z" style="fill:#6d6daa"/><path d="M17,32H13a.99974.99974,0,0,1-1-1V13a.99974.99974,0,0,1,1-1h4a.99974.99974,0,0,1,1,1V31A.99974.99974,0,0,1,17,32Zm-3-2h2V14H14Z" style="fill:#6d6daa"/><path d="M21,32H17a.99974.99974,0,0,1-1-1V13a.99974.99974,0,0,1,1-1h4a.99974.99974,0,0,1,1,1V31A.99974.99974,0,0,1,21,32Zm-3-2h2V14H18Z" style="fill:#6d6daa"/><path d="M25,32H21a.99974.99974,0,0,1-1-1V13a.99974.99974,0,0,1,1-1h4a.99974.99974,0,0,1,1,1V31A.99974.99974,0,0,1,25,32Zm-3-2h2V14H22Z" style="fill:#6d6daa"/><path d="M13,18H9a1,1,0,0,1,0-2h4a1,1,0,0,1,0,2Z" style="fill:#6d6daa"/><path d="M17,18H13a1,1,0,0,1,0-2h4a1,1,0,0,1,0,2Z" style="fill:#6d6daa"/><path d="M21,18H17a1,1,0,0,1,0-2h4a1,1,0,0,1,0,2Z" style="fill:#6d6daa"/><path d="M25,18H21a1,1,0,0,1,0-2h4a1,1,0,0,1,0,2Z" style="fill:#6d6daa"/></svg>