<?xml version="1.0" encoding="UTF-8"?>
<svg xmlns="http://www.w3.org/2000/svg" xmlns:xlink="http://www.w3.org/1999/xlink" width="76.800003pt" height="76.800003pt" viewBox="0 0 76.800003 76.800003" version="1.1">
<g id="surface1">
<path style=" stroke:none;fill-rule:nonzero;fill:rgb(94%,94%,94%);fill-opacity:1;" d="M 76.800781 38.398438 C 76.800781 59.609375 59.609375 76.800781 38.398438 76.800781 C 17.191406 76.800781 0 59.609375 0 38.398438 C 0 17.191406 17.191406 0 38.398438 0 C 59.609375 0 76.800781 17.191406 76.800781 38.398438 Z M 76.800781 38.398438 "/>
<path style=" stroke:none;fill-rule:nonzero;fill:rgb(100%,100%,100%);fill-opacity:1;" d="M 16 16 L 60.800781 16 L 60.800781 44.800781 L 16 44.800781 Z M 16 16 "/>
<path style=" stroke:none;fill-rule:nonzero;fill:rgb(51%,51%,51%);fill-opacity:1;" d="M 16 16 L 60.800781 16 L 60.800781 19.199219 L 16 19.199219 Z M 16 16 "/>
<path style=" stroke:none;fill-rule:nonzero;fill:rgb(82%,82%,82%);fill-opacity:1;" d="M 25.601562 60.800781 L 51.199219 60.800781 L 51.199219 64 L 25.601562 64 Z M 25.601562 60.800781 "/>
<path style=" stroke:none;fill-rule:nonzero;fill:rgb(82%,82%,82%);fill-opacity:1;" d="M 64 48 L 64 51.199219 C 64 52.96875 62.570312 54.398438 60.800781 54.398438 L 16 54.398438 C 14.230469 54.398438 12.800781 52.96875 12.800781 51.199219 L 12.800781 48 "/>
<path style=" stroke:none;fill-rule:nonzero;fill:rgb(82%,82%,82%);fill-opacity:1;" d="M 44 54.398438 L 32.800781 54.398438 L 32 60.800781 L 44.800781 60.800781 Z M 44 54.398438 "/>
<path style="fill-rule:nonzero;fill:rgb(13%,13%,13%);stroke-opacity:1;stroke-miterlimit:10;" d="M 60.800781 12.800781 L 16 12.800781 C 14.230469 12.800781 12.800781 14.230469 12.800781 16 L 12.800781 48 L 64 48 L 64 16 C 64 14.230469 62.570312 12.800781 60.800781 12.800781 Z M 16 44.800781 L 16 16 L 60.800781 16 L 60.800781 44.800781 Z M 16 44.800781 "/>
<path style="fill:none;stroke-width:1.6;stroke-linecap:round;stroke-linejoin:round;stroke:rgb(0%,0%,0%);stroke-opacity:1;stroke-miterlimit:10;" d="M 64 48 L 64 51.199219 C 64 52.96875 62.570312 54.398438 60.800781 54.398438 L 16 54.398438 C 14.230469 54.398438 12.800781 52.96875 12.800781 51.199219 L 12.800781 48 "/>
<path style="fill:none;stroke-width:1.6;stroke-linecap:round;stroke-linejoin:round;stroke:rgb(0%,0%,0%);stroke-opacity:1;stroke-miterlimit:10;" d="M 44 54.398438 L 32.800781 54.398438 L 32 60.800781 L 44.800781 60.800781 Z M 44 54.398438 "/>
<path style="fill:none;stroke-width:1.6;stroke-linecap:round;stroke-linejoin:round;stroke:rgb(0%,0%,0%);stroke-opacity:1;stroke-miterlimit:10;" d="M 25.601562 60.800781 L 51.199219 60.800781 L 51.199219 64 L 25.601562 64 Z M 25.601562 60.800781 "/>
<path style="fill:none;stroke-width:1.6;stroke-linecap:round;stroke-linejoin:round;stroke:rgb(0%,0%,0%);stroke-opacity:1;stroke-miterlimit:10;" d="M 36.800781 51.199219 L 40 51.199219 "/>
<path style="fill:none;stroke-width:1.6;stroke-linecap:round;stroke-linejoin:round;stroke:rgb(0%,0%,0%);stroke-opacity:1;stroke-miterlimit:10;" d="M 16 19.199219 L 60.800781 19.199219 "/>
<path style=" stroke:none;fill-rule:nonzero;fill:rgb(82%,82%,82%);fill-opacity:1;" d="M 48 33.601562 L 48 30.398438 L 45.414062 30.398438 C 45.234375 29.597656 44.914062 28.847656 44.492188 28.171875 L 46.320312 26.34375 L 44.058594 24.078125 L 42.226562 25.910156 C 41.550781 25.484375 40.800781 25.167969 40 24.984375 L 40 22.398438 L 36.800781 22.398438 L 36.800781 24.984375 C 35.996094 25.167969 35.246094 25.484375 34.570312 25.910156 L 32.742188 24.078125 L 30.480469 26.34375 L 32.308594 28.171875 C 31.882812 28.847656 31.566406 29.597656 31.382812 30.398438 L 28.800781 30.398438 L 28.800781 33.601562 L 31.382812 33.601562 C 31.566406 34.402344 31.882812 35.152344 32.308594 35.828125 L 30.480469 37.65625 L 32.742188 39.921875 L 34.570312 38.089844 C 35.246094 38.515625 35.996094 38.832031 36.800781 39.015625 L 36.800781 41.601562 L 40 41.601562 L 40 39.015625 C 40.800781 38.832031 41.550781 38.515625 42.226562 38.089844 L 44.054688 39.921875 L 46.320312 37.65625 L 44.488281 35.828125 C 44.914062 35.152344 45.230469 34.402344 45.414062 33.601562 Z M 38.398438 35.199219 C 36.632812 35.199219 35.199219 33.765625 35.199219 32 C 35.199219 30.234375 36.632812 28.800781 38.398438 28.800781 C 40.167969 28.800781 41.601562 30.234375 41.601562 32 C 41.601562 33.765625 40.167969 35.199219 38.398438 35.199219 Z M 38.398438 35.199219 "/>
<path style="fill:none;stroke-width:1.6;stroke-linecap:round;stroke-linejoin:round;stroke:rgb(0%,0%,0%);stroke-opacity:1;stroke-miterlimit:10;" d="M 48 33.601562 L 48 30.398438 L 45.414062 30.398438 C 45.234375 29.597656 44.914062 28.847656 44.492188 28.171875 L 46.320312 26.34375 L 44.058594 24.078125 L 42.226562 25.910156 C 41.550781 25.484375 40.800781 25.167969 40 24.984375 L 40 22.398438 L 36.800781 22.398438 L 36.800781 24.984375 C 35.996094 25.167969 35.246094 25.484375 34.570312 25.910156 L 32.742188 24.078125 L 30.480469 26.34375 L 32.308594 28.171875 C 31.882812 28.847656 31.566406 29.597656 31.382812 30.398438 L 28.800781 30.398438 L 28.800781 33.601562 L 31.382812 33.601562 C 31.566406 34.402344 31.882812 35.152344 32.308594 35.828125 L 30.480469 37.65625 L 32.742188 39.921875 L 34.570312 38.089844 C 35.246094 38.515625 35.996094 38.832031 36.800781 39.015625 L 36.800781 41.601562 L 40 41.601562 L 40 39.015625 C 40.800781 38.832031 41.550781 38.515625 42.226562 38.089844 L 44.054688 39.921875 L 46.320312 37.65625 L 44.488281 35.828125 C 44.914062 35.152344 45.230469 34.402344 45.414062 33.601562 Z M 48 33.601562 "/>
<path style="fill:none;stroke-width:1.6;stroke-linecap:round;stroke-linejoin:round;stroke:rgb(0%,0%,0%);stroke-opacity:1;stroke-miterlimit:10;" d="M 41.601562 32 C 41.601562 33.765625 40.167969 35.199219 38.398438 35.199219 C 36.632812 35.199219 35.199219 33.765625 35.199219 32 C 35.199219 30.234375 36.632812 28.800781 38.398438 28.800781 C 40.167969 28.800781 41.601562 30.234375 41.601562 32 Z M 41.601562 32 "/>
</g>
</svg>
