<?xml version="1.0" encoding="UTF-8"?>
<svg xmlns="http://www.w3.org/2000/svg" xmlns:xlink="http://www.w3.org/1999/xlink" width="19.200001pt" height="19.200001pt" viewBox="0 0 19.200001 19.200001" version="1.1">
<defs>
<filter id="alpha" filterUnits="objectBoundingBox" x="0%" y="0%" width="100%" height="100%">
  <feColorMatrix type="matrix" in="SourceGraphic" values="0 0 0 0 1 0 0 0 0 1 0 0 0 0 1 0 0 0 1 0"/>
</filter>
<clipPath id="clip2">
  <path d="M 0 19.199219 L 19.199219 19.199219 L 19.199219 0 L 0 0 Z M 0 19.199219 "/>
</clipPath>
<clipPath id="clip1">
  <rect width="20" height="20"/>
</clipPath>
<g id="surface10" clip-path="url(#clip1)">
<g clip-path="url(#clip2)" clip-rule="nonzero">
<path style=" stroke:none;fill-rule:nonzero;fill:rgb(0%,0%,0%);fill-opacity:0.14;" d="M 0 19.199219 L 19.199219 19.199219 L 19.199219 0 L 0 0 Z M 0 19.199219 "/>
</g>
</g>
<mask id="mask0">
  <g filter="url(#alpha)">
<use xlink:href="#surface10"/>
  </g>
</mask>
<clipPath id="clip4">
  <path d="M 0 19.199219 L 19.199219 19.199219 L 19.199219 0 L 0 0 Z M 0 19.199219 "/>
</clipPath>
<clipPath id="clip6">
  <path d="M 0 19.199219 L 19.199219 19.199219 L 19.199219 0 L 0 0 Z M 0 19.199219 "/>
</clipPath>
<clipPath id="clip5">
  <rect width="20" height="20"/>
</clipPath>
<g id="surface9" clip-path="url(#clip5)">
<g clip-path="url(#clip6)" clip-rule="nonzero">
<path style=" stroke:none;fill-rule:nonzero;fill:rgb(13%,13%,13%);fill-opacity:1;" d="M 6.390625 2.078125 L 6.390625 5.910156 C 6.390625 6.171875 6.171875 6.390625 5.910156 6.390625 L 3.644531 6.390625 L 5.210938 1.601562 L 5.90625 1.601562 C 6.171875 1.601562 6.390625 1.816406 6.390625 2.078125 Z M 18.242188 3.65625 L 15.921875 1.359375 L 14.238281 6.398438 L 14.855469 7.039062 C 15.042969 7.226562 15.347656 7.226562 15.535156 7.039062 L 18.242188 4.332031 C 18.429688 4.144531 18.429688 3.84375 18.242188 3.65625 Z M 11.507812 7.199219 L 10.808594 7.199219 L 9.246094 11.988281 L 11.507812 11.988281 C 11.773438 11.988281 11.988281 11.773438 11.988281 11.507812 L 11.988281 7.679688 C 11.988281 7.414062 11.773438 7.199219 11.507812 7.199219 Z M 5.910156 7.199219 L 5.210938 7.199219 L 3.644531 11.988281 L 5.910156 11.988281 C 6.171875 11.988281 6.390625 11.773438 6.390625 11.507812 L 6.390625 7.679688 C 6.390625 7.414062 6.171875 7.199219 5.910156 7.199219 Z M 5.910156 12.800781 L 5.210938 12.800781 L 3.644531 17.589844 L 5.910156 17.589844 C 6.171875 17.589844 6.390625 17.375 6.390625 17.109375 L 6.390625 13.28125 C 6.390625 13.015625 6.171875 12.800781 5.910156 12.800781 Z M 11.507812 12.800781 L 10.808594 12.800781 L 9.246094 17.589844 L 11.507812 17.589844 C 11.773438 17.589844 11.988281 17.375 11.988281 17.109375 L 11.988281 13.28125 C 11.988281 13.015625 11.773438 12.800781 11.507812 12.800781 Z M 17.109375 12.800781 L 16.410156 12.800781 L 14.847656 17.589844 L 17.109375 17.589844 C 17.375 17.589844 17.589844 17.375 17.589844 17.109375 L 17.589844 13.28125 C 17.589844 13.015625 17.375 12.800781 17.109375 12.800781 Z M 17.109375 12.800781 "/>
</g>
</g>
<clipPath id="clip3">
  <rect width="20" height="20"/>
</clipPath>
<g id="surface8" clip-path="url(#clip3)">
<g clip-path="url(#clip4)" clip-rule="nonzero">
<use xlink:href="#surface9"/>
</g>
</g>
</defs>
<g id="surface1">
<path style=" stroke:none;fill-rule:nonzero;fill:rgb(57%,57%,57%);fill-opacity:1;" d="M 5.910156 6.390625 L 2.078125 6.390625 C 1.816406 6.390625 1.601562 6.171875 1.601562 5.910156 L 1.601562 2.078125 C 1.601562 1.816406 1.816406 1.601562 2.078125 1.601562 L 5.910156 1.601562 C 6.171875 1.601562 6.390625 1.816406 6.390625 2.078125 L 6.390625 5.910156 C 6.390625 6.171875 6.171875 6.390625 5.910156 6.390625 Z M 14.855469 7.039062 L 12.148438 4.332031 C 11.960938 4.144531 11.960938 3.84375 12.148438 3.65625 L 14.855469 0.945312 C 15.042969 0.761719 15.347656 0.761719 15.535156 0.945312 L 18.242188 3.65625 C 18.429688 3.839844 18.429688 4.144531 18.242188 4.332031 L 15.535156 7.039062 C 15.347656 7.226562 15.042969 7.226562 14.855469 7.039062 Z M 5.910156 11.988281 L 2.078125 11.988281 C 1.816406 11.988281 1.601562 11.773438 1.601562 11.507812 L 1.601562 7.679688 C 1.601562 7.414062 1.816406 7.199219 2.078125 7.199219 L 5.910156 7.199219 C 6.171875 7.199219 6.390625 7.414062 6.390625 7.679688 L 6.390625 11.507812 C 6.390625 11.773438 6.171875 11.988281 5.910156 11.988281 Z M 11.507812 11.988281 L 7.679688 11.988281 C 7.414062 11.988281 7.199219 11.773438 7.199219 11.507812 L 7.199219 7.679688 C 7.199219 7.414062 7.414062 7.199219 7.679688 7.199219 L 11.507812 7.199219 C 11.773438 7.199219 11.988281 7.414062 11.988281 7.679688 L 11.988281 11.507812 C 11.988281 11.773438 11.773438 11.988281 11.507812 11.988281 Z M 5.910156 17.589844 L 2.078125 17.589844 C 1.816406 17.589844 1.601562 17.375 1.601562 17.109375 L 1.601562 13.28125 C 1.601562 13.015625 1.816406 12.800781 2.078125 12.800781 L 5.910156 12.800781 C 6.171875 12.800781 6.390625 13.015625 6.390625 13.28125 L 6.390625 17.109375 C 6.390625 17.375 6.171875 17.589844 5.910156 17.589844 Z M 11.507812 17.589844 L 7.679688 17.589844 C 7.414062 17.589844 7.199219 17.375 7.199219 17.109375 L 7.199219 13.28125 C 7.199219 13.015625 7.414062 12.800781 7.679688 12.800781 L 11.507812 12.800781 C 11.773438 12.800781 11.988281 13.015625 11.988281 13.28125 L 11.988281 17.109375 C 11.988281 17.375 11.773438 17.589844 11.507812 17.589844 Z M 17.109375 17.589844 L 13.28125 17.589844 C 13.015625 17.589844 12.800781 17.375 12.800781 17.109375 L 12.800781 13.28125 C 12.800781 13.015625 13.015625 12.800781 13.28125 12.800781 L 17.109375 12.800781 C 17.375 12.800781 17.589844 13.015625 17.589844 13.28125 L 17.589844 17.109375 C 17.589844 17.375 17.375 17.589844 17.109375 17.589844 Z M 17.109375 17.589844 "/>
<use xlink:href="#surface8" mask="url(#mask0)"/>
</g>
</svg>
