<?xml version="1.0" encoding="UTF-8"?>
<svg xmlns="http://www.w3.org/2000/svg" xmlns:xlink="http://www.w3.org/1999/xlink" width="409.600006pt" height="409.600006pt" viewBox="0 0 409.600006 409.600006" version="1.1">
<g id="surface1">
<path style=" stroke:none;fill-rule:nonzero;fill:rgb(31%,31%,31%);fill-opacity:1;" d="M 327.953125 130.550781 L 333.910156 124.601562 C 336.511719 126.761719 339.761719 127.9375 343.183594 127.9375 C 347.070312 127.9375 350.726562 126.425781 353.480469 123.679688 L 355.960938 121.191406 C 361.632812 115.519531 361.632812 106.289062 355.960938 100.609375 L 332.335938 76.984375 C 329.585938 74.230469 325.9375 72.71875 322.046875 72.71875 C 318.160156 72.71875 314.503906 74.230469 311.761719 76.984375 L 309.265625 79.472656 C 303.921875 84.816406 303.617188 93.328125 308.351562 99.039062 L 302.28125 105.113281 C 282.105469 89.238281 257.984375 78.175781 231.664062 73.648438 L 231.664062 63.0625 L 246.128906 63.0625 C 250.015625 63.0625 253.671875 61.542969 256.414062 58.800781 C 259.167969 56.046875 260.679688 52.390625 260.679688 48.511719 L 260.679688 37.03125 C 260.679688 29.007812 254.152344 22.480469 246.128906 22.480469 L 163.472656 22.480469 C 155.449219 22.480469 148.921875 29.007812 148.921875 37.03125 L 148.921875 48.511719 C 148.921875 56.535156 155.449219 63.0625 163.472656 63.0625 L 177.9375 63.0625 L 177.9375 73.648438 C 151.609375 78.175781 127.496094 89.238281 107.328125 105.113281 L 101.246094 99.039062 C 105.984375 93.328125 105.679688 84.816406 100.335938 79.472656 L 97.847656 76.984375 C 95.097656 74.230469 91.441406 72.71875 87.558594 72.71875 C 83.671875 72.71875 80.015625 74.230469 77.265625 76.984375 L 53.640625 100.609375 C 47.96875 106.289062 47.96875 115.519531 53.640625 121.191406 L 56.128906 123.679688 C 58.871094 126.425781 62.527344 127.9375 66.414062 127.9375 C 69.839844 127.9375 73.089844 126.761719 75.695312 124.601562 L 81.648438 130.550781 C 59.9375 157.609375 46.921875 191.929688 46.921875 229.230469 C 46.921875 316.289062 117.742188 387.121094 204.800781 387.121094 C 291.855469 387.121094 362.6875 316.289062 362.6875 229.230469 C 362.6875 191.929688 349.664062 157.609375 327.953125 130.550781 Z M 231.664062 30.480469 L 246.128906 30.480469 C 249.742188 30.480469 252.679688 33.425781 252.679688 37.03125 L 252.679688 48.511719 C 252.679688 52.121094 249.742188 55.0625 246.128906 55.0625 L 231.664062 55.0625 Z M 314.929688 85.128906 L 317.414062 82.640625 C 318.648438 81.398438 320.296875 80.71875 322.046875 80.71875 C 323.792969 80.71875 325.4375 81.398438 326.679688 82.640625 L 350.304688 106.273438 C 352.855469 108.824219 352.855469 112.984375 350.304688 115.535156 L 347.816406 118.023438 C 346.585938 119.257812 344.933594 119.9375 343.183594 119.9375 C 341.433594 119.9375 339.792969 119.257812 338.550781 118.023438 L 314.929688 94.390625 C 312.367188 91.839844 312.367188 87.679688 314.929688 85.128906 Z M 313.960938 104.742188 L 328.207031 118.984375 L 322.769531 124.425781 C 318.304688 119.398438 313.527344 114.664062 308.457031 110.246094 Z M 208.800781 30.480469 L 223.664062 30.480469 L 223.664062 55.0625 L 208.800781 55.0625 Z M 185.9375 30.480469 L 200.800781 30.480469 L 200.800781 55.0625 L 185.9375 55.0625 Z M 185.9375 63.0625 L 223.664062 63.0625 L 223.664062 72.480469 C 217.472656 71.742188 211.183594 71.351562 204.800781 71.351562 C 198.414062 71.351562 192.121094 71.742188 185.9375 72.480469 Z M 163.472656 55.0625 C 159.855469 55.0625 156.921875 52.121094 156.921875 48.511719 L 156.921875 37.03125 C 156.921875 33.425781 159.855469 30.480469 163.472656 30.480469 L 177.9375 30.480469 L 177.9375 55.0625 Z M 72.921875 116.152344 C 72.910156 116.152344 72.910156 116.160156 72.910156 116.160156 C 72.910156 116.160156 72.902344 116.160156 72.902344 116.167969 L 71.046875 118.023438 C 69.808594 119.257812 68.167969 119.9375 66.414062 119.9375 C 64.664062 119.9375 63.015625 119.257812 61.785156 118.023438 L 59.296875 115.535156 C 56.742188 112.984375 56.742188 108.824219 59.296875 106.273438 L 82.921875 82.640625 C 84.160156 81.398438 85.808594 80.71875 87.558594 80.71875 C 89.304688 80.71875 90.953125 81.398438 92.191406 82.640625 L 94.679688 85.128906 C 95.910156 86.367188 96.59375 88.007812 96.59375 89.761719 C 96.59375 91.511719 95.910156 93.152344 94.679688 94.390625 L 92.808594 96.257812 Z M 81.398438 118.984375 L 95.640625 104.742188 L 101.144531 110.246094 C 96.070312 114.664062 91.296875 119.398438 86.832031 124.425781 Z M 204.800781 379.121094 C 122.152344 379.121094 54.921875 311.878906 54.921875 229.234375 C 54.921875 146.585938 122.152344 79.351562 204.800781 79.351562 C 287.449219 79.351562 354.6875 146.585938 354.6875 229.234375 C 354.6875 311.878906 287.445312 379.121094 204.800781 379.121094 Z M 204.800781 379.121094 "/>
<path style=" stroke:none;fill-rule:nonzero;fill:rgb(76%,76%,76%);fill-opacity:1;" d="M 96.59375 89.761719 C 96.59375 91.511719 95.910156 93.152344 94.679688 94.390625 L 92.808594 96.257812 L 72.921875 116.152344 C 72.910156 116.152344 72.910156 116.160156 72.910156 116.160156 C 72.910156 116.160156 72.902344 116.160156 72.902344 116.167969 L 71.046875 118.023438 C 69.808594 119.257812 68.167969 119.9375 66.414062 119.9375 C 64.664062 119.9375 63.015625 119.257812 61.785156 118.023438 L 59.296875 115.535156 C 56.742188 112.984375 56.742188 108.824219 59.296875 106.273438 L 82.921875 82.640625 C 84.160156 81.398438 85.808594 80.71875 87.558594 80.71875 C 89.304688 80.71875 90.953125 81.398438 92.191406 82.640625 L 94.679688 85.128906 C 95.910156 86.367188 96.59375 88.007812 96.59375 89.761719 Z M 96.59375 89.761719 "/>
<path style=" stroke:none;fill-rule:nonzero;fill:rgb(76%,76%,76%);fill-opacity:1;" d="M 177.9375 30.480469 L 177.9375 55.0625 L 163.472656 55.0625 C 159.855469 55.0625 156.921875 52.121094 156.921875 48.511719 L 156.921875 37.03125 C 156.921875 33.425781 159.855469 30.480469 163.472656 30.480469 Z M 177.9375 30.480469 "/>
<path style=" stroke:none;fill-rule:nonzero;fill:rgb(76%,76%,76%);fill-opacity:1;" d="M 252.679688 37.03125 L 252.679688 48.511719 C 252.679688 52.121094 249.742188 55.0625 246.128906 55.0625 L 231.664062 55.0625 L 231.664062 30.480469 L 246.128906 30.480469 C 249.742188 30.480469 252.679688 33.425781 252.679688 37.03125 Z M 252.679688 37.03125 "/>
<path style=" stroke:none;fill-rule:nonzero;fill:rgb(76%,76%,76%);fill-opacity:1;" d="M 350.304688 115.535156 L 347.816406 118.023438 C 346.585938 119.257812 344.9375 119.9375 343.183594 119.9375 C 341.433594 119.9375 339.792969 119.257812 338.554688 118.023438 L 314.929688 94.390625 C 312.367188 91.839844 312.367188 87.679688 314.929688 85.128906 L 317.414062 82.640625 C 318.648438 81.398438 320.296875 80.71875 322.046875 80.71875 C 323.792969 80.71875 325.441406 81.398438 326.679688 82.640625 L 350.304688 106.273438 C 352.855469 108.824219 352.855469 112.984375 350.304688 115.535156 Z M 350.304688 115.535156 "/>
<path style=" stroke:none;fill-rule:nonzero;fill:rgb(76%,76%,76%);fill-opacity:1;" d="M 204.800781 79.351562 C 122.152344 79.351562 54.921875 146.585938 54.921875 229.230469 C 54.921875 311.878906 122.152344 379.121094 204.800781 379.121094 C 287.449219 379.121094 354.6875 311.878906 354.6875 229.230469 C 354.6875 146.585938 287.445312 79.351562 204.800781 79.351562 Z M 322.214844 297.023438 C 322.128906 297.175781 322.03125 297.320312 321.929688 297.457031 C 310.078125 317.710938 293.136719 334.640625 272.855469 346.457031 C 272.769531 346.519531 272.6875 346.59375 272.59375 346.648438 C 272.480469 346.710938 272.367188 346.769531 272.246094 346.816406 C 252.375 358.265625 229.335938 364.816406 204.800781 364.816406 C 180.253906 364.816406 157.214844 358.265625 137.335938 346.808594 C 137.222656 346.761719 137.121094 346.710938 137.007812 346.648438 C 136.917969 346.601562 136.847656 346.527344 136.757812 346.472656 C 116.472656 334.648438 99.511719 317.710938 87.664062 297.433594 C 87.558594 297.304688 87.472656 297.167969 87.382812 297.023438 C 87.34375 296.953125 87.320312 296.871094 87.277344 296.792969 C 75.792969 276.886719 69.214844 253.816406 69.214844 229.230469 C 69.214844 204.65625 75.792969 181.585938 87.269531 161.6875 C 87.3125 161.609375 87.335938 161.519531 87.382812 161.441406 C 87.4375 161.34375 87.511719 161.265625 87.574219 161.175781 C 99.421875 140.847656 116.40625 123.863281 136.726562 112.015625 C 136.824219 111.953125 136.910156 111.871094 137.007812 111.816406 C 137.085938 111.769531 137.175781 111.742188 137.261719 111.703125 C 157.152344 100.222656 180.214844 93.65625 204.792969 93.648438 L 204.808594 93.648438 C 229.375 93.65625 252.4375 100.222656 272.335938 111.703125 C 272.414062 111.742188 272.503906 111.769531 272.589844 111.816406 C 272.695312 111.871094 272.773438 111.953125 272.871094 112.015625 C 293.191406 123.863281 310.167969 140.839844 322.015625 161.160156 C 322.078125 161.257812 322.160156 161.34375 322.214844 161.441406 C 322.265625 161.519531 322.289062 161.609375 322.328125 161.695312 C 333.808594 181.59375 340.382812 204.65625 340.382812 229.230469 C 340.382812 253.816406 333.808594 276.878906 322.328125 296.785156 C 322.289062 296.863281 322.265625 296.945312 322.214844 297.023438 Z M 322.214844 297.023438 "/>
<path style=" stroke:none;fill-rule:nonzero;fill:rgb(31%,31%,31%);fill-opacity:1;" d="M 322.328125 161.695312 C 322.289062 161.609375 322.265625 161.519531 322.214844 161.441406 C 322.160156 161.34375 322.078125 161.257812 322.015625 161.160156 C 310.167969 140.839844 293.191406 123.863281 272.871094 112.015625 C 272.773438 111.953125 272.695312 111.871094 272.589844 111.816406 C 272.503906 111.769531 272.414062 111.742188 272.335938 111.703125 C 252.4375 100.222656 229.375 93.65625 204.808594 93.648438 L 204.792969 93.648438 C 180.214844 93.65625 157.152344 100.222656 137.261719 111.703125 C 137.175781 111.742188 137.085938 111.769531 137.007812 111.816406 C 136.910156 111.871094 136.824219 111.953125 136.726562 112.015625 C 116.40625 123.863281 99.421875 140.847656 87.574219 161.175781 C 87.511719 161.265625 87.4375 161.34375 87.382812 161.441406 C 87.335938 161.519531 87.3125 161.609375 87.269531 161.6875 C 75.792969 181.585938 69.214844 204.65625 69.214844 229.230469 C 69.214844 253.816406 75.792969 276.886719 87.277344 296.792969 C 87.320312 296.871094 87.34375 296.953125 87.382812 297.023438 C 87.472656 297.167969 87.558594 297.304688 87.664062 297.433594 C 99.511719 317.710938 116.472656 334.648438 136.757812 346.472656 C 136.847656 346.527344 136.917969 346.601562 137.007812 346.648438 C 137.121094 346.710938 137.222656 346.761719 137.335938 346.808594 C 157.214844 358.265625 180.253906 364.816406 204.800781 364.816406 C 229.335938 364.816406 252.375 358.265625 272.246094 346.816406 C 272.367188 346.769531 272.480469 346.710938 272.59375 346.648438 C 272.6875 346.59375 272.769531 346.519531 272.855469 346.457031 C 293.136719 334.640625 310.078125 317.710938 321.929688 297.457031 C 322.03125 297.320312 322.128906 297.175781 322.214844 297.023438 C 322.265625 296.945312 322.289062 296.863281 322.328125 296.785156 C 333.808594 276.878906 340.382812 253.816406 340.382812 229.234375 C 340.382812 204.65625 333.808594 181.59375 322.328125 161.695312 Z M 317.214844 289.511719 L 311.097656 285.984375 C 309.183594 284.871094 306.734375 285.535156 305.632812 287.449219 C 304.527344 289.359375 305.183594 291.808594 307.097656 292.910156 L 313.199219 296.433594 C 302.816406 313.121094 288.695312 327.246094 272.007812 337.632812 L 268.480469 331.527344 C 267.375 329.613281 264.929688 328.960938 263.015625 330.0625 C 261.105469 331.167969 260.449219 333.613281 261.554688 335.527344 L 265.089844 341.648438 C 248.226562 350.726562 229.105469 356.121094 208.800781 356.742188 L 208.800781 338.511719 C 208.800781 336.304688 207.007812 334.511719 204.800781 334.511719 C 202.59375 334.511719 200.800781 336.304688 200.800781 338.511719 L 200.800781 356.742188 C 180.496094 356.121094 161.375 350.726562 144.519531 341.648438 L 148.046875 335.527344 C 149.152344 333.613281 148.496094 331.167969 146.585938 330.0625 C 144.671875 328.960938 142.226562 329.613281 141.121094 331.527344 L 137.601562 337.632812 C 120.914062 327.246094 106.785156 313.128906 96.402344 296.441406 L 102.503906 292.910156 C 104.417969 291.808594 105.074219 289.359375 103.96875 287.449219 C 102.863281 285.535156 100.417969 284.878906 98.503906 285.984375 L 92.386719 289.519531 C 83.3125 272.65625 77.914062 253.535156 77.289062 233.234375 L 95.519531 233.234375 C 97.730469 233.234375 99.519531 231.441406 99.519531 229.234375 C 99.519531 227.023438 97.730469 225.234375 95.519531 225.234375 L 77.289062 225.234375 C 77.910156 204.929688 83.3125 185.808594 92.382812 168.953125 L 98.503906 172.480469 C 99.136719 172.847656 99.824219 173.015625 100.496094 173.015625 C 101.878906 173.015625 103.222656 172.304688 103.96875 171.015625 C 105.070312 169.105469 104.414062 166.65625 102.503906 165.554688 L 96.398438 162.03125 C 106.785156 145.34375 120.910156 131.21875 137.601562 120.832031 L 141.121094 126.9375 C 141.863281 128.226562 143.207031 128.9375 144.59375 128.9375 C 145.265625 128.9375 145.953125 128.769531 146.585938 128.402344 C 148.496094 127.296875 149.152344 124.847656 148.046875 122.9375 L 144.519531 116.816406 C 161.375 107.746094 180.496094 102.351562 200.800781 101.722656 L 200.800781 119.953125 C 200.800781 122.160156 202.59375 123.953125 204.800781 123.953125 C 207.007812 123.953125 208.800781 122.160156 208.800781 119.953125 L 208.800781 101.722656 C 229.105469 102.351562 248.222656 107.746094 265.078125 116.816406 L 261.554688 122.9375 C 260.449219 124.847656 261.105469 127.296875 263.015625 128.402344 C 263.648438 128.761719 264.335938 128.9375 265.007812 128.9375 C 266.390625 128.9375 267.734375 128.21875 268.480469 126.9375 L 272 120.832031 C 288.6875 131.21875 302.816406 145.34375 313.199219 162.03125 L 307.097656 165.554688 C 305.183594 166.65625 304.527344 169.105469 305.632812 171.015625 C 306.367188 172.296875 307.71875 173.015625 309.097656 173.015625 C 309.777344 173.015625 310.464844 172.839844 311.097656 172.480469 L 317.214844 168.953125 C 326.296875 185.808594 331.6875 204.929688 332.3125 225.234375 L 314.078125 225.234375 C 311.871094 225.234375 310.078125 227.023438 310.078125 229.234375 C 310.078125 231.441406 311.871094 233.234375 314.078125 233.234375 L 332.3125 233.234375 C 331.6875 253.535156 326.296875 272.65625 317.214844 289.511719 Z M 317.214844 289.511719 "/>
<path style=" stroke:none;fill-rule:nonzero;fill:rgb(31%,31%,31%);fill-opacity:1;" d="M 286.675781 178.074219 L 204.800781 224.632812 L 122.925781 178.074219 C 121.007812 176.984375 118.5625 177.65625 117.472656 179.574219 C 116.378906 181.496094 117.050781 183.9375 118.972656 185.03125 L 202.8125 232.703125 C 202.964844 232.792969 203.128906 232.871094 203.292969 232.9375 C 203.4375 232.996094 203.585938 233.042969 203.734375 233.085938 C 203.746094 233.089844 203.761719 233.097656 203.777344 233.101562 C 204.113281 233.191406 204.457031 233.234375 204.796875 233.234375 L 204.804688 233.234375 C 205.144531 233.234375 205.484375 233.191406 205.824219 233.101562 C 205.832031 233.097656 205.84375 233.09375 205.855469 233.089844 C 206.007812 233.046875 206.160156 233 206.308594 232.9375 C 206.472656 232.871094 206.632812 232.792969 206.785156 232.707031 L 290.628906 185.03125 C 292.546875 183.9375 293.21875 181.496094 292.128906 179.578125 C 291.035156 177.65625 288.597656 176.984375 286.675781 178.074219 Z M 286.675781 178.074219 "/>
</g>
</svg>
