<?xml version="1.0" encoding="UTF-8"?>
<svg xmlns="http://www.w3.org/2000/svg" xmlns:xlink="http://www.w3.org/1999/xlink" width="48pt" height="48pt" viewBox="0 0 48 48" version="1.1">
<g id="surface1">
<path style=" stroke:none;fill-rule:nonzero;fill:rgb(100%,100%,100%);fill-opacity:1;" d="M 3.199219 42.800781 C 2.980469 42.800781 2.800781 42.621094 2.800781 42.398438 L 2.800781 17.199219 L 37.199219 17.199219 L 37.199219 42.398438 C 37.199219 42.621094 37.019531 42.800781 36.800781 42.800781 Z M 3.199219 42.800781 "/>
<path style=" stroke:none;fill-rule:nonzero;fill:rgb(75%,75%,75%);fill-opacity:1;" d="M 36 18.398438 L 36 41.601562 L 4 41.601562 L 4 18.398438 L 36 18.398438 M 38.398438 16 L 1.601562 16 L 1.601562 42.398438 C 1.601562 43.285156 2.316406 44 3.199219 44 L 36.800781 44 C 37.683594 44 38.398438 43.285156 38.398438 42.398438 Z M 38.398438 16 "/>
<path style=" stroke:none;fill-rule:nonzero;fill:rgb(75%,75%,75%);fill-opacity:1;" d="M 1.601562 19.199219 L 1.601562 13.601562 C 1.601562 12.714844 2.316406 12 3.199219 12 L 36.800781 12 C 37.683594 12 38.398438 12.714844 38.398438 13.601562 L 38.398438 19.199219 Z M 1.601562 19.199219 "/>
<path style=" stroke:none;fill-rule:nonzero;fill:rgb(100%,100%,100%);fill-opacity:1;" d="M 11.199219 34.800781 C 10.980469 34.800781 10.800781 34.621094 10.800781 34.398438 L 10.800781 9.199219 L 45.199219 9.199219 L 45.199219 34.398438 C 45.199219 34.621094 45.019531 34.800781 44.800781 34.800781 Z M 11.199219 34.800781 "/>
<path style=" stroke:none;fill-rule:nonzero;fill:rgb(82%,82%,82%);fill-opacity:1;" d="M 44 10.398438 L 44 33.601562 L 12 33.601562 L 12 10.398438 L 44 10.398438 M 46.398438 8 L 9.601562 8 L 9.601562 34.398438 C 9.601562 35.285156 10.316406 36 11.199219 36 L 44.800781 36 C 45.683594 36 46.398438 35.285156 46.398438 34.398438 Z M 46.398438 8 "/>
<path style=" stroke:none;fill-rule:nonzero;fill:rgb(82%,82%,82%);fill-opacity:1;" d="M 9.601562 11.199219 L 9.601562 5.601562 C 9.601562 4.714844 10.316406 4 11.199219 4 L 44.800781 4 C 45.683594 4 46.398438 4.714844 46.398438 5.601562 L 46.398438 11.199219 Z M 9.601562 11.199219 "/>
<path style=" stroke:none;fill-rule:nonzero;fill:rgb(63%,63%,63%);fill-opacity:1;" d="M 28 4 L 31.199219 4 L 31.199219 7.199219 L 28 7.199219 Z M 28 4 "/>
<path style=" stroke:none;fill-rule:nonzero;fill:rgb(63%,63%,63%);fill-opacity:1;" d="M 32.800781 4 L 36 4 L 36 7.199219 L 32.800781 7.199219 Z M 32.800781 4 "/>
<path style=" stroke:none;fill-rule:nonzero;fill:rgb(48%,48%,48%);fill-opacity:1;" d="M 37.601562 4 L 44 4 L 44 7.199219 L 37.601562 7.199219 Z M 37.601562 4 "/>
</g>
</svg>
