<?xml version="1.0" ?><svg height="60px" id="Layer_1" style="enable-background:new 0 0 60 60;" version="1.1" viewBox="0 0 60 60" width="60px" xml:space="preserve" xmlns="http://www.w3.org/2000/svg" xmlns:xlink="http://www.w3.org/1999/xlink"><style type="text/css">
	.st0{fill:#4D5770;}
	.st1{fill:#ABB8BF;}
	.st2{fill:#D9E3E6;}
	.st3{fill:#FFFFFF;}
	.st4{fill:#C5D7DB;}
	.st5{fill:#8299A3;}
	.st6{fill:#FA4E70;}
	.st7{fill:#3CC2A7;}
	.st8{fill:#B3C3C7;}
	.st9{fill:#9CA2A3;}
	.st10{fill:#FF443B;}
	.st11{fill:#7BA3E8;}
</style><g><path class="st3" d="M4,53.5c-0.2758789,0-0.5-0.2241211-0.5-0.5V21.5h43V53c0,0.2758789-0.2241211,0.5-0.5,0.5H4z"/><g><path class="st8" d="M45,23v29H5V23H45 M48,20H2v33c0,1.1046143,0.8953857,2,2,2h42c1.1046143,0,2-0.8953857,2-2V20L48,20z"/></g></g><path class="st8" d="M2,24v-7c0-1.1046,0.8953969-2,2-2h42c1.1045952,0,2,0.8954,2,2v7H2z"/><g><path class="st3" d="M14,43.5c-0.2758789,0-0.5-0.2241211-0.5-0.5V11.5h43V43c0,0.2758789-0.2241211,0.5-0.5,0.5H14z"/><path class="st4" d="M55,13v29H15V13H55 M58,10H12v33c0,1.1046143,0.8953857,2,2,2h42c1.1046143,0,2-0.8953857,2-2V10L58,10z"/></g><path class="st4" d="M12,14V7c0-1.1046,0.8953972-2,2-2h42c1.1045952,0,2,0.8954,2,2v7H12z"/><rect class="st9" height="4" width="4" x="35" y="5"/><rect class="st9" height="4" width="4" x="41" y="5"/><rect class="st10" height="4" width="8" x="47" y="5"/></svg>