<?xml version="1.0" ?><!DOCTYPE svg  PUBLIC '-//W3C//DTD SVG 1.1//EN'  'http://www.w3.org/Graphics/SVG/1.1/DTD/svg11.dtd'><svg height="512px" style="shape-rendering:geometricPrecision; text-rendering:geometricPrecision; image-rendering:optimizeQuality; fill-rule:evenodd; clip-rule:evenodd" version="1.1" viewBox="0 0 512 512" width="512px" xml:space="preserve" xmlns="http://www.w3.org/2000/svg" xmlns:xlink="http://www.w3.org/1999/xlink"><defs><style type="text/css">
   <![CDATA[
    .fil6 {fill:#EAE9EA}
    .fil2 {fill:#E25F54}
    .fil3 {fill:#515B6A}
    .fil0 {fill:#516A79}
    .fil7 {fill:#FEFEFE;fill-rule:nonzero}
    .fil5 {fill:#EF837A;fill-rule:nonzero}
    .fil1 {fill:#2C3944;fill-rule:nonzero}
    .fil4 {fill:black;fill-rule:nonzero}
   ]]>
  </style></defs><g id="Layer_x0020_1"><g id="_550167233248"><polygon class="fil0" points="200,344 408,139 445,144 502,45 469,12 376,63 375,107 166,312 "/><path class="fil1" d="M200 335l203 -200c2,-2 3,-2 5,-2l0 0 34 4 52 -91 -26 -26 -86 46 -1 41c0,1 0,3 -2,4l0 0 -204 201 25 23zm210 -189l-206 202c-2,2 -6,2 -9,0l-33 -32 0 0 0 0c-2,-2 -2,-6 0,-9l207 -203 0 -42c0,-2 2,-4 4,-5l93 -50c3,-1 6,-1 8,1l32 32c2,2 3,5 1,8l-57 98c-1,3 -3,4 -6,4l-34 -4z"/><path class="fil2" d="M25 487c18,18 46,18 64,0l161 -161c17,-17 17,-46 0,-64 -18,-17 -47,-17 -64,0l-161 161c-18,18 -18,46 0,64z"/><path class="fil1" d="M29 483c8,7 18,11 28,11 10,0 20,-4 28,-11l0 0 160 -161c8,-8 12,-18 12,-28 0,-10 -4,-20 -12,-27l0 0c-7,-8 -17,-12 -27,-12 -10,0 -20,4 -28,12l0 0 -161 160 0 1c-7,7 -11,17 -11,27 0,10 4,20 11,28zm28 24c-13,0 -26,-5 -36,-16 -11,-10 -16,-23 -16,-36 0,-13 5,-26 15,-36 0,0 0,0 1,-1l160 -160 0 0c10,-10 23,-15 37,-15 13,0 26,5 36,15l0 0c10,10 15,23 15,36 0,14 -5,27 -15,37l-160 160 0 0 0 0c-11,11 -24,16 -37,16z"/><path class="fil3" d="M261 283l4 -4 -9 -9c3,4 4,8 5,13zm-19 -27l-9 -9 -4 3c4,1 9,3 13,6z"/><path class="fil4" d="M269 284l-3 3c-1,1 -2,1 -3,2 -3,1 -7,-1 -8,-5 0,-2 -1,-3 -1,-5 -1,-2 -2,-4 -3,-5 -2,-3 -1,-6 1,-8 2,-3 6,-3 8,0l9 9 0 0 0 0c3,2 3,6 0,9zm-32 -42l9 9c2,2 3,6 1,8 -2,3 -6,4 -9,2 -1,-1 -3,-2 -5,-3 -2,0 -4,-1 -6,-2l0 0c-1,0 -2,0 -3,-1 -2,-3 -2,-7 0,-9l4 -4c3,-2 6,-2 9,0z"/><path class="fil5" d="M85 443c3,-2 6,-2 9,0 2,2 2,6 0,9l-21 20c-2,3 -6,3 -8,0 -3,-2 -3,-6 0,-8l20 -21z"/><path class="fil5" d="M186 342c3,-3 7,-3 9,0 3,2 3,6 0,9l-87 87c-3,3 -7,3 -9,0 -3,-2 -3,-6 0,-9l87 -87z"/><path class="fil6" d="M424 360c-17,-18 -46,-18 -64,0 -18,18 -18,47 0,64l74 74c-13,5 -27,8 -42,8 -62,0 -113,-51 -113,-114 0,-14 2,-28 8,-41l-126 -126c-13,6 -27,8 -41,8 -63,0 -114,-51 -114,-113 0,-15 3,-29 8,-42l74 74c17,18 46,18 64,0 18,-18 18,-47 0,-64l-74 -74c13,-5 27,-8 42,-8 62,0 113,51 113,114 0,14 -2,28 -8,41l126 126c13,-6 27,-8 41,-8 63,0 114,51 114,113 0,15 -3,29 -8,42l-74 -74z"/><path class="fil1" d="M420 365c-8,-8 -18,-12 -28,-12 -10,0 -20,4 -27,12l0 0c-8,7 -12,17 -12,27 0,10 4,20 12,28l0 0 0 0 73 73c2,3 2,7 0,9 -1,1 -2,2 -2,2 -7,2 -14,4 -22,6 -7,1 -14,2 -22,2l0 0c-33,0 -63,-13 -84,-35 -22,-22 -36,-52 -36,-85 0,-7 1,-15 3,-22 1,-6 2,-12 4,-18l-119 -119c-6,2 -12,3 -18,4 -7,2 -15,3 -22,3l0 0c-33,0 -63,-14 -85,-36 -22,-21 -35,-51 -35,-84 0,-8 1,-15 2,-22l0 0 0 0c2,-8 4,-15 6,-22 2,-3 5,-5 8,-3 1,0 2,0 3,1l0 0 73 73 0 0c8,8 18,12 28,12 10,0 20,-4 27,-12l0 0 0 0c8,-7 12,-17 12,-27 0,-10 -4,-20 -12,-28l-73 -73c-2,-3 -2,-7 0,-9 1,-1 2,-2 2,-2 7,-2 14,-4 22,-6 7,-1 14,-2 22,-2l0 0c33,0 63,13 84,35 22,22 36,52 36,85l0 0 0 0c0,7 -1,15 -3,22 -1,6 -2,12 -4,18l119 119c6,-2 12,-3 18,-4 7,-2 15,-3 22,-3 33,0 63,14 85,36 22,21 35,51 35,84 0,8 -1,15 -2,22l0 0 0 0c-2,8 -4,15 -6,22 -2,3 -5,5 -8,3 -1,0 -2,0 -3,-1l-73 -73zm-28 -24c13,0 27,5 37,15l0 0 66 66c1,-3 2,-7 3,-10l0 0c1,-6 2,-13 2,-20 0,-29 -12,-56 -32,-76 -19,-19 -46,-31 -76,-31 -7,0 -13,1 -20,2 -6,1 -13,3 -19,5 -2,1 -5,1 -7,-1l-125 -125 0 0c-2,-2 -2,-5 -1,-7 2,-6 4,-13 5,-19 1,-7 2,-13 2,-20l0 0 0 0c0,-30 -12,-57 -31,-76 -20,-20 -47,-32 -76,-32l0 0c-7,0 -14,1 -20,2 -3,1 -7,2 -10,3l66 66c10,10 15,24 15,37 0,13 -5,26 -15,36l0 0 0 0 0 0c-10,10 -23,15 -36,15 -13,0 -27,-5 -37,-15l0 0 -66 -66c-1,3 -2,7 -3,10l0 0c-1,6 -2,13 -2,20 0,29 12,56 32,76 19,19 46,31 76,31l0 0c7,0 13,-1 20,-2 6,-1 13,-3 19,-5 2,-1 5,-1 7,1l125 125 0 0c2,2 2,5 1,7 -2,6 -4,13 -5,19 -1,7 -2,13 -2,20 0,30 12,57 31,76 20,20 47,32 76,32l0 0c7,0 14,-1 20,-2 3,-1 7,-2 10,-3l-66 -66 0 0 0 0 0 0c-10,-10 -15,-24 -15,-37 0,-13 5,-26 15,-36l0 0c10,-10 23,-15 36,-15z"/><path class="fil7" d="M295 267c2,2 2,6 0,9 -3,2 -7,2 -9,0l-87 -87c-3,-3 -3,-7 0,-9 2,-3 6,-3 8,0l88 87z"/><path class="fil7" d="M334 306c2,3 2,6 0,9 -3,2 -7,2 -9,0l-21 -21c-3,-3 -3,-6 0,-9 2,-2 6,-2 9,0l21 21z"/></g></g></svg>