<?xml version="1.0" ?><!DOCTYPE svg  PUBLIC '-//W3C//DTD SVG 1.1//EN'  'http://www.w3.org/Graphics/SVG/1.1/DTD/svg11.dtd'><svg height="128px" id="Layer_1" style="enable-background:new 0 0 128 128;" version="1.1" viewBox="0 0 128 128" width="128px" xml:space="preserve" xmlns="http://www.w3.org/2000/svg" xmlns:xlink="http://www.w3.org/1999/xlink"><g><path d="M64,0C28.654,0,0,28.654,0,64c0,35.346,28.654,64,64,64s64-28.654,64-64C128,28.654,99.346,0,64,0z" style="fill:#88C5CC;"/><path d="M94,88c0,3.3-2.7,6-6,6H40c-3.3,0-6-2.7-6-6V40c0-3.3,2.7-6,6-6h48c3.3,0,6,2.7,6,6V88z" style="fill:#2D4452;"/><path d="M88,34h-4c3.3,0,6,2.7,6,6v48c0,3.3-2.7,6-6,6h4c3.3,0,6-2.7,6-6V40C94,36.7,91.3,34,88,34z" style="fill:#233540;"/><circle cx="88" cy="40" r="1" style="fill:#C2D5D8;"/><circle cx="40" cy="40" r="1" style="fill:#C2D5D8;"/><circle cx="88" cy="88" r="1" style="fill:#C2D5D8;"/><circle cx="40" cy="88" r="1" style="fill:#C2D5D8;"/><g><g><g><path d="M46,29c-0.553,0-1-0.448-1-1V15c0-0.552,0.447-1,1-1s1,0.448,1,1v13C47,28.552,46.553,29,46,29z" style="fill:#F5F5F5;"/><path d="M51,29c-0.553,0-1-0.448-1-1V15c0-0.552,0.447-1,1-1s1,0.448,1,1v13C52,28.552,51.553,29,51,29z" style="fill:#F5F5F5;"/><path d="M57,29c-0.553,0-1-0.448-1-1V15c0-0.552,0.447-1,1-1s1,0.448,1,1v13C58,28.552,57.553,29,57,29z" style="fill:#F5F5F5;"/><path d="M62,29c-0.553,0-1-0.448-1-1V15c0-0.552,0.447-1,1-1s1,0.448,1,1v13C63,28.552,62.553,29,62,29z" style="fill:#F5F5F5;"/><path d="M67,29c-0.553,0-1-0.448-1-1V15c0-0.552,0.447-1,1-1s1,0.448,1,1v13C68,28.552,67.553,29,67,29z" style="fill:#F5F5F5;"/><path d="M72,29c-0.553,0-1-0.448-1-1V15c0-0.552,0.447-1,1-1s1,0.448,1,1v13C73,28.552,72.553,29,72,29z" style="fill:#F5F5F5;"/><path d="M78,29c-0.553,0-1-0.448-1-1V15c0-0.552,0.447-1,1-1s1,0.448,1,1v13C79,28.552,78.553,29,78,29z" style="fill:#F5F5F5;"/><path d="M83,29c-0.553,0-1-0.448-1-1V15c0-0.552,0.447-1,1-1s1,0.448,1,1v13C84,28.552,83.553,29,83,29z" style="fill:#F5F5F5;"/></g><g><path d="M46,114c-0.553,0-1-0.448-1-1v-13c0-0.552,0.447-1,1-1s1,0.448,1,1v13      C47,113.552,46.553,114,46,114z" style="fill:#F5F5F5;"/><path d="M51,114c-0.553,0-1-0.448-1-1v-13c0-0.552,0.447-1,1-1s1,0.448,1,1v13      C52,113.552,51.553,114,51,114z" style="fill:#F5F5F5;"/><path d="M57,114c-0.553,0-1-0.448-1-1v-13c0-0.552,0.447-1,1-1s1,0.448,1,1v13      C58,113.552,57.553,114,57,114z" style="fill:#F5F5F5;"/><path d="M62,114c-0.553,0-1-0.448-1-1v-13c0-0.552,0.447-1,1-1s1,0.448,1,1v13      C63,113.552,62.553,114,62,114z" style="fill:#F5F5F5;"/><path d="M67,114c-0.553,0-1-0.448-1-1v-13c0-0.552,0.447-1,1-1s1,0.448,1,1v13      C68,113.552,67.553,114,67,114z" style="fill:#F5F5F5;"/><path d="M72,114c-0.553,0-1-0.448-1-1v-13c0-0.552,0.447-1,1-1s1,0.448,1,1v13      C73,113.552,72.553,114,72,114z" style="fill:#F5F5F5;"/><path d="M78,114c-0.553,0-1-0.448-1-1v-13c0-0.552,0.447-1,1-1s1,0.448,1,1v13      C79,113.552,78.553,114,78,114z" style="fill:#F5F5F5;"/><path d="M83,114c-0.553,0-1-0.448-1-1v-13c0-0.552,0.447-1,1-1s1,0.448,1,1v13      C84,113.552,83.553,114,83,114z" style="fill:#F5F5F5;"/></g></g><g><g><path d="M28,84H15c-0.553,0-1-0.448-1-1s0.447-1,1-1h13c0.553,0,1,0.448,1,1S28.553,84,28,84z" style="fill:#F5F5F5;"/><path d="M28,79H15c-0.553,0-1-0.448-1-1s0.447-1,1-1h13c0.553,0,1,0.448,1,1S28.553,79,28,79z" style="fill:#F5F5F5;"/><path d="M28,73H15c-0.553,0-1-0.448-1-1s0.447-1,1-1h13c0.553,0,1,0.448,1,1S28.553,73,28,73z" style="fill:#F5F5F5;"/><path d="M28,68H15c-0.553,0-1-0.448-1-1s0.447-1,1-1h13c0.553,0,1,0.448,1,1S28.553,68,28,68z" style="fill:#F5F5F5;"/><path d="M28,63H15c-0.553,0-1-0.448-1-1s0.447-1,1-1h13c0.553,0,1,0.448,1,1S28.553,63,28,63z" style="fill:#F5F5F5;"/><path d="M28,58H15c-0.553,0-1-0.448-1-1s0.447-1,1-1h13c0.553,0,1,0.448,1,1S28.553,58,28,58z" style="fill:#F5F5F5;"/><path d="M28,52H15c-0.553,0-1-0.448-1-1s0.447-1,1-1h13c0.553,0,1,0.448,1,1S28.553,52,28,52z" style="fill:#F5F5F5;"/><path d="M28,47H15c-0.553,0-1-0.448-1-1s0.447-1,1-1h13c0.553,0,1,0.448,1,1S28.553,47,28,47z" style="fill:#F5F5F5;"/></g><g><path d="M113,84h-13c-0.553,0-1-0.448-1-1s0.447-1,1-1h13c0.553,0,1,0.448,1,1S113.553,84,113,84z" style="fill:#F5F5F5;"/><path d="M113,79h-13c-0.553,0-1-0.448-1-1s0.447-1,1-1h13c0.553,0,1,0.448,1,1S113.553,79,113,79z" style="fill:#F5F5F5;"/><path d="M113,73h-13c-0.553,0-1-0.448-1-1s0.447-1,1-1h13c0.553,0,1,0.448,1,1S113.553,73,113,73z" style="fill:#F5F5F5;"/><path d="M113,68h-13c-0.553,0-1-0.448-1-1s0.447-1,1-1h13c0.553,0,1,0.448,1,1S113.553,68,113,68z" style="fill:#F5F5F5;"/><path d="M113,63h-13c-0.553,0-1-0.448-1-1s0.447-1,1-1h13c0.553,0,1,0.448,1,1S113.553,63,113,63z" style="fill:#F5F5F5;"/><path d="M113,58h-13c-0.553,0-1-0.448-1-1s0.447-1,1-1h13c0.553,0,1,0.448,1,1S113.553,58,113,58z" style="fill:#F5F5F5;"/><path d="M113,52h-13c-0.553,0-1-0.448-1-1s0.447-1,1-1h13c0.553,0,1,0.448,1,1S113.553,52,113,52z" style="fill:#F5F5F5;"/><path d="M113,47h-13c-0.553,0-1-0.448-1-1s0.447-1,1-1h13c0.553,0,1,0.448,1,1S113.553,47,113,47z" style="fill:#F5F5F5;"/></g></g></g><g><path d="M86,34v-4c0-1.1-0.9-2-2-2H44c-1.1,0-2,0.9-2,2v4H86z" style="fill:#CCCCCC;"/><path d="M86,94v4c0,1.1-0.9,2-2,2H44c-1.1,0-2-0.9-2-2v-4H86z" style="fill:#CCCCCC;"/></g><g><path d="M34,42h-4c-1.1,0-2,0.9-2,2v40c0,1.1,0.9,2,2,2h4V42z" style="fill:#CCCCCC;"/><path d="M94,42h4c1.101,0,2,0.9,2,2v40c0,1.1-0.899,2-2,2h-4V42z" style="fill:#CCCCCC;"/></g><g><rect height="1" style="fill:#B3B3B3;" width="44" x="42" y="33"/><rect height="1" style="fill:#B3B3B3;" width="44" x="42" y="94"/></g><g><rect height="44" style="fill:#B3B3B3;" width="1" x="33" y="42"/><rect height="44" style="fill:#B3B3B3;" width="1" x="94" y="42"/></g></g></svg>