<?xml version="1.0" encoding="UTF-8"?>
<svg xmlns="http://www.w3.org/2000/svg" xmlns:xlink="http://www.w3.org/1999/xlink" width="102.400002pt" height="102.400002pt" viewBox="0 0 102.400002 102.400002" version="1.1">
<g id="surface1">
<path style=" stroke:none;fill-rule:nonzero;fill:rgb(70%,70%,70%);fill-opacity:1;" d="M 51.199219 0 C 22.921875 0 0 22.921875 0 51.199219 C 0 79.476562 22.921875 102.398438 51.199219 102.398438 C 79.476562 102.398438 102.398438 79.476562 102.398438 51.199219 C 102.398438 22.921875 79.476562 0 51.199219 0 Z M 51.199219 0 "/>
<path style=" stroke:none;fill-rule:nonzero;fill:rgb(25%,25%,25%);fill-opacity:1;" d="M 75.199219 70.398438 C 75.199219 73.039062 73.039062 75.199219 70.398438 75.199219 L 32 75.199219 C 29.359375 75.199219 27.199219 73.039062 27.199219 70.398438 L 27.199219 32 C 27.199219 29.359375 29.359375 27.199219 32 27.199219 L 70.398438 27.199219 C 73.039062 27.199219 75.199219 29.359375 75.199219 32 Z M 75.199219 70.398438 "/>
<path style=" stroke:none;fill-rule:nonzero;fill:rgb(19%,19%,19%);fill-opacity:1;" d="M 70.398438 27.199219 L 67.199219 27.199219 C 69.839844 27.199219 72 29.359375 72 32 L 72 70.398438 C 72 73.039062 69.839844 75.199219 67.199219 75.199219 L 70.398438 75.199219 C 73.039062 75.199219 75.199219 73.039062 75.199219 70.398438 L 75.199219 32 C 75.199219 29.359375 73.039062 27.199219 70.398438 27.199219 Z M 70.398438 27.199219 "/>
<path style=" stroke:none;fill-rule:nonzero;fill:rgb(81%,81%,81%);fill-opacity:1;" d="M 71.199219 32 C 71.199219 32.441406 70.84375 32.800781 70.398438 32.800781 C 69.957031 32.800781 69.601562 32.441406 69.601562 32 C 69.601562 31.558594 69.957031 31.199219 70.398438 31.199219 C 70.84375 31.199219 71.199219 31.558594 71.199219 32 Z M 71.199219 32 "/>
<path style=" stroke:none;fill-rule:nonzero;fill:rgb(81%,81%,81%);fill-opacity:1;" d="M 32.800781 32 C 32.800781 32.441406 32.441406 32.800781 32 32.800781 C 31.558594 32.800781 31.199219 32.441406 31.199219 32 C 31.199219 31.558594 31.558594 31.199219 32 31.199219 C 32.441406 31.199219 32.800781 31.558594 32.800781 32 Z M 32.800781 32 "/>
<path style=" stroke:none;fill-rule:nonzero;fill:rgb(81%,81%,81%);fill-opacity:1;" d="M 71.199219 70.398438 C 71.199219 70.84375 70.84375 71.199219 70.398438 71.199219 C 69.957031 71.199219 69.601562 70.84375 69.601562 70.398438 C 69.601562 69.957031 69.957031 69.601562 70.398438 69.601562 C 70.84375 69.601562 71.199219 69.957031 71.199219 70.398438 Z M 71.199219 70.398438 "/>
<path style=" stroke:none;fill-rule:nonzero;fill:rgb(81%,81%,81%);fill-opacity:1;" d="M 32.800781 70.398438 C 32.800781 70.84375 32.441406 71.199219 32 71.199219 C 31.558594 71.199219 31.199219 70.84375 31.199219 70.398438 C 31.199219 69.957031 31.558594 69.601562 32 69.601562 C 32.441406 69.601562 32.800781 69.957031 32.800781 70.398438 Z M 32.800781 70.398438 "/>
<path style=" stroke:none;fill-rule:nonzero;fill:rgb(96%,96%,96%);fill-opacity:1;" d="M 36.800781 23.199219 C 36.359375 23.199219 36 22.839844 36 22.398438 L 36 12 C 36 11.558594 36.359375 11.199219 36.800781 11.199219 C 37.242188 11.199219 37.601562 11.558594 37.601562 12 L 37.601562 22.398438 C 37.601562 22.839844 37.242188 23.199219 36.800781 23.199219 Z M 36.800781 23.199219 "/>
<path style=" stroke:none;fill-rule:nonzero;fill:rgb(96%,96%,96%);fill-opacity:1;" d="M 40.800781 23.199219 C 40.359375 23.199219 40 22.839844 40 22.398438 L 40 12 C 40 11.558594 40.359375 11.199219 40.800781 11.199219 C 41.242188 11.199219 41.601562 11.558594 41.601562 12 L 41.601562 22.398438 C 41.601562 22.839844 41.242188 23.199219 40.800781 23.199219 Z M 40.800781 23.199219 "/>
<path style=" stroke:none;fill-rule:nonzero;fill:rgb(96%,96%,96%);fill-opacity:1;" d="M 45.601562 23.199219 C 45.15625 23.199219 44.800781 22.839844 44.800781 22.398438 L 44.800781 12 C 44.800781 11.558594 45.15625 11.199219 45.601562 11.199219 C 46.042969 11.199219 46.398438 11.558594 46.398438 12 L 46.398438 22.398438 C 46.398438 22.839844 46.042969 23.199219 45.601562 23.199219 Z M 45.601562 23.199219 "/>
<path style=" stroke:none;fill-rule:nonzero;fill:rgb(96%,96%,96%);fill-opacity:1;" d="M 49.601562 23.199219 C 49.15625 23.199219 48.800781 22.839844 48.800781 22.398438 L 48.800781 12 C 48.800781 11.558594 49.15625 11.199219 49.601562 11.199219 C 50.042969 11.199219 50.398438 11.558594 50.398438 12 L 50.398438 22.398438 C 50.398438 22.839844 50.042969 23.199219 49.601562 23.199219 Z M 49.601562 23.199219 "/>
<path style=" stroke:none;fill-rule:nonzero;fill:rgb(96%,96%,96%);fill-opacity:1;" d="M 53.601562 23.199219 C 53.15625 23.199219 52.800781 22.839844 52.800781 22.398438 L 52.800781 12 C 52.800781 11.558594 53.15625 11.199219 53.601562 11.199219 C 54.042969 11.199219 54.398438 11.558594 54.398438 12 L 54.398438 22.398438 C 54.398438 22.839844 54.042969 23.199219 53.601562 23.199219 Z M 53.601562 23.199219 "/>
<path style=" stroke:none;fill-rule:nonzero;fill:rgb(96%,96%,96%);fill-opacity:1;" d="M 57.601562 23.199219 C 57.15625 23.199219 56.800781 22.839844 56.800781 22.398438 L 56.800781 12 C 56.800781 11.558594 57.15625 11.199219 57.601562 11.199219 C 58.042969 11.199219 58.398438 11.558594 58.398438 12 L 58.398438 22.398438 C 58.398438 22.839844 58.042969 23.199219 57.601562 23.199219 Z M 57.601562 23.199219 "/>
<path style=" stroke:none;fill-rule:nonzero;fill:rgb(96%,96%,96%);fill-opacity:1;" d="M 62.398438 23.199219 C 61.957031 23.199219 61.601562 22.839844 61.601562 22.398438 L 61.601562 12 C 61.601562 11.558594 61.957031 11.199219 62.398438 11.199219 C 62.84375 11.199219 63.199219 11.558594 63.199219 12 L 63.199219 22.398438 C 63.199219 22.839844 62.84375 23.199219 62.398438 23.199219 Z M 62.398438 23.199219 "/>
<path style=" stroke:none;fill-rule:nonzero;fill:rgb(96%,96%,96%);fill-opacity:1;" d="M 66.398438 23.199219 C 65.957031 23.199219 65.601562 22.839844 65.601562 22.398438 L 65.601562 12 C 65.601562 11.558594 65.957031 11.199219 66.398438 11.199219 C 66.84375 11.199219 67.199219 11.558594 67.199219 12 L 67.199219 22.398438 C 67.199219 22.839844 66.84375 23.199219 66.398438 23.199219 Z M 66.398438 23.199219 "/>
<path style=" stroke:none;fill-rule:nonzero;fill:rgb(96%,96%,96%);fill-opacity:1;" d="M 36.800781 91.199219 C 36.359375 91.199219 36 90.839844 36 90.398438 L 36 80 C 36 79.558594 36.359375 79.199219 36.800781 79.199219 C 37.242188 79.199219 37.601562 79.558594 37.601562 80 L 37.601562 90.398438 C 37.601562 90.839844 37.242188 91.199219 36.800781 91.199219 Z M 36.800781 91.199219 "/>
<path style=" stroke:none;fill-rule:nonzero;fill:rgb(96%,96%,96%);fill-opacity:1;" d="M 40.800781 91.199219 C 40.359375 91.199219 40 90.839844 40 90.398438 L 40 80 C 40 79.558594 40.359375 79.199219 40.800781 79.199219 C 41.242188 79.199219 41.601562 79.558594 41.601562 80 L 41.601562 90.398438 C 41.601562 90.839844 41.242188 91.199219 40.800781 91.199219 Z M 40.800781 91.199219 "/>
<path style=" stroke:none;fill-rule:nonzero;fill:rgb(96%,96%,96%);fill-opacity:1;" d="M 45.601562 91.199219 C 45.15625 91.199219 44.800781 90.839844 44.800781 90.398438 L 44.800781 80 C 44.800781 79.558594 45.15625 79.199219 45.601562 79.199219 C 46.042969 79.199219 46.398438 79.558594 46.398438 80 L 46.398438 90.398438 C 46.398438 90.839844 46.042969 91.199219 45.601562 91.199219 Z M 45.601562 91.199219 "/>
<path style=" stroke:none;fill-rule:nonzero;fill:rgb(96%,96%,96%);fill-opacity:1;" d="M 49.601562 91.199219 C 49.15625 91.199219 48.800781 90.839844 48.800781 90.398438 L 48.800781 80 C 48.800781 79.558594 49.15625 79.199219 49.601562 79.199219 C 50.042969 79.199219 50.398438 79.558594 50.398438 80 L 50.398438 90.398438 C 50.398438 90.839844 50.042969 91.199219 49.601562 91.199219 Z M 49.601562 91.199219 "/>
<path style=" stroke:none;fill-rule:nonzero;fill:rgb(96%,96%,96%);fill-opacity:1;" d="M 53.601562 91.199219 C 53.15625 91.199219 52.800781 90.839844 52.800781 90.398438 L 52.800781 80 C 52.800781 79.558594 53.15625 79.199219 53.601562 79.199219 C 54.042969 79.199219 54.398438 79.558594 54.398438 80 L 54.398438 90.398438 C 54.398438 90.839844 54.042969 91.199219 53.601562 91.199219 Z M 53.601562 91.199219 "/>
<path style=" stroke:none;fill-rule:nonzero;fill:rgb(96%,96%,96%);fill-opacity:1;" d="M 57.601562 91.199219 C 57.15625 91.199219 56.800781 90.839844 56.800781 90.398438 L 56.800781 80 C 56.800781 79.558594 57.15625 79.199219 57.601562 79.199219 C 58.042969 79.199219 58.398438 79.558594 58.398438 80 L 58.398438 90.398438 C 58.398438 90.839844 58.042969 91.199219 57.601562 91.199219 Z M 57.601562 91.199219 "/>
<path style=" stroke:none;fill-rule:nonzero;fill:rgb(96%,96%,96%);fill-opacity:1;" d="M 62.398438 91.199219 C 61.957031 91.199219 61.601562 90.839844 61.601562 90.398438 L 61.601562 80 C 61.601562 79.558594 61.957031 79.199219 62.398438 79.199219 C 62.84375 79.199219 63.199219 79.558594 63.199219 80 L 63.199219 90.398438 C 63.199219 90.839844 62.84375 91.199219 62.398438 91.199219 Z M 62.398438 91.199219 "/>
<path style=" stroke:none;fill-rule:nonzero;fill:rgb(96%,96%,96%);fill-opacity:1;" d="M 66.398438 91.199219 C 65.957031 91.199219 65.601562 90.839844 65.601562 90.398438 L 65.601562 80 C 65.601562 79.558594 65.957031 79.199219 66.398438 79.199219 C 66.84375 79.199219 67.199219 79.558594 67.199219 80 L 67.199219 90.398438 C 67.199219 90.839844 66.84375 91.199219 66.398438 91.199219 Z M 66.398438 91.199219 "/>
<path style=" stroke:none;fill-rule:nonzero;fill:rgb(96%,96%,96%);fill-opacity:1;" d="M 22.398438 67.199219 L 12 67.199219 C 11.558594 67.199219 11.199219 66.839844 11.199219 66.398438 C 11.199219 65.957031 11.558594 65.601562 12 65.601562 L 22.398438 65.601562 C 22.84375 65.601562 23.199219 65.957031 23.199219 66.398438 C 23.199219 66.839844 22.84375 67.199219 22.398438 67.199219 Z M 22.398438 67.199219 "/>
<path style=" stroke:none;fill-rule:nonzero;fill:rgb(96%,96%,96%);fill-opacity:1;" d="M 22.398438 63.199219 L 12 63.199219 C 11.558594 63.199219 11.199219 62.839844 11.199219 62.398438 C 11.199219 61.957031 11.558594 61.601562 12 61.601562 L 22.398438 61.601562 C 22.84375 61.601562 23.199219 61.957031 23.199219 62.398438 C 23.199219 62.839844 22.84375 63.199219 22.398438 63.199219 Z M 22.398438 63.199219 "/>
<path style=" stroke:none;fill-rule:nonzero;fill:rgb(96%,96%,96%);fill-opacity:1;" d="M 22.398438 58.398438 L 12 58.398438 C 11.558594 58.398438 11.199219 58.042969 11.199219 57.601562 C 11.199219 57.160156 11.558594 56.800781 12 56.800781 L 22.398438 56.800781 C 22.84375 56.800781 23.199219 57.160156 23.199219 57.601562 C 23.199219 58.042969 22.84375 58.398438 22.398438 58.398438 Z M 22.398438 58.398438 "/>
<path style=" stroke:none;fill-rule:nonzero;fill:rgb(96%,96%,96%);fill-opacity:1;" d="M 22.398438 54.398438 L 12 54.398438 C 11.558594 54.398438 11.199219 54.042969 11.199219 53.601562 C 11.199219 53.160156 11.558594 52.800781 12 52.800781 L 22.398438 52.800781 C 22.84375 52.800781 23.199219 53.160156 23.199219 53.601562 C 23.199219 54.042969 22.84375 54.398438 22.398438 54.398438 Z M 22.398438 54.398438 "/>
<path style=" stroke:none;fill-rule:nonzero;fill:rgb(96%,96%,96%);fill-opacity:1;" d="M 22.398438 50.398438 L 12 50.398438 C 11.558594 50.398438 11.199219 50.042969 11.199219 49.601562 C 11.199219 49.160156 11.558594 48.800781 12 48.800781 L 22.398438 48.800781 C 22.84375 48.800781 23.199219 49.160156 23.199219 49.601562 C 23.199219 50.042969 22.84375 50.398438 22.398438 50.398438 Z M 22.398438 50.398438 "/>
<path style=" stroke:none;fill-rule:nonzero;fill:rgb(96%,96%,96%);fill-opacity:1;" d="M 22.398438 46.398438 L 12 46.398438 C 11.558594 46.398438 11.199219 46.042969 11.199219 45.601562 C 11.199219 45.160156 11.558594 44.800781 12 44.800781 L 22.398438 44.800781 C 22.84375 44.800781 23.199219 45.160156 23.199219 45.601562 C 23.199219 46.042969 22.84375 46.398438 22.398438 46.398438 Z M 22.398438 46.398438 "/>
<path style=" stroke:none;fill-rule:nonzero;fill:rgb(96%,96%,96%);fill-opacity:1;" d="M 22.398438 41.601562 L 12 41.601562 C 11.558594 41.601562 11.199219 41.242188 11.199219 40.800781 C 11.199219 40.359375 11.558594 40 12 40 L 22.398438 40 C 22.84375 40 23.199219 40.359375 23.199219 40.800781 C 23.199219 41.242188 22.84375 41.601562 22.398438 41.601562 Z M 22.398438 41.601562 "/>
<path style=" stroke:none;fill-rule:nonzero;fill:rgb(96%,96%,96%);fill-opacity:1;" d="M 22.398438 37.601562 L 12 37.601562 C 11.558594 37.601562 11.199219 37.242188 11.199219 36.800781 C 11.199219 36.359375 11.558594 36 12 36 L 22.398438 36 C 22.84375 36 23.199219 36.359375 23.199219 36.800781 C 23.199219 37.242188 22.84375 37.601562 22.398438 37.601562 Z M 22.398438 37.601562 "/>
<path style=" stroke:none;fill-rule:nonzero;fill:rgb(96%,96%,96%);fill-opacity:1;" d="M 90.398438 67.199219 L 80 67.199219 C 79.558594 67.199219 79.199219 66.839844 79.199219 66.398438 C 79.199219 65.957031 79.558594 65.601562 80 65.601562 L 90.398438 65.601562 C 90.84375 65.601562 91.199219 65.957031 91.199219 66.398438 C 91.199219 66.839844 90.84375 67.199219 90.398438 67.199219 Z M 90.398438 67.199219 "/>
<path style=" stroke:none;fill-rule:nonzero;fill:rgb(96%,96%,96%);fill-opacity:1;" d="M 90.398438 63.199219 L 80 63.199219 C 79.558594 63.199219 79.199219 62.839844 79.199219 62.398438 C 79.199219 61.957031 79.558594 61.601562 80 61.601562 L 90.398438 61.601562 C 90.84375 61.601562 91.199219 61.957031 91.199219 62.398438 C 91.199219 62.839844 90.84375 63.199219 90.398438 63.199219 Z M 90.398438 63.199219 "/>
<path style=" stroke:none;fill-rule:nonzero;fill:rgb(96%,96%,96%);fill-opacity:1;" d="M 90.398438 58.398438 L 80 58.398438 C 79.558594 58.398438 79.199219 58.042969 79.199219 57.601562 C 79.199219 57.160156 79.558594 56.800781 80 56.800781 L 90.398438 56.800781 C 90.84375 56.800781 91.199219 57.160156 91.199219 57.601562 C 91.199219 58.042969 90.84375 58.398438 90.398438 58.398438 Z M 90.398438 58.398438 "/>
<path style=" stroke:none;fill-rule:nonzero;fill:rgb(96%,96%,96%);fill-opacity:1;" d="M 90.398438 54.398438 L 80 54.398438 C 79.558594 54.398438 79.199219 54.042969 79.199219 53.601562 C 79.199219 53.160156 79.558594 52.800781 80 52.800781 L 90.398438 52.800781 C 90.84375 52.800781 91.199219 53.160156 91.199219 53.601562 C 91.199219 54.042969 90.84375 54.398438 90.398438 54.398438 Z M 90.398438 54.398438 "/>
<path style=" stroke:none;fill-rule:nonzero;fill:rgb(96%,96%,96%);fill-opacity:1;" d="M 90.398438 50.398438 L 80 50.398438 C 79.558594 50.398438 79.199219 50.042969 79.199219 49.601562 C 79.199219 49.160156 79.558594 48.800781 80 48.800781 L 90.398438 48.800781 C 90.84375 48.800781 91.199219 49.160156 91.199219 49.601562 C 91.199219 50.042969 90.84375 50.398438 90.398438 50.398438 Z M 90.398438 50.398438 "/>
<path style=" stroke:none;fill-rule:nonzero;fill:rgb(96%,96%,96%);fill-opacity:1;" d="M 90.398438 46.398438 L 80 46.398438 C 79.558594 46.398438 79.199219 46.042969 79.199219 45.601562 C 79.199219 45.160156 79.558594 44.800781 80 44.800781 L 90.398438 44.800781 C 90.84375 44.800781 91.199219 45.160156 91.199219 45.601562 C 91.199219 46.042969 90.84375 46.398438 90.398438 46.398438 Z M 90.398438 46.398438 "/>
<path style=" stroke:none;fill-rule:nonzero;fill:rgb(96%,96%,96%);fill-opacity:1;" d="M 90.398438 41.601562 L 80 41.601562 C 79.558594 41.601562 79.199219 41.242188 79.199219 40.800781 C 79.199219 40.359375 79.558594 40 80 40 L 90.398438 40 C 90.84375 40 91.199219 40.359375 91.199219 40.800781 C 91.199219 41.242188 90.84375 41.601562 90.398438 41.601562 Z M 90.398438 41.601562 "/>
<path style=" stroke:none;fill-rule:nonzero;fill:rgb(96%,96%,96%);fill-opacity:1;" d="M 90.398438 37.601562 L 80 37.601562 C 79.558594 37.601562 79.199219 37.242188 79.199219 36.800781 C 79.199219 36.359375 79.558594 36 80 36 L 90.398438 36 C 90.84375 36 91.199219 36.359375 91.199219 36.800781 C 91.199219 37.242188 90.84375 37.601562 90.398438 37.601562 Z M 90.398438 37.601562 "/>
<path style=" stroke:none;fill-rule:nonzero;fill:rgb(80%,80%,80%);fill-opacity:1;" d="M 68.800781 27.199219 L 68.800781 24 C 68.800781 23.121094 68.078125 22.398438 67.199219 22.398438 L 35.199219 22.398438 C 34.320312 22.398438 33.601562 23.121094 33.601562 24 L 33.601562 27.199219 Z M 68.800781 27.199219 "/>
<path style=" stroke:none;fill-rule:nonzero;fill:rgb(80%,80%,80%);fill-opacity:1;" d="M 68.800781 75.199219 L 68.800781 78.398438 C 68.800781 79.28125 68.078125 80 67.199219 80 L 35.199219 80 C 34.320312 80 33.601562 79.28125 33.601562 78.398438 L 33.601562 75.199219 Z M 68.800781 75.199219 "/>
<path style=" stroke:none;fill-rule:nonzero;fill:rgb(80%,80%,80%);fill-opacity:1;" d="M 27.199219 33.601562 L 24 33.601562 C 23.121094 33.601562 22.398438 34.320312 22.398438 35.199219 L 22.398438 67.199219 C 22.398438 68.078125 23.121094 68.800781 24 68.800781 L 27.199219 68.800781 Z M 27.199219 33.601562 "/>
<path style=" stroke:none;fill-rule:nonzero;fill:rgb(80%,80%,80%);fill-opacity:1;" d="M 75.199219 33.601562 L 78.398438 33.601562 C 79.28125 33.601562 80 34.320312 80 35.199219 L 80 67.199219 C 80 68.078125 79.28125 68.800781 78.398438 68.800781 L 75.199219 68.800781 Z M 75.199219 33.601562 "/>
<path style=" stroke:none;fill-rule:nonzero;fill:rgb(70%,70%,70%);fill-opacity:1;" d="M 33.601562 26.398438 L 68.800781 26.398438 L 68.800781 27.199219 L 33.601562 27.199219 Z M 33.601562 26.398438 "/>
<path style=" stroke:none;fill-rule:nonzero;fill:rgb(70%,70%,70%);fill-opacity:1;" d="M 33.601562 75.199219 L 68.800781 75.199219 L 68.800781 76 L 33.601562 76 Z M 33.601562 75.199219 "/>
<path style=" stroke:none;fill-rule:nonzero;fill:rgb(70%,70%,70%);fill-opacity:1;" d="M 26.398438 33.601562 L 27.199219 33.601562 L 27.199219 68.800781 L 26.398438 68.800781 Z M 26.398438 33.601562 "/>
<path style=" stroke:none;fill-rule:nonzero;fill:rgb(70%,70%,70%);fill-opacity:1;" d="M 75.199219 33.601562 L 76 33.601562 L 76 68.800781 L 75.199219 68.800781 Z M 75.199219 33.601562 "/>
</g>
</svg>
