<?xml version="1.0" ?><svg height="512" id="svg4156" version="1.1" width="512" xmlns="http://www.w3.org/2000/svg" xmlns:cc="http://creativecommons.org/ns#" xmlns:dc="http://purl.org/dc/elements/1.1/" xmlns:inkscape="http://www.inkscape.org/namespaces/inkscape" xmlns:rdf="http://www.w3.org/1999/02/22-rdf-syntax-ns#" xmlns:sodipodi="http://sodipodi.sourceforge.net/DTD/sodipodi-0.dtd" xmlns:svg="http://www.w3.org/2000/svg"><defs id="defs4158"/><g id="layer1" transform="translate(0,448)"><path d="M 256,-448 C 114.6151,-448 0,-333.383 0,-192 0,-50.613999 114.6151,64.000001 256,64.000001 c 141.3848,0 256,-114.614 256,-256.000001 0,-141.383 -114.6152,-256 -256,-256 z m -132,85.625 35.4375,0 a 8.000801,8.000801 0 0 1 3.5625,0.844 l 25.9375,12.937 51.5937,0 c 7.0309,0 13,5.894 13,12.969 l 0,68.312 c 0,7.076 -5.9691,12.969 -13,12.969 l -29.875,0 0,43.5 47.8438,0 0,-33.063 c 0,-7.074 5.9688,-12.937 13,-12.937 l 35.4375,0 A 8.000801,8.000801 0 0 1 310.5,-256 l 25.9688,12.937 51.5624,0 c 7.0309,0 13,5.894 13,12.969 l 0,68.313 c 0,7.075 -5.9691,12.937 -13,12.937 l -116.5312,0 c -7.0312,0 -13,-5.862 -13,-12.937 l 0,-33.063 -47.8438,0 0,109.156001 47.8438,0 0,-31.031001 c 0,-7.076 5.9688,-12.969 13,-12.969 l 35.4375,0 a 8.000801,8.000801 0 0 1 3.5625,0.844 l 25.9688,12.937 51.5624,0 c 7.0309,0 13,5.893 13,12.969 l 0,68.313 c 0,7.075 -5.971,12.968001 -13,12.968001 l -116.5312,0 c -7.0292,0 -13,-5.893 -13,-12.968001 l 0,-35.062999 -55.8438,0 a 8.000801,8.000801 0 0 1 -8,-8 l 0,-124.219001 a 8.000801,8.000801 0 0 1 0,-1.781 l 0,-50.656 -70.6562,0 c -7.0312,0 -13,-5.893 -13,-12.969 l 0,-82.094 c 0,-7.076 5.9688,-12.968 13,-12.968 z m 3,16 0,76.031 110.5312,0 0,-62.25 -50.4687,0 a 8.000801,8.000801 0 0 1 -3.5625,-0.844 l -25.9688,-12.937 -30.5312,0 z m 147.5,105.531 0,76 110.5312,0 0,-62.219 -50.4374,0 A 8.000801,8.000801 0 0 1 331,-227.907 l -25.9375,-12.937 -30.5625,0 z m 0,127.156 0,76.031001 110.5312,0 0,-62.25 -50.4374,0 A 8.000801,8.000801 0 0 1 331,-100.75 l -25.9375,-12.938 -30.5625,0 z" id="path35809" style="fill:#4d4d4d;fill-opacity:1;fill-rule:nonzero;stroke:none"/></g></svg>