<?xml version="1.0" ?><!DOCTYPE svg  PUBLIC '-//W3C//DTD SVG 1.1//EN'  'http://www.w3.org/Graphics/SVG/1.1/DTD/svg11.dtd'><svg enable-background="new 0 0 65 65" id="Layer_1" version="1.1" viewBox="0 0 65 65" xml:space="preserve" xmlns="http://www.w3.org/2000/svg" xmlns:xlink="http://www.w3.org/1999/xlink"><g><path d="M61.5,1.3h-58C1.4,1.3-0.2,3-0.2,5v58.7h65.5V5C65.3,3,63.6,1.3,61.5,1.3z M3.5,2.8h58c1.2,0,2.3,1,2.3,2.3v4H1.3V5   C1.3,3.8,2.3,2.8,3.5,2.8z M63.8,10.5v27.2H1.3V10.5H63.8z M1.3,62.2V39.1h62.5v23.1H1.3z"/><rect height="1.5" width="1.5" x="49.3" y="5.2"/><rect height="1.5" width="1.5" x="53.1" y="5.2"/><rect height="1.5" width="1.5" x="56.9" y="5.2"/><rect height="1.5" width="38.5" x="6.1" y="5.2"/><rect height="1.5" width="7.9" x="6.8" y="42.2"/><rect height="1.5" width="1.5" x="19.7" y="42.2"/><rect height="1.5" width="1.5" x="16.5" y="42.2"/><rect height="1.5" width="4.8" x="6.8" y="47"/><rect height="1.5" width="2.9" x="13.4" y="47"/><rect height="1.5" width="11.1" x="18.2" y="47"/><rect height="1.5" width="1.5" x="40.5" y="56.5"/><rect height="1.5" width="1.5" x="43.7" y="56.5"/><rect height="1.5" width="14.7" x="23.8" y="56.5"/><rect height="1.5" width="5.8" x="16.3" y="56.5"/><rect height="1.5" width="11.2" x="47" y="56.5"/><rect height="1.5" width="7.6" x="16.3" y="51.7"/><rect height="1.5" width="19.9" x="38.2" y="51.7"/><rect height="1.5" width="1.5" x="25.6" y="51.7"/><rect height="1.5" width="1.5" x="35.2" y="51.7"/><rect height="1.5" width="1.5" x="28.8" y="51.7"/><rect height="1.5" width="1.5" x="32" y="51.7"/><polygon points="10.5,21.5 9.5,21.5 9.5,15.7 8,15.7 8,16.3 7.1,16.3 7.1,17.8 8,17.8 8,21.5 7.1,21.5 7.1,23 10.5,23  "/><polygon points="30.3,21.5 29.3,21.5 29.3,15.7 27.8,15.7 27.8,16.3 26.9,16.3 26.9,17.8 27.8,17.8 27.8,21.5 26.9,21.5 26.9,23    30.3,23  "/><polygon points="16.6,21.5 15.7,21.5 15.7,15.7 14.2,15.7 14.2,16.3 13.3,16.3 13.3,17.8 14.2,17.8 14.2,21.5 13.3,21.5 13.3,23    16.6,23  "/><polygon points="44.2,21.5 43.3,21.5 43.3,15.7 41.8,15.7 41.8,16.3 40.9,16.3 40.9,17.8 41.8,17.8 41.8,21.5 40.9,21.5 40.9,23    44.2,23  "/><polygon points="51.1,21.5 50.2,21.5 50.2,15.7 48.7,15.7 48.7,16.3 47.7,16.3 47.7,17.8 48.7,17.8 48.7,21.5 47.7,21.5 47.7,23    51.1,23  "/><polygon points="57.9,21.5 57,21.5 57,15.7 55.5,15.7 55.5,16.3 54.5,16.3 54.5,17.8 55.5,17.8 55.5,21.5 54.5,21.5 54.5,23    57.9,23  "/><path d="M21.6,23.1c1.5,0,2.8-1.3,2.8-2.8v-2.1c0-1.5-1.3-2.8-2.8-2.8s-2.8,1.3-2.8,2.8v2.1C18.8,21.8,20.1,23.1,21.6,23.1z    M20.3,18.1c0-0.7,0.6-1.3,1.3-1.3c0.7,0,1.3,0.6,1.3,1.3v2.1c0,0.7-0.6,1.3-1.3,1.3c-0.7,0-1.3-0.6-1.3-1.3V18.1z"/><path d="M35.5,23.1c1.5,0,2.8-1.3,2.8-2.8v-2.1c0-1.5-1.3-2.8-2.8-2.8c-1.5,0-2.8,1.3-2.8,2.8v2.1C32.7,21.8,34,23.1,35.5,23.1z    M34.2,18.1c0-0.7,0.6-1.3,1.3-1.3c0.7,0,1.3,0.6,1.3,1.3v2.1c0,0.7-0.6,1.3-1.3,1.3c-0.7,0-1.3-0.6-1.3-1.3V18.1z"/><polygon points="7.1,31.8 7.1,33.3 10.5,33.3 10.5,31.8 9.5,31.8 9.5,26.1 8,26.1 8,26.6 7.1,26.6 7.1,28.1 8,28.1 8,31.8  "/><polygon points="23.2,26.1 21.7,26.1 21.7,26.6 20.8,26.6 20.8,28.1 21.7,28.1 21.7,31.8 20.8,31.8 20.8,33.3 24.1,33.3 24.1,31.8    23.2,31.8  "/><polygon points="29.8,26.1 28.3,26.1 28.3,26.6 27.4,26.6 27.4,28.1 28.3,28.1 28.3,31.8 27.4,31.8 27.4,33.3 30.8,33.3 30.8,31.8    29.8,31.8  "/><polygon points="43.9,26.1 42.4,26.1 42.4,26.6 41.5,26.6 41.5,28.1 42.4,28.1 42.4,31.8 41.5,31.8 41.5,33.3 44.8,33.3 44.8,31.8    43.9,31.8  "/><polygon points="57.9,31.8 57,31.8 57,26.1 55.5,26.1 55.5,26.6 54.5,26.6 54.5,28.1 55.5,28.1 55.5,31.8 54.5,31.8 54.5,33.3    57.9,33.3  "/><path d="M15.4,33.4c1.5,0,2.8-1.3,2.8-2.8v-2.1c0-1.5-1.3-2.8-2.8-2.8c-1.5,0-2.8,1.3-2.8,2.8v2.1C12.6,32.1,13.9,33.4,15.4,33.4z    M14.1,28.5c0-0.7,0.6-1.3,1.3-1.3c0.7,0,1.3,0.6,1.3,1.3v2.1c0,0.7-0.6,1.3-1.3,1.3c-0.7,0-1.3-0.6-1.3-1.3V28.5z"/><path d="M35.9,25.7c-1.5,0-2.8,1.3-2.8,2.8v2.1c0,1.5,1.3,2.8,2.8,2.8c1.5,0,2.8-1.3,2.8-2.8v-2.1C38.7,26.9,37.5,25.7,35.9,25.7z    M37.2,30.6c0,0.7-0.6,1.3-1.3,1.3c-0.7,0-1.3-0.6-1.3-1.3v-2.1c0-0.7,0.6-1.3,1.3-1.3c0.7,0,1.3,0.6,1.3,1.3V30.6z"/><path d="M49.5,33.4c1.5,0,2.8-1.3,2.8-2.8v-2.1c0-1.5-1.3-2.8-2.8-2.8c-1.5,0-2.8,1.3-2.8,2.8v2.1C46.7,32.1,48,33.4,49.5,33.4z    M48.2,28.5c0-0.7,0.6-1.3,1.3-1.3c0.7,0,1.3,0.6,1.3,1.3v2.1c0,0.7-0.6,1.3-1.3,1.3c-0.7,0-1.3-0.6-1.3-1.3V28.5z"/></g></svg>