<?xml version="1.0" encoding="UTF-8"?>
<svg xmlns="http://www.w3.org/2000/svg" xmlns:xlink="http://www.w3.org/1999/xlink" width="52pt" height="52pt" viewBox="0 0 52 52" version="1.1">
<g id="surface1">
<path style=" stroke:none;fill-rule:nonzero;fill:rgb(0%,0%,0%);fill-opacity:1;" d="M 49.199219 1.039062 L 2.800781 1.039062 C 1.121094 1.039062 -0.160156 2.398438 -0.160156 4 L -0.160156 50.960938 L 52.238281 50.960938 L 52.238281 4 C 52.238281 2.398438 50.878906 1.039062 49.199219 1.039062 Z M 2.800781 2.238281 L 49.199219 2.238281 C 50.160156 2.238281 51.039062 3.039062 51.039062 4.078125 L 51.039062 7.28125 L 1.039062 7.28125 L 1.039062 4 C 1.039062 3.039062 1.839844 2.238281 2.800781 2.238281 Z M 51.039062 8.398438 L 51.039062 30.160156 L 1.039062 30.160156 L 1.039062 8.398438 Z M 1.039062 49.761719 L 1.039062 31.28125 L 51.039062 31.28125 L 51.039062 49.761719 Z M 1.039062 49.761719 "/>
<path style=" stroke:none;fill-rule:nonzero;fill:rgb(0%,0%,0%);fill-opacity:1;" d="M 39.441406 4.160156 L 40.640625 4.160156 L 40.640625 5.359375 L 39.441406 5.359375 Z M 39.441406 4.160156 "/>
<path style=" stroke:none;fill-rule:nonzero;fill:rgb(0%,0%,0%);fill-opacity:1;" d="M 42.480469 4.160156 L 43.679688 4.160156 L 43.679688 5.359375 L 42.480469 5.359375 Z M 42.480469 4.160156 "/>
<path style=" stroke:none;fill-rule:nonzero;fill:rgb(0%,0%,0%);fill-opacity:1;" d="M 45.519531 4.160156 L 46.71875 4.160156 L 46.71875 5.359375 L 45.519531 5.359375 Z M 45.519531 4.160156 "/>
<path style=" stroke:none;fill-rule:nonzero;fill:rgb(0%,0%,0%);fill-opacity:1;" d="M 4.878906 4.160156 L 35.679688 4.160156 L 35.679688 5.359375 L 4.878906 5.359375 Z M 4.878906 4.160156 "/>
<path style=" stroke:none;fill-rule:nonzero;fill:rgb(0%,0%,0%);fill-opacity:1;" d="M 5.441406 33.761719 L 11.761719 33.761719 L 11.761719 34.960938 L 5.441406 34.960938 Z M 5.441406 33.761719 "/>
<path style=" stroke:none;fill-rule:nonzero;fill:rgb(0%,0%,0%);fill-opacity:1;" d="M 15.761719 33.761719 L 16.960938 33.761719 L 16.960938 34.960938 L 15.761719 34.960938 Z M 15.761719 33.761719 "/>
<path style=" stroke:none;fill-rule:nonzero;fill:rgb(0%,0%,0%);fill-opacity:1;" d="M 13.199219 33.761719 L 14.398438 33.761719 L 14.398438 34.960938 L 13.199219 34.960938 Z M 13.199219 33.761719 "/>
<path style=" stroke:none;fill-rule:nonzero;fill:rgb(0%,0%,0%);fill-opacity:1;" d="M 5.441406 37.601562 L 9.28125 37.601562 L 9.28125 38.800781 L 5.441406 38.800781 Z M 5.441406 37.601562 "/>
<path style=" stroke:none;fill-rule:nonzero;fill:rgb(0%,0%,0%);fill-opacity:1;" d="M 10.71875 37.601562 L 13.039062 37.601562 L 13.039062 38.800781 L 10.71875 38.800781 Z M 10.71875 37.601562 "/>
<path style=" stroke:none;fill-rule:nonzero;fill:rgb(0%,0%,0%);fill-opacity:1;" d="M 14.558594 37.601562 L 23.441406 37.601562 L 23.441406 38.800781 L 14.558594 38.800781 Z M 14.558594 37.601562 "/>
<path style=" stroke:none;fill-rule:nonzero;fill:rgb(0%,0%,0%);fill-opacity:1;" d="M 32.398438 45.199219 L 33.601562 45.199219 L 33.601562 46.398438 L 32.398438 46.398438 Z M 32.398438 45.199219 "/>
<path style=" stroke:none;fill-rule:nonzero;fill:rgb(0%,0%,0%);fill-opacity:1;" d="M 34.960938 45.199219 L 36.160156 45.199219 L 36.160156 46.398438 L 34.960938 46.398438 Z M 34.960938 45.199219 "/>
<path style=" stroke:none;fill-rule:nonzero;fill:rgb(0%,0%,0%);fill-opacity:1;" d="M 19.039062 45.199219 L 30.800781 45.199219 L 30.800781 46.398438 L 19.039062 46.398438 Z M 19.039062 45.199219 "/>
<path style=" stroke:none;fill-rule:nonzero;fill:rgb(0%,0%,0%);fill-opacity:1;" d="M 13.039062 45.199219 L 17.679688 45.199219 L 17.679688 46.398438 L 13.039062 46.398438 Z M 13.039062 45.199219 "/>
<path style=" stroke:none;fill-rule:nonzero;fill:rgb(0%,0%,0%);fill-opacity:1;" d="M 37.601562 45.199219 L 46.558594 45.199219 L 46.558594 46.398438 L 37.601562 46.398438 Z M 37.601562 45.199219 "/>
<path style=" stroke:none;fill-rule:nonzero;fill:rgb(0%,0%,0%);fill-opacity:1;" d="M 13.039062 41.359375 L 19.121094 41.359375 L 19.121094 42.558594 L 13.039062 42.558594 Z M 13.039062 41.359375 "/>
<path style=" stroke:none;fill-rule:nonzero;fill:rgb(0%,0%,0%);fill-opacity:1;" d="M 30.558594 41.359375 L 46.480469 41.359375 L 46.480469 42.558594 L 30.558594 42.558594 Z M 30.558594 41.359375 "/>
<path style=" stroke:none;fill-rule:nonzero;fill:rgb(0%,0%,0%);fill-opacity:1;" d="M 20.480469 41.359375 L 21.679688 41.359375 L 21.679688 42.558594 L 20.480469 42.558594 Z M 20.480469 41.359375 "/>
<path style=" stroke:none;fill-rule:nonzero;fill:rgb(0%,0%,0%);fill-opacity:1;" d="M 28.160156 41.359375 L 29.359375 41.359375 L 29.359375 42.558594 L 28.160156 42.558594 Z M 28.160156 41.359375 "/>
<path style=" stroke:none;fill-rule:nonzero;fill:rgb(0%,0%,0%);fill-opacity:1;" d="M 23.039062 41.359375 L 24.238281 41.359375 L 24.238281 42.558594 L 23.039062 42.558594 Z M 23.039062 41.359375 "/>
<path style=" stroke:none;fill-rule:nonzero;fill:rgb(0%,0%,0%);fill-opacity:1;" d="M 25.601562 41.359375 L 26.800781 41.359375 L 26.800781 42.558594 L 25.601562 42.558594 Z M 25.601562 41.359375 "/>
<path style=" stroke:none;fill-rule:nonzero;fill:rgb(0%,0%,0%);fill-opacity:1;" d="M 8.398438 17.199219 L 7.601562 17.199219 L 7.601562 12.558594 L 6.398438 12.558594 L 6.398438 13.039062 L 5.679688 13.039062 L 5.679688 14.238281 L 6.398438 14.238281 L 6.398438 17.199219 L 5.679688 17.199219 L 5.679688 18.398438 L 8.398438 18.398438 Z M 8.398438 17.199219 "/>
<path style=" stroke:none;fill-rule:nonzero;fill:rgb(0%,0%,0%);fill-opacity:1;" d="M 24.238281 17.199219 L 23.441406 17.199219 L 23.441406 12.558594 L 22.238281 12.558594 L 22.238281 13.039062 L 21.519531 13.039062 L 21.519531 14.238281 L 22.238281 14.238281 L 22.238281 17.199219 L 21.519531 17.199219 L 21.519531 18.398438 L 24.238281 18.398438 Z M 24.238281 17.199219 "/>
<path style=" stroke:none;fill-rule:nonzero;fill:rgb(0%,0%,0%);fill-opacity:1;" d="M 13.28125 17.199219 L 12.558594 17.199219 L 12.558594 12.558594 L 11.359375 12.558594 L 11.359375 13.039062 L 10.640625 13.039062 L 10.640625 14.238281 L 11.359375 14.238281 L 11.359375 17.199219 L 10.640625 17.199219 L 10.640625 18.398438 L 13.28125 18.398438 Z M 13.28125 17.199219 "/>
<path style=" stroke:none;fill-rule:nonzero;fill:rgb(0%,0%,0%);fill-opacity:1;" d="M 35.359375 17.199219 L 34.640625 17.199219 L 34.640625 12.558594 L 33.441406 12.558594 L 33.441406 13.039062 L 32.71875 13.039062 L 32.71875 14.238281 L 33.441406 14.238281 L 33.441406 17.199219 L 32.71875 17.199219 L 32.71875 18.398438 L 35.359375 18.398438 Z M 35.359375 17.199219 "/>
<path style=" stroke:none;fill-rule:nonzero;fill:rgb(0%,0%,0%);fill-opacity:1;" d="M 40.878906 17.199219 L 40.160156 17.199219 L 40.160156 12.558594 L 38.960938 12.558594 L 38.960938 13.039062 L 38.160156 13.039062 L 38.160156 14.238281 L 38.960938 14.238281 L 38.960938 17.199219 L 38.160156 17.199219 L 38.160156 18.398438 L 40.878906 18.398438 Z M 40.878906 17.199219 "/>
<path style=" stroke:none;fill-rule:nonzero;fill:rgb(0%,0%,0%);fill-opacity:1;" d="M 46.320312 17.199219 L 45.601562 17.199219 L 45.601562 12.558594 L 44.398438 12.558594 L 44.398438 13.039062 L 43.601562 13.039062 L 43.601562 14.238281 L 44.398438 14.238281 L 44.398438 17.199219 L 43.601562 17.199219 L 43.601562 18.398438 L 46.320312 18.398438 Z M 46.320312 17.199219 "/>
<path style=" stroke:none;fill-rule:nonzero;fill:rgb(0%,0%,0%);fill-opacity:1;" d="M 17.28125 18.480469 C 18.480469 18.480469 19.519531 17.441406 19.519531 16.238281 L 19.519531 14.558594 C 19.519531 13.359375 18.480469 12.320312 17.28125 12.320312 C 16.078125 12.320312 15.039062 13.359375 15.039062 14.558594 L 15.039062 16.238281 C 15.039062 17.441406 16.078125 18.480469 17.28125 18.480469 Z M 16.238281 14.480469 C 16.238281 13.921875 16.71875 13.441406 17.28125 13.441406 C 17.839844 13.441406 18.320312 13.921875 18.320312 14.480469 L 18.320312 16.160156 C 18.320312 16.71875 17.839844 17.199219 17.28125 17.199219 C 16.71875 17.199219 16.238281 16.71875 16.238281 16.160156 Z M 16.238281 14.480469 "/>
<path style=" stroke:none;fill-rule:nonzero;fill:rgb(0%,0%,0%);fill-opacity:1;" d="M 28.398438 18.480469 C 29.601562 18.480469 30.640625 17.441406 30.640625 16.238281 L 30.640625 14.558594 C 30.640625 13.359375 29.601562 12.320312 28.398438 12.320312 C 27.199219 12.320312 26.160156 13.359375 26.160156 14.558594 L 26.160156 16.238281 C 26.160156 17.441406 27.199219 18.480469 28.398438 18.480469 Z M 27.359375 14.480469 C 27.359375 13.921875 27.839844 13.441406 28.398438 13.441406 C 28.960938 13.441406 29.441406 13.921875 29.441406 14.480469 L 29.441406 16.160156 C 29.441406 16.71875 28.960938 17.199219 28.398438 17.199219 C 27.839844 17.199219 27.359375 16.71875 27.359375 16.160156 Z M 27.359375 14.480469 "/>
<path style=" stroke:none;fill-rule:nonzero;fill:rgb(0%,0%,0%);fill-opacity:1;" d="M 5.679688 25.441406 L 5.679688 26.640625 L 8.398438 26.640625 L 8.398438 25.441406 L 7.601562 25.441406 L 7.601562 20.878906 L 6.398438 20.878906 L 6.398438 21.28125 L 5.679688 21.28125 L 5.679688 22.480469 L 6.398438 22.480469 L 6.398438 25.441406 Z M 5.679688 25.441406 "/>
<path style=" stroke:none;fill-rule:nonzero;fill:rgb(0%,0%,0%);fill-opacity:1;" d="M 18.558594 20.878906 L 17.359375 20.878906 L 17.359375 21.28125 L 16.640625 21.28125 L 16.640625 22.480469 L 17.359375 22.480469 L 17.359375 25.441406 L 16.640625 25.441406 L 16.640625 26.640625 L 19.28125 26.640625 L 19.28125 25.441406 L 18.558594 25.441406 Z M 18.558594 20.878906 "/>
<path style=" stroke:none;fill-rule:nonzero;fill:rgb(0%,0%,0%);fill-opacity:1;" d="M 23.839844 20.878906 L 22.640625 20.878906 L 22.640625 21.28125 L 21.921875 21.28125 L 21.921875 22.480469 L 22.640625 22.480469 L 22.640625 25.441406 L 21.921875 25.441406 L 21.921875 26.640625 L 24.640625 26.640625 L 24.640625 25.441406 L 23.839844 25.441406 Z M 23.839844 20.878906 "/>
<path style=" stroke:none;fill-rule:nonzero;fill:rgb(0%,0%,0%);fill-opacity:1;" d="M 35.121094 20.878906 L 33.921875 20.878906 L 33.921875 21.28125 L 33.199219 21.28125 L 33.199219 22.480469 L 33.921875 22.480469 L 33.921875 25.441406 L 33.199219 25.441406 L 33.199219 26.640625 L 35.839844 26.640625 L 35.839844 25.441406 L 35.121094 25.441406 Z M 35.121094 20.878906 "/>
<path style=" stroke:none;fill-rule:nonzero;fill:rgb(0%,0%,0%);fill-opacity:1;" d="M 46.320312 25.441406 L 45.601562 25.441406 L 45.601562 20.878906 L 44.398438 20.878906 L 44.398438 21.28125 L 43.601562 21.28125 L 43.601562 22.480469 L 44.398438 22.480469 L 44.398438 25.441406 L 43.601562 25.441406 L 43.601562 26.640625 L 46.320312 26.640625 Z M 46.320312 25.441406 "/>
<path style=" stroke:none;fill-rule:nonzero;fill:rgb(0%,0%,0%);fill-opacity:1;" d="M 12.320312 26.71875 C 13.519531 26.71875 14.558594 25.679688 14.558594 24.480469 L 14.558594 22.800781 C 14.558594 21.601562 13.519531 20.558594 12.320312 20.558594 C 11.121094 20.558594 10.078125 21.601562 10.078125 22.800781 L 10.078125 24.480469 C 10.078125 25.679688 11.121094 26.71875 12.320312 26.71875 Z M 11.28125 22.800781 C 11.28125 22.238281 11.761719 21.761719 12.320312 21.761719 C 12.878906 21.761719 13.359375 22.238281 13.359375 22.800781 L 13.359375 24.480469 C 13.359375 25.039062 12.878906 25.519531 12.320312 25.519531 C 11.761719 25.519531 11.28125 25.039062 11.28125 24.480469 Z M 11.28125 22.800781 "/>
<path style=" stroke:none;fill-rule:nonzero;fill:rgb(0%,0%,0%);fill-opacity:1;" d="M 28.71875 20.558594 C 27.519531 20.558594 26.480469 21.601562 26.480469 22.800781 L 26.480469 24.480469 C 26.480469 25.679688 27.519531 26.71875 28.71875 26.71875 C 29.921875 26.71875 30.960938 25.679688 30.960938 24.480469 L 30.960938 22.800781 C 30.960938 21.519531 30 20.558594 28.71875 20.558594 Z M 29.761719 24.480469 C 29.761719 25.039062 29.28125 25.519531 28.71875 25.519531 C 28.160156 25.519531 27.679688 25.039062 27.679688 24.480469 L 27.679688 22.800781 C 27.679688 22.238281 28.160156 21.761719 28.71875 21.761719 C 29.28125 21.761719 29.761719 22.238281 29.761719 22.800781 Z M 29.761719 24.480469 "/>
<path style=" stroke:none;fill-rule:nonzero;fill:rgb(0%,0%,0%);fill-opacity:1;" d="M 39.601562 26.71875 C 40.800781 26.71875 41.839844 25.679688 41.839844 24.480469 L 41.839844 22.800781 C 41.839844 21.601562 40.800781 20.558594 39.601562 20.558594 C 38.398438 20.558594 37.359375 21.601562 37.359375 22.800781 L 37.359375 24.480469 C 37.359375 25.679688 38.398438 26.71875 39.601562 26.71875 Z M 38.558594 22.800781 C 38.558594 22.238281 39.039062 21.761719 39.601562 21.761719 C 40.160156 21.761719 40.640625 22.238281 40.640625 22.800781 L 40.640625 24.480469 C 40.640625 25.039062 40.160156 25.519531 39.601562 25.519531 C 39.039062 25.519531 38.558594 25.039062 38.558594 24.480469 Z M 38.558594 22.800781 "/>
</g>
</svg>
