<?xml version="1.0" encoding="UTF-8"?>
<svg xmlns="http://www.w3.org/2000/svg" xmlns:xlink="http://www.w3.org/1999/xlink" width="102.400002pt" height="102.400002pt" viewBox="0 0 102.400002 102.400002" version="1.1">
<g id="surface1">
<path style=" stroke:none;fill-rule:nonzero;fill:rgb(23%,23%,23%);fill-opacity:1;" d="M 35.601562 9.359375 C 36.71875 9.359375 37.601562 9.441406 39.199219 9.601562 L 39.199219 15.121094 L 41.441406 15.761719 C 42.800781 16.160156 44.160156 16.71875 45.359375 17.441406 L 47.441406 18.558594 L 51.359375 14.640625 C 53.199219 16.078125 54.878906 17.679688 56.238281 19.519531 L 54 21.761719 L 52.320312 23.441406 L 53.441406 25.519531 C 54.160156 26.800781 54.640625 28.160156 55.121094 29.519531 L 55.761719 31.839844 L 61.28125 31.839844 C 61.441406 32.640625 61.519531 34.320312 61.519531 35.441406 C 61.519531 36.558594 61.519531 37.601562 61.359375 39.199219 L 55.839844 39.199219 L 55.199219 41.28125 C 54.800781 42.640625 54.238281 43.921875 53.519531 45.199219 L 52.398438 47.28125 L 54.078125 48.960938 L 56.320312 51.199219 C 54.878906 53.039062 53.28125 54.71875 51.441406 56.078125 L 49.199219 53.839844 L 47.519531 52.160156 L 45.441406 53.28125 C 44.160156 54 42.878906 54.480469 41.519531 54.960938 L 39.199219 55.601562 L 39.199219 61.121094 C 37.601562 61.28125 36.71875 61.359375 35.601562 61.359375 C 34.480469 61.359375 33.601562 61.28125 32 61.121094 L 32 55.601562 L 29.761719 54.960938 C 28.398438 54.558594 27.039062 54 25.839844 53.28125 L 23.761719 52.160156 L 22.078125 53.839844 L 19.839844 56 C 18 54.558594 16.320312 52.960938 14.960938 51.121094 L 17.199219 48.878906 L 18.878906 47.199219 L 17.761719 45.121094 C 17.039062 43.839844 16.558594 42.71875 16.078125 41.28125 L 15.359375 39.199219 L 9.839844 39.199219 C 9.679688 37.601562 9.601562 36.71875 9.601562 35.601562 C 9.601562 34.480469 9.679688 32.800781 9.839844 32 L 15.359375 32 L 16 29.679688 C 16.398438 28.320312 16.960938 26.878906 17.679688 25.679688 L 18.800781 23.601562 L 14.878906 19.679688 C 16.320312 17.839844 17.921875 16.160156 19.761719 14.800781 L 23.679688 18.71875 L 25.761719 17.601562 C 27.039062 16.878906 28.320312 16.398438 29.679688 15.921875 L 31.921875 15.28125 L 31.921875 9.601562 C 33.601562 9.441406 34.480469 9.359375 35.601562 9.359375 M 35.601562 6.160156 C 33.28125 6.160156 31.199219 6.398438 28.800781 6.960938 L 28.800781 12.800781 C 27.199219 13.28125 25.679688 13.921875 24.238281 14.71875 L 20.160156 10.640625 C 16.320312 13.039062 13.121094 16.238281 10.71875 20.078125 L 14.800781 24.238281 C 14 25.679688 13.359375 27.28125 12.878906 28.878906 L 7.199219 28.878906 C 6.71875 31.28125 6.398438 33.359375 6.398438 35.679688 C 6.398438 37.921875 6.640625 40 7.199219 42.398438 L 13.039062 42.398438 C 13.519531 44 14.160156 45.359375 14.960938 46.800781 L 10.878906 50.800781 C 13.28125 54.640625 16.480469 57.839844 20.320312 60.160156 L 24.320312 56 C 25.761719 56.800781 27.28125 57.441406 28.878906 57.921875 L 28.878906 63.761719 C 31.28125 64.238281 33.359375 64.558594 35.679688 64.558594 C 38 64.558594 40.078125 64.320312 42.480469 63.761719 L 42.480469 57.921875 C 44.078125 57.441406 45.601562 56.800781 47.039062 56 L 51.121094 60.078125 C 54.960938 57.679688 58.160156 54.480469 60.558594 50.640625 L 56.480469 46.71875 C 57.28125 45.28125 57.921875 43.921875 58.398438 42.320312 L 64 42.320312 C 64.480469 39.921875 64.800781 37.839844 64.800781 35.519531 C 64.800781 33.199219 64.558594 31.121094 64 28.71875 L 58.160156 28.71875 C 57.679688 27.121094 57.039062 25.519531 56.238281 24.078125 L 60.320312 19.921875 C 57.921875 16.078125 54.71875 12.878906 50.878906 10.480469 L 46.878906 14.558594 C 45.441406 13.761719 43.921875 13.121094 42.320312 12.640625 L 42.320312 6.960938 C 40 6.398438 37.921875 6.160156 35.601562 6.160156 Z M 35.601562 6.160156 "/>
<path style=" stroke:none;fill-rule:nonzero;fill:rgb(51%,51%,51%);fill-opacity:1;" d="M 35.601562 20.800781 C 27.519531 20.800781 20.960938 27.359375 20.960938 35.441406 C 20.960938 43.519531 27.519531 50.078125 35.601562 50.078125 C 43.679688 50.078125 50.238281 43.519531 50.238281 35.441406 C 50.238281 27.359375 43.679688 20.800781 35.601562 20.800781 Z M 35.601562 48.398438 C 28.398438 48.398438 22.558594 42.558594 22.558594 35.359375 C 22.558594 28.160156 28.398438 22.398438 35.601562 22.398438 C 42.800781 22.398438 48.640625 28.238281 48.640625 35.441406 C 48.640625 42.640625 42.800781 48.398438 35.601562 48.398438 Z M 35.601562 48.398438 "/>
<path style=" stroke:none;fill-rule:nonzero;fill:rgb(51%,51%,51%);fill-opacity:1;" d="M 79.441406 45.199219 C 79.839844 45.199219 80.160156 45.28125 80.558594 45.28125 C 80.960938 45.359375 81.28125 45.359375 81.679688 45.441406 L 81.519531 46.398438 L 81.199219 48.800781 L 83.359375 49.761719 C 84.160156 50.078125 84.878906 50.558594 85.601562 51.039062 L 87.519531 52.480469 L 89.441406 51.039062 L 90.238281 50.398438 C 90.71875 50.960938 91.199219 51.519531 91.601562 52.160156 L 90.800781 52.800781 L 88.878906 54.238281 L 89.761719 56.480469 C 90.078125 57.28125 90.320312 58.078125 90.398438 58.960938 L 90.800781 61.359375 L 93.199219 61.679688 L 94.160156 61.839844 C 94.160156 62.238281 94.078125 62.558594 94.078125 62.960938 C 94 63.359375 94 63.679688 93.921875 64.078125 L 92.960938 63.921875 L 90.558594 63.601562 L 89.601562 65.601562 C 89.28125 66.398438 88.800781 67.121094 88.320312 67.839844 L 86.878906 69.761719 L 88.320312 71.679688 L 88.960938 72.480469 C 88.398438 72.960938 87.839844 73.441406 87.199219 73.839844 L 86.558594 73.039062 L 85.121094 71.121094 L 82.878906 72 C 82.078125 72.320312 81.28125 72.558594 80.398438 72.640625 L 78 73.039062 L 77.679688 75.441406 L 77.519531 76.398438 C 77.121094 76.398438 76.800781 76.320312 76.398438 76.320312 C 76 76.238281 75.679688 76.238281 75.28125 76.160156 L 75.441406 75.199219 L 75.761719 72.800781 L 73.601562 71.839844 C 72.800781 71.519531 72.078125 71.039062 71.359375 70.558594 L 69.441406 69.121094 L 67.519531 70.558594 L 66.71875 71.199219 C 66.238281 70.640625 65.761719 70.078125 65.359375 69.441406 L 66.160156 68.800781 L 68.078125 67.359375 L 67.199219 65.121094 C 66.878906 64.320312 66.640625 63.519531 66.558594 62.640625 L 66.160156 60.238281 L 63.761719 59.921875 L 62.800781 59.761719 C 62.800781 59.359375 62.878906 59.039062 62.878906 58.640625 C 62.960938 58.238281 62.960938 57.921875 63.039062 57.519531 L 64 57.679688 L 66.398438 58 L 67.359375 55.839844 C 67.679688 55.039062 68.160156 54.320312 68.640625 53.601562 L 70.078125 51.679688 L 68.800781 50 L 68.160156 49.199219 C 68.71875 48.71875 69.28125 48.238281 69.921875 47.839844 L 70.558594 48.640625 L 72 50.558594 L 74.238281 49.679688 C 75.039062 49.359375 75.839844 49.121094 76.71875 49.039062 L 79.121094 48.640625 L 79.441406 46.238281 L 79.441406 45.199219 M 78.640625 42 C 78 42 77.28125 42 76.640625 42.078125 L 76.160156 45.761719 C 75.121094 45.921875 74.078125 46.238281 73.039062 46.640625 L 70.71875 43.679688 C 68.078125 44.878906 65.761719 46.71875 63.921875 48.960938 L 66.238281 51.921875 C 65.601562 52.800781 65.121094 53.679688 64.640625 54.71875 L 60.960938 54.238281 C 60.480469 55.601562 60.078125 56.960938 59.921875 58.398438 C 59.761719 59.839844 59.761719 61.28125 59.839844 62.71875 L 63.519531 63.199219 C 63.679688 64.238281 64 65.28125 64.398438 66.320312 L 61.441406 68.640625 C 62.640625 71.28125 64.480469 73.601562 66.71875 75.441406 L 69.679688 73.121094 C 70.558594 73.761719 71.441406 74.238281 72.480469 74.71875 L 72.078125 78.398438 C 73.441406 78.878906 74.800781 79.28125 76.238281 79.441406 C 77.039062 79.519531 77.839844 79.601562 78.558594 79.601562 C 79.199219 79.601562 79.921875 79.601562 80.558594 79.519531 L 81.039062 75.839844 C 82.078125 75.679688 83.121094 75.359375 84.160156 74.960938 L 86.480469 77.921875 C 89.121094 76.71875 91.441406 74.878906 93.28125 72.640625 L 90.960938 69.679688 C 91.601562 68.800781 92.078125 67.921875 92.558594 66.878906 L 96.238281 67.359375 C 96.71875 66 97.121094 64.640625 97.28125 63.199219 C 97.441406 61.761719 97.441406 60.320312 97.359375 58.878906 L 93.601562 58.398438 C 93.441406 57.359375 93.121094 56.320312 92.71875 55.28125 L 95.679688 52.960938 C 94.480469 50.320312 92.640625 48 90.398438 46.160156 L 87.441406 48.480469 C 86.558594 47.839844 85.679688 47.359375 84.640625 46.878906 L 85.121094 43.199219 C 83.761719 42.71875 82.398438 42.320312 80.960938 42.160156 C 80.160156 42.078125 79.359375 42 78.640625 42 Z M 78.640625 42 "/>
<path style=" stroke:none;fill-rule:nonzero;fill:rgb(23%,23%,23%);fill-opacity:1;" d="M 79.679688 52.398438 C 75.039062 51.839844 70.800781 55.121094 70.238281 59.679688 C 69.679688 64.320312 72.960938 68.558594 77.519531 69.121094 C 82.160156 69.679688 86.398438 66.398438 86.960938 61.839844 C 87.601562 57.199219 84.320312 53.039062 79.679688 52.398438 Z M 85.359375 61.679688 C 84.960938 65.121094 82 67.679688 78.558594 67.679688 C 78.238281 67.679688 78 67.679688 77.679688 67.601562 C 75.839844 67.359375 74.238281 66.480469 73.121094 65.039062 C 72 63.601562 71.519531 61.839844 71.761719 60 C 72.160156 56.558594 75.121094 54 78.558594 54 C 78.878906 54 79.121094 54 79.441406 54.078125 C 81.28125 54.320312 82.878906 55.199219 84 56.640625 C 85.121094 58.078125 85.601562 59.839844 85.359375 61.679688 Z M 85.359375 61.679688 "/>
<path style=" stroke:none;fill-rule:nonzero;fill:rgb(23%,23%,23%);fill-opacity:1;" d="M 59.441406 80.71875 L 60.878906 81.359375 C 61.199219 81.519531 61.519531 81.679688 61.839844 81.921875 L 63.121094 82.800781 L 63.679688 84.238281 C 63.839844 84.558594 63.921875 84.960938 64 85.28125 L 64.238281 86.800781 L 63.601562 88.238281 C 63.441406 88.558594 63.28125 88.878906 63.039062 89.199219 L 62.160156 90.480469 L 60.71875 91.039062 C 60.398438 91.199219 60 91.28125 59.679688 91.359375 L 58.160156 91.601562 L 56.71875 90.960938 C 56.398438 90.800781 56.078125 90.640625 55.761719 90.398438 L 54.480469 89.519531 L 53.921875 88.078125 C 53.761719 87.761719 53.679688 87.359375 53.601562 87.039062 L 53.359375 85.519531 L 54 84.078125 C 54.160156 83.761719 54.320312 83.441406 54.558594 83.121094 L 55.441406 81.839844 L 56.878906 81.28125 C 57.199219 81.121094 57.601562 81.039062 57.921875 80.960938 L 59.441406 80.71875 M 58.71875 75.679688 C 58.320312 75.679688 58 75.679688 57.601562 75.761719 L 57.359375 77.839844 C 56.800781 77.921875 56.160156 78.078125 55.601562 78.320312 L 54.398438 76.640625 C 52.960938 77.28125 51.601562 78.320312 50.640625 79.601562 L 51.921875 81.28125 C 51.601562 81.761719 51.28125 82.320312 51.039062 82.800781 L 48.960938 82.558594 C 48.71875 83.28125 48.480469 84.078125 48.398438 84.878906 C 48.320312 85.679688 48.320312 86.480469 48.398438 87.28125 L 50.480469 87.519531 C 50.558594 88.078125 50.71875 88.71875 50.960938 89.28125 L 49.28125 90.558594 C 49.921875 92 50.960938 93.359375 52.238281 94.320312 L 53.921875 93.039062 C 54.398438 93.359375 54.960938 93.679688 55.441406 93.921875 L 55.199219 96 C 55.921875 96.238281 56.71875 96.480469 57.519531 96.558594 C 57.921875 96.640625 58.398438 96.640625 58.800781 96.640625 C 59.199219 96.640625 59.519531 96.640625 59.921875 96.558594 L 60.160156 94.480469 C 60.71875 94.398438 61.359375 94.238281 61.921875 94 L 63.199219 95.679688 C 64.640625 95.039062 66 94 66.960938 92.71875 L 65.679688 91.039062 C 66 90.558594 66.320312 90 66.558594 89.519531 L 68.640625 89.761719 C 68.878906 89.039062 69.121094 88.238281 69.199219 87.441406 C 69.28125 86.640625 69.28125 85.839844 69.199219 85.039062 L 67.121094 84.800781 C 67.039062 84.238281 66.878906 83.601562 66.640625 83.039062 L 68.320312 81.761719 C 67.679688 80.320312 66.640625 78.960938 65.359375 78 L 63.679688 79.28125 C 63.199219 78.960938 62.640625 78.640625 62.160156 78.398438 L 62.398438 76.320312 C 61.679688 76.078125 60.878906 75.839844 60.078125 75.761719 C 59.601562 75.761719 59.199219 75.679688 58.71875 75.679688 Z M 58.71875 75.679688 "/>
</g>
</svg>
