<?xml version="1.0" encoding="UTF-8"?>
<svg xmlns="http://www.w3.org/2000/svg" xmlns:xlink="http://www.w3.org/1999/xlink" width="115.344803pt" height="142.304794pt" viewBox="0 0 115.344803 142.304794" version="1.1">
<g id="surface1">
<path style=" stroke:none;fill-rule:nonzero;fill:rgb(0%,0%,0%);fill-opacity:1;" d="M 1.503906 56.824219 L 22.574219 73.648438 C 23.289062 74.21875 24.171875 74.523438 25.070312 74.523438 C 25.351562 74.523438 25.636719 74.492188 25.917969 74.433594 L 35.160156 72.425781 C 36.757812 77.546875 39.492188 87.058594 41.21875 97.222656 L 28.996094 103.519531 C 27.28125 104.402344 26.261719 106.222656 26.40625 108.144531 L 28.207031 132.121094 L 25.0625 132.820312 C 22.476562 133.394531 20.84375 135.957031 21.417969 138.546875 C 21.917969 140.78125 23.902344 142.304688 26.101562 142.304688 C 26.445312 142.304688 26.796875 142.269531 27.148438 142.191406 L 34.347656 140.589844 C 36.675781 140.074219 38.269531 137.925781 38.09375 135.542969 L 36.21875 110.597656 L 49.476562 103.769531 C 50.542969 103.21875 51.3125 102.328125 51.726562 101.296875 C 51.785156 101.285156 51.925781 101.257812 52.132812 101.214844 C 53.015625 103.53125 55.546875 104.820312 57.964844 104.105469 L 58.484375 103.953125 C 63.210938 107.390625 69.777344 110.933594 76.742188 110.933594 C 76.785156 110.933594 76.828125 110.929688 76.871094 110.929688 L 83.089844 123.171875 C 83.914062 124.800781 85.578125 125.800781 87.367188 125.800781 C 87.597656 125.800781 87.832031 125.78125 88.066406 125.75 L 93.21875 124.992188 C 95.84375 124.605469 97.65625 122.164062 97.269531 119.542969 C 96.882812 116.917969 94.4375 115.109375 91.824219 115.492188 L 90.082031 115.75 L 86.347656 108.390625 C 86.816406 108.125 87.285156 107.835938 87.753906 107.523438 C 95.148438 102.554688 97.476562 94.699219 99.535156 87.765625 C 102.355469 78.242188 104.121094 73.777344 113.316406 76.308594 C 114.167969 76.542969 115.050781 76.042969 115.285156 75.191406 C 115.519531 74.339844 115.019531 73.460938 114.167969 73.226562 C 101.535156 69.746094 98.957031 78.445312 96.464844 86.859375 C 94.5625 93.273438 92.410156 100.542969 85.96875 104.867188 C 85.613281 105.109375 85.253906 105.316406 84.890625 105.523438 L 78.15625 92.261719 C 77.109375 90.203125 74.742188 89.179688 72.527344 89.828125 L 62.769531 92.691406 C 64.894531 80.140625 68.523438 70.015625 69.644531 67.058594 L 85.957031 58.835938 C 87.132812 58.246094 87.941406 57.113281 88.121094 55.8125 L 91.453125 31.660156 C 91.757812 29.472656 90.226562 27.453125 88.039062 27.152344 C 85.855469 26.851562 83.832031 28.378906 83.527344 30.566406 L 80.480469 52.636719 L 67.308594 59.277344 C 64.511719 65.253906 58.503906 69.207031 51.695312 69.207031 C 46.628906 69.207031 42.011719 67.019531 38.824219 63.441406 L 26.078125 66.210938 L 6.496094 50.570312 C 4.769531 49.195312 2.253906 49.476562 0.875 51.203125 C -0.503906 52.925781 -0.222656 55.445312 1.503906 56.824219 Z M 75.167969 107.570312 C 70.570312 107.148438 66.160156 105.082031 62.535156 102.765625 L 71.40625 100.164062 Z M 75.167969 107.570312 "/>
<path style=" stroke:none;fill-rule:nonzero;fill:rgb(0%,0%,0%);fill-opacity:1;" d="M 51.695312 67.367188 C 58.957031 67.367188 65.03125 62.34375 66.675781 55.589844 C 69.066406 55.277344 70.914062 53.242188 70.914062 50.765625 C 70.914062 48.078125 68.734375 45.902344 66.046875 45.902344 C 66 45.902344 65.953125 45.90625 65.90625 45.90625 C 63.558594 40.378906 58.082031 36.5 51.695312 36.5 C 45.308594 36.5 39.832031 40.378906 37.484375 45.90625 C 37.4375 45.90625 37.394531 45.902344 37.34375 45.902344 C 34.660156 45.902344 32.480469 48.078125 32.480469 50.765625 C 32.480469 53.242188 34.328125 55.277344 36.714844 55.589844 C 38.359375 62.34375 44.433594 67.367188 51.695312 67.367188 Z M 46.746094 44.035156 C 48.894531 44.035156 50.757812 45.246094 51.695312 47.019531 C 52.636719 45.246094 54.5 44.035156 56.644531 44.035156 C 59.738281 44.035156 62.246094 46.542969 62.246094 49.632812 C 62.246094 52.394531 60.25 54.679688 57.625 55.144531 C 57.988281 55.957031 58.195312 56.855469 58.195312 57.800781 C 58.195312 61.390625 55.285156 64.300781 51.695312 64.300781 C 48.105469 64.300781 45.195312 61.390625 45.195312 57.800781 C 45.195312 56.855469 45.402344 55.957031 45.769531 55.144531 C 43.140625 54.679688 41.144531 52.394531 41.144531 49.632812 C 41.144531 46.542969 43.652344 44.035156 46.746094 44.035156 Z M 46.746094 44.035156 "/>
<path style=" stroke:none;fill-rule:nonzero;fill:rgb(0%,0%,0%);fill-opacity:1;" d="M 45.921875 51.929688 C 47.160156 52.386719 48.542969 51.75 49.003906 50.507812 C 49.460938 49.265625 44.957031 47.605469 44.5 48.847656 C 44.042969 50.089844 44.679688 51.472656 45.921875 51.929688 Z M 45.921875 51.929688 "/>
<path style=" stroke:none;fill-rule:nonzero;fill:rgb(0%,0%,0%);fill-opacity:1;" d="M 57.46875 51.929688 C 58.710938 51.46875 59.347656 50.089844 58.890625 48.847656 C 58.433594 47.605469 53.929688 49.265625 54.386719 50.507812 C 54.847656 51.75 56.230469 52.386719 57.46875 51.929688 Z M 57.46875 51.929688 "/>
<path style=" stroke:none;fill-rule:nonzero;fill:rgb(0%,0%,0%);fill-opacity:1;" d="M 51.695312 59.910156 C 53.453125 59.910156 54.878906 60.394531 54.878906 59.433594 C 54.878906 58.46875 53.453125 57.6875 51.695312 57.6875 C 49.9375 57.6875 48.511719 58.46875 48.511719 59.433594 C 48.511719 60.394531 49.9375 59.910156 51.695312 59.910156 Z M 51.695312 59.910156 "/>
<path style=" stroke:none;fill-rule:nonzero;fill:rgb(0%,0%,0%);fill-opacity:1;" d="M 20.207031 104.476562 C 20.238281 104.480469 20.265625 104.484375 20.296875 104.484375 C 20.699219 104.484375 21.042969 104.179688 21.089844 103.773438 C 21.09375 103.753906 21.3125 101.984375 22.636719 100.96875 C 23.488281 100.320312 24.640625 100.101562 26.0625 100.316406 C 26.5 100.382812 26.90625 100.082031 26.972656 99.644531 C 27.039062 99.207031 26.738281 98.800781 26.300781 98.734375 C 24.425781 98.449219 22.859375 98.777344 21.652344 99.710938 C 19.78125 101.152344 19.511719 103.5 19.5 103.601562 C 19.453125 104.039062 19.769531 104.429688 20.207031 104.476562 Z M 20.207031 104.476562 "/>
<path style=" stroke:none;fill-rule:nonzero;fill:rgb(0%,0%,0%);fill-opacity:1;" d="M 26.175781 96.746094 C 26.605469 96.824219 27.027344 96.542969 27.109375 96.109375 C 27.195312 95.675781 26.910156 95.257812 26.476562 95.175781 C 23.699219 94.644531 21.355469 95.03125 19.511719 96.320312 C 16.703125 98.285156 16.136719 101.621094 16.113281 101.761719 C 16.042969 102.199219 16.339844 102.605469 16.773438 102.679688 C 16.820312 102.6875 16.863281 102.691406 16.90625 102.691406 C 17.289062 102.691406 17.628906 102.410156 17.691406 102.019531 C 17.699219 101.992188 18.1875 99.191406 20.441406 97.621094 C 21.914062 96.597656 23.84375 96.300781 26.175781 96.746094 Z M 26.175781 96.746094 "/>
<path style=" stroke:none;fill-rule:nonzero;fill:rgb(0%,0%,0%);fill-opacity:1;" d="M 99.511719 69.1875 C 97.800781 70.808594 97.773438 73.175781 97.773438 73.273438 C 97.769531 73.714844 98.125 74.074219 98.566406 74.074219 L 98.574219 74.074219 C 99.011719 74.074219 99.367188 73.722656 99.371094 73.285156 C 99.371094 73.265625 99.410156 71.480469 100.625 70.335938 C 101.402344 69.601562 102.527344 69.265625 103.964844 69.335938 C 104.402344 69.347656 104.78125 69.015625 104.800781 68.574219 C 104.820312 68.132812 104.480469 67.757812 104.039062 67.738281 C 102.136719 67.648438 100.621094 68.136719 99.511719 69.1875 Z M 99.511719 69.1875 "/>
<path style=" stroke:none;fill-rule:nonzero;fill:rgb(0%,0%,0%);fill-opacity:1;" d="M 94.96875 72.640625 C 94.984375 72.640625 95 72.640625 95.015625 72.640625 C 95.4375 72.640625 95.789062 72.3125 95.8125 71.886719 C 95.816406 71.859375 96 69.046875 98.085938 67.242188 C 99.449219 66.0625 101.335938 65.570312 103.710938 65.773438 C 104.15625 65.8125 104.539062 65.488281 104.578125 65.046875 C 104.613281 64.605469 104.289062 64.21875 103.847656 64.179688 C 101.035156 63.9375 98.738281 64.558594 97.039062 66.035156 C 94.449219 68.277344 94.222656 71.652344 94.21875 71.796875 C 94.191406 72.234375 94.527344 72.613281 94.96875 72.640625 Z M 94.96875 72.640625 "/>
<path style=" stroke:none;fill-rule:nonzero;fill:rgb(0%,0%,0%);fill-opacity:1;" d="M 58.324219 23.0625 C 58.414062 23.058594 58.503906 23.042969 58.589844 23.035156 L 57.328125 33.496094 L 58.507812 33.699219 L 59.992188 25.132812 L 61.207031 18.136719 L 59.210938 17.886719 L 58.761719 21.605469 C 55.378906 21.457031 52.597656 18.757812 52.421875 15.304688 C 52.242188 11.78125 54.847656 8.765625 58.304688 8.367188 C 58.304688 8.453125 58.300781 8.53125 58.304688 8.613281 C 58.390625 10.328125 59 11.886719 59.964844 13.15625 C 59.625 12.398438 59.40625 11.570312 59.363281 10.6875 C 59.167969 6.910156 62.074219 3.691406 65.851562 3.5 C 69.628906 3.308594 72.847656 6.214844 73.039062 9.988281 C 73.132812 11.78125 72.519531 13.441406 71.453125 14.71875 C 72.1875 14.160156 72.8125 13.480469 73.320312 12.714844 C 74.753906 13.863281 75.710938 15.585938 75.8125 17.5625 C 76 21.230469 73.179688 24.355469 69.511719 24.542969 C 68.238281 24.605469 67.03125 24.304688 65.992188 23.730469 L 67.601562 20.289062 L 65.777344 19.445312 L 63.179688 25.832031 L 59.824219 34.078125 L 60.9375 34.527344 L 65.136719 25.554688 C 66.566406 26.476562 68.28125 26.980469 70.105469 26.890625 C 74.738281 26.652344 78.300781 22.707031 78.066406 18.074219 C 77.921875 15.199219 76.339844 12.734375 74.054688 11.335938 C 74.511719 10.246094 74.742188 9.039062 74.679688 7.777344 C 74.449219 3.257812 70.597656 -0.222656 66.074219 0.0078125 C 62.070312 0.214844 58.890625 3.257812 58.375 7.089844 C 58.089844 7.074219 57.800781 7.070312 57.511719 7.085938 C 53.101562 7.3125 49.707031 11.070312 49.929688 15.480469 C 50.15625 19.894531 53.914062 23.289062 58.324219 23.0625 Z M 58.324219 23.0625 "/>
<path style=" stroke:none;fill-rule:nonzero;fill:rgb(0%,0%,0%);fill-opacity:1;" d="M 16.195312 39.371094 C 16.226562 39.335938 19.519531 36.09375 22.824219 36.746094 C 24.792969 37.136719 26.417969 38.855469 27.664062 41.847656 L 28.808594 41.375 C 27.394531 37.972656 25.460938 36.011719 23.066406 35.535156 C 19.117188 34.753906 15.472656 38.339844 15.320312 38.496094 Z M 16.195312 39.371094 "/>
<path style=" stroke:none;fill-rule:nonzero;fill:rgb(0%,0%,0%);fill-opacity:1;" d="M 14.046875 34.847656 L 14.308594 36.058594 C 14.527344 36.007812 19.652344 34.867188 21.148438 31.050781 C 21.519531 30.101562 21.628906 29.078125 21.480469 27.988281 C 21.269531 26.441406 20.527344 24.761719 19.265625 22.964844 L 18.253906 23.675781 C 20.148438 26.378906 20.734375 28.707031 19.996094 30.597656 C 18.75 33.792969 14.09375 34.835938 14.046875 34.847656 Z M 14.046875 34.847656 "/>
<path style=" stroke:none;fill-rule:nonzero;fill:rgb(0%,0%,0%);fill-opacity:1;" d="M 27.046875 28.398438 C 31.035156 29.367188 35.070312 25.402344 35.242188 25.234375 L 34.367188 24.359375 C 34.332031 24.394531 30.648438 28.003906 27.335938 27.195312 C 25.453125 26.738281 23.988281 24.914062 22.976562 21.769531 L 21.800781 22.148438 C 22.953125 25.730469 24.71875 27.835938 27.046875 28.398438 Z M 27.046875 28.398438 "/>
<path style=" stroke:none;fill-rule:nonzero;fill:rgb(0%,0%,0%);fill-opacity:1;" d="M 29.011719 32.628906 C 28.160156 34.90625 28.960938 37.597656 31.382812 40.636719 L 32.347656 39.867188 C 30.21875 37.191406 29.484375 34.90625 30.171875 33.066406 C 31.359375 29.878906 36.445312 28.894531 36.496094 28.886719 L 36.269531 27.667969 C 36.035156 27.710938 30.445312 28.785156 29.011719 32.628906 Z M 29.011719 32.628906 "/>
</g>
</svg>
