<?xml version="1.0" ?><svg id="Layer_1" style="enable-background:new 0 0 144.181 177.881;" version="1.1" viewBox="0 0 144.181 177.881" xml:space="preserve" xmlns="http://www.w3.org/2000/svg" xmlns:xlink="http://www.w3.org/1999/xlink"><g><path d="M1.88,71.029l26.337,21.032c0.895,0.714,1.997,1.093,3.12,1.093c0.354,0,0.71-0.038,1.062-0.114l11.55-2.509   c1.998,6.401,5.414,18.294,7.574,30.999l-15.28,7.869c-2.143,1.103-3.417,3.381-3.236,5.784l2.253,29.967l-3.93,0.874   c-3.234,0.719-5.274,3.924-4.556,7.159c0.622,2.796,3.102,4.7,5.852,4.7c0.432,0,0.869-0.047,1.308-0.145l9-2   c2.911-0.646,4.905-3.333,4.682-6.307l-2.344-31.184l16.574-8.536c1.332-0.686,2.294-1.803,2.813-3.091   c0.073-0.014,0.248-0.047,0.507-0.103c1.105,2.897,4.267,4.507,7.289,3.617l0.65-0.191c5.909,4.293,14.117,8.724,22.822,8.724   c0.054,0,0.108-0.005,0.162-0.005l7.771,15.304c1.033,2.035,3.114,3.284,5.348,3.284c0.29,0,0.582-0.021,0.875-0.064l6.442-0.948   c3.278-0.482,5.545-3.531,5.063-6.809c-0.483-3.28-3.542-5.544-6.81-5.063l-2.174,0.32l-4.67-9.197   c0.588-0.333,1.174-0.692,1.758-1.085c9.244-6.209,12.155-16.031,14.725-24.696c3.528-11.904,5.734-17.484,17.229-14.32   c1.064,0.293,2.166-0.333,2.46-1.397c0.293-1.065-0.333-2.166-1.397-2.459c-15.789-4.348-19.011,6.525-22.127,17.04   c-2.377,8.018-5.071,17.106-13.12,22.513c-0.447,0.3-0.897,0.561-1.348,0.819l-8.417-16.576c-1.309-2.576-4.269-3.854-7.039-3.041   l-12.195,3.578c2.656-15.69,7.189-28.345,8.593-32.043l20.391-10.276c1.468-0.74,2.479-2.153,2.703-3.782l4.168-30.189   c0.378-2.735-1.534-5.259-4.27-5.637c-2.731-0.374-5.259,1.534-5.637,4.27l-3.809,27.589l-16.468,8.298   c-3.492,7.474-11.002,12.414-19.517,12.414c-6.331,0-12.103-2.737-16.088-7.208l-15.932,3.462L8.12,63.215   c-2.157-1.722-5.303-1.371-7.027,0.787C-0.63,66.159-0.278,69.306,1.88,71.029z M93.958,134.463   c-5.744-0.526-11.259-3.11-15.79-6.006l11.088-3.254L93.958,134.463z"/><path d="M64.619,84.209c9.078,0,16.67-6.278,18.725-14.723c2.987-0.387,5.297-2.934,5.297-6.027c0-3.36-2.724-6.083-6.084-6.083   c-0.058,0-0.115,0.007-0.173,0.009c-2.935-6.911-9.783-11.759-17.765-11.759S49.79,50.474,46.856,57.385   c-0.059-0.002-0.115-0.009-0.174-0.009c-3.359,0-6.083,2.723-6.083,6.083c0,3.092,2.31,5.64,5.296,6.027   C47.95,77.931,55.542,84.209,64.619,84.209z M58.432,55.043c2.684,0,5.013,1.513,6.188,3.731c1.174-2.218,3.503-3.731,6.188-3.731   c3.866,0,7,3.134,7,7c0,3.448-2.496,6.307-5.778,6.887c0.456,1.015,0.715,2.137,0.715,3.322c0,4.487-3.638,8.125-8.125,8.125   s-8.125-3.638-8.125-8.125c0-1.185,0.259-2.307,0.715-3.322c-3.282-0.579-5.778-3.438-5.778-6.887   C51.432,58.177,54.566,55.043,58.432,55.043z"/><path d="M57.4,64.911c1.552,0.573,3.28-0.224,3.853-1.776c0.573-1.552-5.056-3.629-5.629-2.077   C55.052,62.61,55.849,64.339,57.4,64.911z"/><path d="M71.838,64.911c1.552-0.573,2.349-2.301,1.776-3.853c-0.573-1.552-6.202,0.525-5.629,2.077   C68.558,64.688,70.286,65.484,71.838,64.911z"/><path d="M64.619,74.89c2.198,0,3.979,0.603,3.979-0.6c0-1.203-1.781-2.179-3.979-2.179c-2.198,0-3.979,0.976-3.979,2.179   C60.64,75.494,62.422,74.89,64.619,74.89z"/><path d="M25.26,130.598c0.037,0.004,0.074,0.006,0.111,0.006c0.501,0,0.934-0.378,0.993-0.888c0.002-0.022,0.275-2.237,1.934-3.504   c1.063-0.811,2.503-1.087,4.279-0.817c0.548,0.083,1.056-0.293,1.138-0.839c0.083-0.546-0.292-1.056-0.839-1.139   c-2.346-0.354-4.301,0.056-5.813,1.222c-2.335,1.8-2.674,4.737-2.687,4.861C24.318,130.047,24.713,130.537,25.26,130.598z"/><path d="M32.719,120.933c0.539,0.099,1.065-0.253,1.17-0.795c0.104-0.542-0.252-1.066-0.795-1.17   c-3.47-0.663-6.4-0.181-8.705,1.433c-3.509,2.457-4.218,6.626-4.246,6.803c-0.088,0.544,0.281,1.055,0.825,1.145   c0.055,0.009,0.109,0.013,0.163,0.013c0.48,0,0.904-0.348,0.985-0.836c0.006-0.035,0.62-3.538,3.436-5.498   C27.395,120.746,29.805,120.376,32.719,120.933z"/><path d="M124.392,86.483c-2.139,2.03-2.175,4.986-2.176,5.11c-0.002,0.551,0.441,0.998,0.991,1.002c0.003,0,0.006,0,0.009,0   c0.547,0,0.993-0.442,1-0.99c0-0.022,0.046-2.253,1.565-3.685c0.973-0.916,2.376-1.338,4.173-1.25   c0.547,0.015,1.021-0.399,1.047-0.951c0.026-0.552-0.399-1.021-0.951-1.047C127.669,84.561,125.777,85.17,124.392,86.483z"/><path d="M118.711,90.8c0.02,0.001,0.039,0.001,0.059,0.001c0.525,0,0.967-0.411,0.997-0.942c0.002-0.035,0.233-3.549,2.84-5.805   c1.703-1.475,4.063-2.093,7.032-1.836c0.556,0.049,1.034-0.36,1.082-0.91s-0.359-1.035-0.91-1.082   c-3.516-0.306-6.386,0.474-8.513,2.316c-3.238,2.803-3.518,7.023-3.527,7.202C117.738,90.295,118.159,90.767,118.711,90.8z"/><path d="M72.907,28.828c0.112-0.006,0.221-0.024,0.332-0.034l-1.578,13.075l1.476,0.256l1.855-10.709l1.515-8.745l-2.492-0.313   l-0.561,4.649c-4.231-0.187-7.705-3.562-7.925-7.876c-0.224-4.406,3.029-8.175,7.352-8.67c0.002,0.103-0.005,0.204,0,0.307   c0.109,2.14,0.869,4.092,2.076,5.677c-0.428-0.947-0.697-1.984-0.753-3.085c-0.242-4.722,3.39-8.744,8.112-8.986   c4.721-0.24,8.744,3.393,8.985,8.113c0.114,2.24-0.651,4.316-1.983,5.912c0.914-0.697,1.698-1.547,2.332-2.504   c1.791,1.433,2.989,3.589,3.115,6.06c0.235,4.583-3.292,8.489-7.875,8.723c-1.593,0.081-3.099-0.299-4.402-1.013l2.014-4.304   l-2.281-1.054l-3.247,7.983l-4.192,10.306l1.391,0.565l5.249-11.216c1.785,1.152,3.929,1.782,6.212,1.666   c5.789-0.296,10.244-5.228,9.949-11.018c-0.183-3.596-2.157-6.674-5.013-8.421c0.568-1.366,0.859-2.872,0.779-4.448   c-0.289-5.652-5.103-10-10.754-9.712c-5.005,0.255-8.98,4.061-9.627,8.852c-0.356-0.02-0.715-0.024-1.079-0.005   c-5.514,0.281-9.755,4.979-9.475,10.493C62.695,24.867,67.393,29.11,72.907,28.828z"/><path d="M20.244,49.212c0.041-0.041,4.153-4.096,8.286-3.277c2.459,0.488,4.494,2.632,6.05,6.375l1.429-0.593   c-1.766-4.249-4.181-6.704-7.177-7.298c-4.935-0.979-9.49,3.508-9.681,3.7L20.244,49.212z"/><path d="M17.559,43.559l0.327,1.512c0.272-0.059,6.681-1.489,8.548-6.256c0.466-1.19,0.604-2.467,0.417-3.828   c-0.266-1.933-1.191-4.034-2.769-6.28l-1.266,0.89c2.37,3.375,3.102,6.285,2.18,8.65C23.436,42.239,17.618,43.546,17.559,43.559z"/><path d="M33.808,35.5c4.984,1.21,10.031-3.745,10.243-3.957l-1.091-1.096c-0.046,0.046-4.65,4.557-8.791,3.548   c-2.351-0.573-4.183-2.854-5.446-6.781l-1.473,0.473C28.69,32.165,30.896,34.793,33.808,35.5z"/><path d="M36.265,40.788c-1.063,2.843-0.065,6.211,2.962,10.008l1.21-0.964c-2.664-3.341-3.581-6.199-2.724-8.499   c1.484-3.985,7.843-5.214,7.908-5.226l-0.282-1.521C45.042,34.641,38.059,35.983,36.265,40.788z"/></g></svg>