<?xml version="1.0" ?><!DOCTYPE svg  PUBLIC '-//W3C//DTD SVG 1.1//EN'  'http://www.w3.org/Graphics/SVG/1.1/DTD/svg11.dtd'><svg enable-background="new 0 0 128 128" height="128px" id="icon" version="1.1" viewBox="0 0 128 128" width="128px" xml:space="preserve" xmlns="http://www.w3.org/2000/svg" xmlns:xlink="http://www.w3.org/1999/xlink"><path d="M49.292,119.147l-0.345-0.005c-6.986-0.158-14.717-6.64-21.198-17.782  c-7.213-12.453-10.78-28.421-9.09-40.685c1.714-12.419,10.986-23.813,21.566-26.504c2.439-0.614,4.708-0.912,6.942-0.912  c5.098,0,8.861,1.609,11.884,2.902c2.23,0.953,3.993,1.707,5.786,1.707c-0.039,0,1.878-0.09,5.653-1.655  c0.359-0.15,0.73-0.311,1.104-0.471c3.156-1.358,6.732-2.898,11.952-2.898c2.191,0,4.462,0.268,6.941,0.818  c10.116,2.245,16.084,10.7,16.333,11.059c0.469,0.677,0.64,1.516,0.473,2.321c-0.168,0.806-0.659,1.508-1.358,1.94  c-0.487,0.306-12.083,7.736-9.631,20.095c2.503,12.625,11.774,15.912,12.167,16.046c0.768,0.261,1.407,0.824,1.754,1.557  c0.348,0.732,0.394,1.578,0.111,2.338c-0.259,0.695-6.429,17.094-13.634,23.225c-5.078,4.305-8.14,6.9-12.696,6.9h0  c-1.354,0-2.81-0.233-4.582-0.734c-2.025-0.569-3.813-1.296-5.39-1.938c-2.609-1.061-4.67-1.899-7.104-1.899  c-0.537,0-1.092,0.043-1.649,0.126c-2.368,0.353-4.683,1.261-6.921,2.138C55.464,117.973,52.468,119.147,49.292,119.147z   M47.168,39.26c-1.734,0-3.524,0.238-5.47,0.729c-7.037,1.79-15.578,10.523-17.095,21.507c-1.519,11.024,1.753,25.488,8.335,36.853  c6.271,10.781,12.458,14.713,16.157,14.797l0.196,0.003c2.042,0,4.392-0.921,6.879-1.896c2.431-0.953,5.186-2.033,8.224-2.485  c0.849-0.128,1.703-0.192,2.536-0.192c3.607,0,6.533,1.19,9.363,2.34c1.502,0.61,3.054,1.242,4.758,1.722  c1.229,0.347,2.167,0.509,2.954,0.509c2.173,0,3.933-1.337,8.812-5.473c4.212-3.585,8.626-12.787,10.877-18.184  c-4.012-2.245-10.989-7.701-13.277-19.242c-2.432-12.252,5.231-20.641,9.585-24.3c-2.106-2.174-5.877-5.329-10.816-6.425  c-2.047-0.454-3.892-0.676-5.641-0.676c-3.983,0-6.702,1.171-9.58,2.409c-0.391,0.168-0.779,0.335-1.167,0.498  c-4.862,2.016-7.486,2.117-7.963,2.117c-3.022,0-5.626-1.113-8.144-2.19C53.912,40.489,51.037,39.26,47.168,39.26z" fill="#231F20"/><path d="M64.568,35.183c-1.523,0-2.827-1.154-2.981-2.701c-0.047-0.463-1.059-11.434,5.87-18.666  c6.681-6.926,16.354-8.698,16.762-8.77c1.584-0.282,3.114,0.745,3.454,2.321c0.104,0.481,2.449,11.844-5.048,19.471  c-7.137,7.259-17.341,8.291-17.772,8.332C64.756,35.179,64.662,35.183,64.568,35.183z M82.107,11.817  c-2.862,0.958-7.113,2.826-10.325,6.156c-2.999,3.131-3.918,7.545-4.175,10.556c2.975-0.796,7.374-2.477,10.738-5.898  C81.582,19.338,82.151,14.82,82.107,11.817z" fill="#231F20"/><path d="M49.292,119.147l-0.345-0.005c-6.986-0.158-14.717-6.64-21.198-17.782  c-7.213-12.453-10.78-28.421-9.09-40.685c1.714-12.419,10.986-23.813,21.566-26.504c2.439-0.614,4.708-0.912,6.942-0.912  c5.098,0,8.861,1.609,11.884,2.902c2.23,0.953,3.993,1.707,5.786,1.707c-0.039,0,1.878-0.09,5.653-1.655  c0.359-0.15,0.73-0.311,1.104-0.471c3.156-1.358,6.732-2.898,11.952-2.898c2.191,0,4.462,0.268,6.941,0.818  c10.116,2.245,16.084,10.7,16.333,11.059c0.469,0.677,0.64,1.516,0.473,2.321c-0.168,0.806-0.659,1.508-1.358,1.94  c-0.487,0.306-12.083,7.736-9.631,20.095c2.503,12.625,11.774,15.912,12.167,16.046c0.768,0.261,1.407,0.824,1.754,1.557  c0.348,0.732,0.394,1.578,0.111,2.338c-0.259,0.695-6.429,17.094-13.634,23.225c-5.078,4.305-8.14,6.9-12.696,6.9h0  c-1.354,0-2.81-0.233-4.582-0.734c-2.025-0.569-3.813-1.296-5.39-1.938c-2.609-1.061-4.67-1.899-7.104-1.899  c-0.537,0-1.092,0.043-1.649,0.126c-2.368,0.353-4.683,1.261-6.921,2.138C55.464,117.973,52.468,119.147,49.292,119.147z   M47.168,39.26c-1.734,0-3.524,0.238-5.47,0.729c-7.037,1.79-15.578,10.523-17.095,21.507c-1.519,11.024,1.753,25.488,8.335,36.853  c6.271,10.781,12.458,14.713,16.157,14.797l0.196,0.003c2.042,0,4.392-0.921,6.879-1.896c2.431-0.953,5.186-2.033,8.224-2.485  c0.849-0.128,1.703-0.192,2.536-0.192c3.607,0,6.533,1.19,9.363,2.34c1.502,0.61,3.054,1.242,4.758,1.722  c1.229,0.347,2.167,0.509,2.954,0.509c2.173,0,3.933-1.337,8.812-5.473c4.212-3.585,8.626-12.787,10.877-18.184  c-4.012-2.245-10.989-7.701-13.277-19.242c-2.432-12.252,5.231-20.641,9.585-24.3c-2.106-2.174-5.877-5.329-10.816-6.425  c-2.047-0.454-3.892-0.676-5.641-0.676c-3.983,0-6.702,1.171-9.58,2.409c-0.391,0.168-0.779,0.335-1.167,0.498  c-4.862,2.016-7.486,2.117-7.963,2.117c-3.022,0-5.626-1.113-8.144-2.19C53.912,40.489,51.037,39.26,47.168,39.26z" fill="#231F20"/><path d="M64.568,35.183c-1.523,0-2.827-1.154-2.981-2.701c-0.047-0.463-1.059-11.434,5.87-18.666  c6.681-6.926,16.354-8.698,16.762-8.77c1.584-0.282,3.114,0.745,3.454,2.321c0.104,0.481,2.449,11.844-5.048,19.471  c-7.137,7.259-17.341,8.291-17.772,8.332C64.756,35.179,64.662,35.183,64.568,35.183z M82.107,11.817  c-2.862,0.958-7.113,2.826-10.325,6.156c-2.999,3.131-3.918,7.545-4.175,10.556c2.975-0.796,7.374-2.477,10.738-5.898  C81.582,19.338,82.151,14.82,82.107,11.817z" fill="#231F20"/></svg>