<?xml version="1.0" encoding="UTF-8"?>
<svg xmlns="http://www.w3.org/2000/svg" xmlns:xlink="http://www.w3.org/1999/xlink" width="102.400002pt" height="102.400002pt" viewBox="0 0 102.400002 102.400002" version="1.1">
<g id="surface1">
<path style=" stroke:none;fill-rule:nonzero;fill:rgb(13%,13%,13%);fill-opacity:1;" d="M 39.433594 95.316406 L 39.15625 95.3125 C 33.570312 95.1875 27.382812 90 22.199219 81.089844 C 16.429688 71.125 13.574219 58.351562 14.925781 48.539062 C 16.296875 38.605469 23.714844 29.488281 32.179688 27.335938 C 34.132812 26.84375 35.945312 26.605469 37.734375 26.605469 C 41.8125 26.605469 44.824219 27.894531 47.242188 28.929688 C 49.023438 29.691406 50.433594 30.292969 51.871094 30.292969 C 51.839844 30.292969 53.371094 30.222656 56.390625 28.96875 C 56.679688 28.851562 56.976562 28.722656 57.273438 28.59375 C 59.800781 27.507812 62.660156 26.273438 66.835938 26.273438 C 68.589844 26.273438 70.40625 26.488281 72.390625 26.929688 C 80.480469 28.726562 85.257812 35.488281 85.457031 35.777344 C 85.832031 36.320312 85.96875 36.988281 85.835938 37.632812 C 85.699219 38.277344 85.308594 38.839844 84.746094 39.1875 C 84.359375 39.429688 75.082031 45.375 77.042969 55.261719 C 79.046875 65.363281 86.460938 67.992188 86.777344 68.097656 C 87.390625 68.308594 87.902344 68.757812 88.179688 69.34375 C 88.457031 69.929688 88.496094 70.605469 88.269531 71.214844 C 88.0625 71.769531 83.125 84.890625 77.363281 89.792969 C 73.300781 93.238281 70.847656 95.3125 67.203125 95.3125 C 66.121094 95.3125 64.957031 95.128906 63.539062 94.726562 C 61.917969 94.273438 60.488281 93.691406 59.226562 93.175781 C 57.140625 92.328125 55.492188 91.65625 53.542969 91.65625 C 53.113281 91.65625 52.671875 91.691406 52.226562 91.757812 C 50.332031 92.039062 48.476562 92.765625 46.6875 93.46875 C 44.371094 94.378906 41.972656 95.316406 39.433594 95.316406 Z M 37.734375 31.40625 C 36.347656 31.40625 34.914062 31.597656 33.359375 31.992188 C 27.730469 33.421875 20.894531 40.410156 19.683594 49.195312 C 18.46875 58.015625 21.085938 69.585938 26.351562 78.679688 C 31.367188 87.304688 36.316406 90.449219 39.277344 90.515625 L 39.433594 90.519531 C 41.066406 90.519531 42.945312 89.78125 44.9375 89.003906 C 46.878906 88.238281 49.085938 87.375 51.515625 87.015625 C 52.195312 86.910156 52.878906 86.859375 53.542969 86.859375 C 56.429688 86.859375 58.769531 87.8125 61.035156 88.734375 C 62.234375 89.222656 63.476562 89.726562 64.839844 90.109375 C 65.824219 90.386719 66.574219 90.519531 67.203125 90.519531 C 68.941406 90.519531 70.351562 89.449219 74.253906 86.140625 C 77.625 83.269531 81.15625 75.910156 82.957031 71.59375 C 79.746094 69.796875 74.164062 65.429688 72.332031 56.199219 C 70.386719 46.398438 76.519531 39.6875 80 36.757812 C 78.316406 35.019531 75.300781 32.496094 71.347656 31.617188 C 69.710938 31.253906 68.234375 31.078125 66.835938 31.078125 C 63.648438 31.078125 61.472656 32.015625 59.171875 33.003906 C 58.859375 33.140625 58.546875 33.273438 58.238281 33.402344 C 54.347656 35.015625 52.25 35.097656 51.867188 35.097656 C 49.449219 35.097656 47.367188 34.207031 45.351562 33.34375 C 43.128906 32.390625 40.828125 31.40625 37.734375 31.40625 Z M 37.734375 31.40625 "/>
<path style=" stroke:none;fill-rule:nonzero;fill:rgb(13%,13%,13%);fill-opacity:1;" d="M 51.65625 28.144531 C 50.4375 28.144531 49.394531 27.222656 49.269531 25.984375 C 49.230469 25.613281 48.421875 16.839844 53.964844 11.054688 C 59.308594 5.511719 67.046875 4.09375 67.375 4.035156 C 68.640625 3.8125 69.867188 4.632812 70.136719 5.894531 C 70.222656 6.277344 72.097656 15.367188 66.101562 21.46875 C 60.390625 27.277344 52.226562 28.101562 51.882812 28.136719 C 51.804688 28.144531 51.730469 28.144531 51.65625 28.144531 Z M 65.6875 9.453125 C 63.394531 10.21875 59.996094 11.714844 57.425781 14.378906 C 55.027344 16.882812 54.292969 20.414062 54.085938 22.824219 C 56.464844 22.1875 59.984375 20.839844 62.675781 18.105469 C 65.265625 15.46875 65.722656 11.855469 65.6875 9.453125 Z M 65.6875 9.453125 "/>
<path style=" stroke:none;fill-rule:nonzero;fill:rgb(13%,13%,13%);fill-opacity:1;" d="M 39.433594 95.316406 L 39.15625 95.3125 C 33.570312 95.1875 27.382812 90 22.199219 81.089844 C 16.429688 71.125 13.574219 58.351562 14.925781 48.539062 C 16.296875 38.605469 23.714844 29.488281 32.179688 27.335938 C 34.132812 26.84375 35.945312 26.605469 37.734375 26.605469 C 41.8125 26.605469 44.824219 27.894531 47.242188 28.929688 C 49.023438 29.691406 50.433594 30.292969 51.871094 30.292969 C 51.839844 30.292969 53.371094 30.222656 56.390625 28.96875 C 56.679688 28.851562 56.976562 28.722656 57.273438 28.59375 C 59.800781 27.507812 62.660156 26.273438 66.835938 26.273438 C 68.589844 26.273438 70.40625 26.488281 72.390625 26.929688 C 80.480469 28.726562 85.257812 35.488281 85.457031 35.777344 C 85.832031 36.320312 85.96875 36.988281 85.835938 37.632812 C 85.699219 38.277344 85.308594 38.839844 84.746094 39.1875 C 84.359375 39.429688 75.082031 45.375 77.042969 55.261719 C 79.046875 65.363281 86.460938 67.992188 86.777344 68.097656 C 87.390625 68.308594 87.902344 68.757812 88.179688 69.34375 C 88.457031 69.929688 88.496094 70.605469 88.269531 71.214844 C 88.0625 71.769531 83.125 84.890625 77.363281 89.792969 C 73.300781 93.238281 70.847656 95.3125 67.203125 95.3125 C 66.121094 95.3125 64.957031 95.128906 63.539062 94.726562 C 61.917969 94.273438 60.488281 93.691406 59.226562 93.175781 C 57.140625 92.328125 55.492188 91.65625 53.542969 91.65625 C 53.113281 91.65625 52.671875 91.691406 52.226562 91.757812 C 50.332031 92.039062 48.476562 92.765625 46.6875 93.46875 C 44.371094 94.378906 41.972656 95.316406 39.433594 95.316406 Z M 37.734375 31.40625 C 36.347656 31.40625 34.914062 31.597656 33.359375 31.992188 C 27.730469 33.421875 20.894531 40.410156 19.683594 49.195312 C 18.46875 58.015625 21.085938 69.585938 26.351562 78.679688 C 31.367188 87.304688 36.316406 90.449219 39.277344 90.515625 L 39.433594 90.519531 C 41.066406 90.519531 42.945312 89.78125 44.9375 89.003906 C 46.878906 88.238281 49.085938 87.375 51.515625 87.015625 C 52.195312 86.910156 52.878906 86.859375 53.542969 86.859375 C 56.429688 86.859375 58.769531 87.8125 61.035156 88.734375 C 62.234375 89.222656 63.476562 89.726562 64.839844 90.109375 C 65.824219 90.386719 66.574219 90.519531 67.203125 90.519531 C 68.941406 90.519531 70.351562 89.449219 74.253906 86.140625 C 77.625 83.269531 81.15625 75.910156 82.957031 71.59375 C 79.746094 69.796875 74.164062 65.429688 72.332031 56.199219 C 70.386719 46.398438 76.519531 39.6875 80 36.757812 C 78.316406 35.019531 75.300781 32.496094 71.347656 31.617188 C 69.710938 31.253906 68.234375 31.078125 66.835938 31.078125 C 63.648438 31.078125 61.472656 32.015625 59.171875 33.003906 C 58.859375 33.140625 58.546875 33.273438 58.238281 33.402344 C 54.347656 35.015625 52.25 35.097656 51.867188 35.097656 C 49.449219 35.097656 47.367188 34.207031 45.351562 33.34375 C 43.128906 32.390625 40.828125 31.40625 37.734375 31.40625 Z M 37.734375 31.40625 "/>
<path style=" stroke:none;fill-rule:nonzero;fill:rgb(13%,13%,13%);fill-opacity:1;" d="M 51.65625 28.144531 C 50.4375 28.144531 49.394531 27.222656 49.269531 25.984375 C 49.230469 25.613281 48.421875 16.839844 53.964844 11.054688 C 59.308594 5.511719 67.046875 4.09375 67.375 4.035156 C 68.640625 3.8125 69.867188 4.632812 70.136719 5.894531 C 70.222656 6.277344 72.097656 15.367188 66.101562 21.46875 C 60.390625 27.277344 52.226562 28.101562 51.882812 28.136719 C 51.804688 28.144531 51.730469 28.144531 51.65625 28.144531 Z M 65.6875 9.453125 C 63.394531 10.21875 59.996094 11.714844 57.425781 14.378906 C 55.027344 16.882812 54.292969 20.414062 54.085938 22.824219 C 56.464844 22.1875 59.984375 20.839844 62.675781 18.105469 C 65.265625 15.46875 65.722656 11.855469 65.6875 9.453125 Z M 65.6875 9.453125 "/>
</g>
</svg>
