<?xml version="1.0" ?><svg data-name="Devices 3" height="60" id="Devices_3" viewBox="0 0 60 60" width="60" xmlns="http://www.w3.org/2000/svg"><title/><circle cx="30" cy="30" r="2" style="fill:#b1f1a8"/><circle cx="15" cy="30" r="2" style="fill:#b1f1a8"/><circle cx="45" cy="30" r="2" style="fill:#b1f1a8"/><path d="M8,30a1.00288,1.00288,0,0,1,1-1H9a1.00319,1.00319,0,0,1,1,1h0a1.00319,1.00319,0,0,1-1,1H9A1.00288,1.00288,0,0,1,8,30ZM4,30a1.00288,1.00288,0,0,1,1-1H5a1.00319,1.00319,0,0,1,1,1H6a1.00319,1.00319,0,0,1-1,1H5A1.00288,1.00288,0,0,1,4,30ZM0,30a1.00288,1.00288,0,0,1,1-1H1a1.00319,1.00319,0,0,1,1,1H2a1.00319,1.00319,0,0,1-1,1H1A1.00288,1.00288,0,0,1,0,30Z" style="fill:#6d6daa"/><path d="M24,30a1.00288,1.00288,0,0,1,1-1h0a1.00319,1.00319,0,0,1,1,1h0a1.00319,1.00319,0,0,1-1,1h0A1.00288,1.00288,0,0,1,24,30Zm-4,0a1.00288,1.00288,0,0,1,1-1h0a1.00319,1.00319,0,0,1,1,1h0a1.00319,1.00319,0,0,1-1,1h0A1.00288,1.00288,0,0,1,20,30Z" style="fill:#6d6daa"/><path d="M38,30a1.00288,1.00288,0,0,1,1-1h0a1.00319,1.00319,0,0,1,1,1h0a1.00319,1.00319,0,0,1-1,1h0A1.00288,1.00288,0,0,1,38,30Zm-4,0a1.00288,1.00288,0,0,1,1-1h0a1.00319,1.00319,0,0,1,1,1h0a1.00319,1.00319,0,0,1-1,1h0A1.00288,1.00288,0,0,1,34,30Z" style="fill:#6d6daa"/><path d="M29,40a1.00288,1.00288,0,0,1,1-1h0a1.00319,1.00319,0,0,1,1,1h0a1.00319,1.00319,0,0,1-1,1h0A1.00288,1.00288,0,0,1,29,40Zm0-4a1.00288,1.00288,0,0,1,1-1h0a1.00319,1.00319,0,0,1,1,1h0a1.00319,1.00319,0,0,1-1,1h0A1.00288,1.00288,0,0,1,29,36Z" style="fill:#6d6daa"/><path d="M14,24a1.00288,1.00288,0,0,1,1-1h0a1.00319,1.00319,0,0,1,1,1h0a1.00319,1.00319,0,0,1-1,1h0A1.00288,1.00288,0,0,1,14,24Zm0-4a1.00288,1.00288,0,0,1,1-1h0a1.00319,1.00319,0,0,1,1,1h0a1.00319,1.00319,0,0,1-1,1h0A1.00288,1.00288,0,0,1,14,20Z" style="fill:#6d6daa"/><path d="M44,24a1.00288,1.00288,0,0,1,1-1h0a1.00319,1.00319,0,0,1,1,1h0a1.00319,1.00319,0,0,1-1,1h0A1.00288,1.00288,0,0,1,44,24Zm0-4a1.00288,1.00288,0,0,1,1-1h0a1.00319,1.00319,0,0,1,1,1h0a1.00319,1.00319,0,0,1-1,1h0A1.00288,1.00288,0,0,1,44,20Z" style="fill:#6d6daa"/><path d="M58,30a1.00288,1.00288,0,0,1,1-1h0a1.00319,1.00319,0,0,1,1,1h0a1.00319,1.00319,0,0,1-1,1h0A1.00288,1.00288,0,0,1,58,30Zm-4,0a1.00288,1.00288,0,0,1,1-1h0a1.00319,1.00319,0,0,1,1,1h0a1.00319,1.00319,0,0,1-1,1h0A1.00288,1.00288,0,0,1,54,30Zm-4,0a1.00288,1.00288,0,0,1,1-1h0a1.00319,1.00319,0,0,1,1,1h0a1.00319,1.00319,0,0,1-1,1h0A1.00288,1.00288,0,0,1,50,30Z" style="fill:#6d6daa"/><path d="M30,33a3,3,0,1,1,3-3A3.00328,3.00328,0,0,1,30,33Zm0-4a1,1,0,1,0,1,1A1.001,1.001,0,0,0,30,29Z" style="fill:#6d6daa"/><path d="M15,33a3,3,0,1,1,3-3A3.00328,3.00328,0,0,1,15,33Zm0-4a1,1,0,1,0,1,1A1.001,1.001,0,0,0,15,29Z" style="fill:#6d6daa"/><path d="M45,33a3,3,0,1,1,3-3A3.00328,3.00328,0,0,1,45,33Zm0-4a1,1,0,1,0,1,1A1.001,1.001,0,0,0,45,29Z" style="fill:#6d6daa"/><rect height="12" rx="2" ry="2" style="fill:#96d7ff" width="18" x="6" y="1"/><path d="M22,1H8A1.99994,1.99994,0,0,0,6,3V6A1.99994,1.99994,0,0,1,8,4H22a1.99994,1.99994,0,0,1,2,2V3A1.99994,1.99994,0,0,0,22,1Z" style="fill:#2c4b75;opacity:0.2"/><path d="M19,18H11a1,1,0,0,1,0-2h8a1,1,0,0,1,0,2Z" style="fill:#6d6daa"/><rect height="4" style="fill:#ced8ee" width="4" x="13" y="13"/><path d="M17,18H13a.99974.99974,0,0,1-1-1V13a.99974.99974,0,0,1,1-1h4a.99974.99974,0,0,1,1,1v4A.99974.99974,0,0,1,17,18Zm-3-2h2V14H14Z" style="fill:#6d6daa"/><path d="M8,1A1.99994,1.99994,0,0,0,6,3v8a1.99994,1.99994,0,0,0,2,2H9.01221L21.01215,1Z" style="fill:#fff;opacity:0.5"/><path d="M22,14H8a3.00328,3.00328,0,0,1-3-3V3A3.00328,3.00328,0,0,1,8,0H22a3.00328,3.00328,0,0,1,3,3v8A3.00328,3.00328,0,0,1,22,14ZM8,2A1.001,1.001,0,0,0,7,3v8a1.001,1.001,0,0,0,1,1H22a1.001,1.001,0,0,0,1-1V3a1.001,1.001,0,0,0-1-1Z" style="fill:#6d6daa"/><rect height="12" rx="2" ry="2" style="fill:#96d7ff" width="18" x="36" y="1"/><path d="M52,1H38a1.99994,1.99994,0,0,0-2,2V6a1.99994,1.99994,0,0,1,2-2H52a1.99994,1.99994,0,0,1,2,2V3A1.99994,1.99994,0,0,0,52,1Z" style="fill:#2c4b75;opacity:0.2"/><path d="M49,18H41a1,1,0,0,1,0-2h8a1,1,0,0,1,0,2Z" style="fill:#6d6daa"/><rect height="4" style="fill:#ced8ee" width="4" x="43" y="13"/><path d="M47,18H43a.99974.99974,0,0,1-1-1V13a.99974.99974,0,0,1,1-1h4a.99974.99974,0,0,1,1,1v4A.99974.99974,0,0,1,47,18Zm-3-2h2V14H44Z" style="fill:#6d6daa"/><path d="M38,1a1.99994,1.99994,0,0,0-2,2v8a1.99994,1.99994,0,0,0,2,2h1.01221L51.01215,1Z" style="fill:#fff;opacity:0.5"/><path d="M52,14H38a3.00328,3.00328,0,0,1-3-3V3a3.00328,3.00328,0,0,1,3-3H52a3.00328,3.00328,0,0,1,3,3v8A3.00328,3.00328,0,0,1,52,14ZM38,2a1.001,1.001,0,0,0-1,1v8a1.001,1.001,0,0,0,1,1H52a1.001,1.001,0,0,0,1-1V3a1.001,1.001,0,0,0-1-1Z" style="fill:#6d6daa"/><rect height="12" rx="2" ry="2" style="fill:#96d7ff" width="18" x="21" y="43"/><path d="M37,43H23a1.99994,1.99994,0,0,0-2,2v3a1.99994,1.99994,0,0,1,2-2H37a1.99994,1.99994,0,0,1,2,2V45A1.99994,1.99994,0,0,0,37,43Z" style="fill:#2c4b75;opacity:0.2"/><path d="M34,60H26a1,1,0,0,1,0-2h8a1,1,0,0,1,0,2Z" style="fill:#6d6daa"/><rect height="4" style="fill:#ced8ee" width="4" x="28" y="55"/><path d="M32,60H28a.99974.99974,0,0,1-1-1V55a.99974.99974,0,0,1,1-1h4a.99974.99974,0,0,1,1,1v4A.99974.99974,0,0,1,32,60Zm-3-2h2V56H29Z" style="fill:#6d6daa"/><path d="M23,43a1.99994,1.99994,0,0,0-2,2v8a1.99994,1.99994,0,0,0,2,2h1.01221L36.01215,43Z" style="fill:#fff;opacity:0.5"/><path d="M37,56H23a3.00328,3.00328,0,0,1-3-3V45a3.00328,3.00328,0,0,1,3-3H37a3.00328,3.00328,0,0,1,3,3v8A3.00328,3.00328,0,0,1,37,56ZM23,44a1.001,1.001,0,0,0-1,1v8a1.001,1.001,0,0,0,1,1H37a1.001,1.001,0,0,0,1-1V45a1.001,1.001,0,0,0-1-1Z" style="fill:#6d6daa"/></svg>