<?xml version="1.0" ?><!DOCTYPE svg  PUBLIC '-//W3C//DTD SVG 1.1//EN'  'http://www.w3.org/Graphics/SVG/1.1/DTD/svg11.dtd'><svg height="96px" id="_x30_28_x5F_commands" style="enable-background:new 0 0 96 96;" version="1.1" viewBox="0 0 96 96" width="96px" xml:space="preserve" xmlns="http://www.w3.org/2000/svg" xmlns:xlink="http://www.w3.org/1999/xlink"><g><circle cx="48" cy="48" r="48" style="fill:#EFEFEF;"/><g><rect height="36" style="fill:#FFFFFF;" width="56" x="20" y="20"/><rect height="4" style="fill:#FF4A63;" width="56" x="20" y="20"/><rect height="4" style="fill:#D1D1D1;" width="32" x="32" y="76"/><path d="M80,60v4c0,2.211-1.789,4-4,4H20c-2.211,0-4-1.789-4-4v-4" style="fill:#D1D1D1;"/><polygon points="55,68 41,68 40,76 56,76   " style="fill:#D1D1D1;"/><path d="M76,16H20c-2.211,0-4,1.789-4,4v36v4h64v-4V20C80,17.789,78.211,16,76,16z M20,56V20h56v36H20z" style="fill:#6D6D6D;"/><path d="    M76,16H20c-2.211,0-4,1.789-4,4v36v4h64v-4V20C80,17.789,78.211,16,76,16z M20,56V20h56v36H20z" style="fill:none;stroke:#000000;stroke-width:2;stroke-linecap:round;stroke-linejoin:round;stroke-miterlimit:10;"/><path d="    M80,60v4c0,2.211-1.789,4-4,4H20c-2.211,0-4-1.789-4-4v-4" style="fill:none;stroke:#000000;stroke-width:2;stroke-linecap:round;stroke-linejoin:round;stroke-miterlimit:10;"/><polygon points="    55,68 41,68 40,76 56,76   " style="fill:none;stroke:#000000;stroke-width:2;stroke-linecap:round;stroke-linejoin:round;stroke-miterlimit:10;"/><rect height="4" style="fill:none;stroke:#000000;stroke-width:2;stroke-linecap:round;stroke-linejoin:round;stroke-miterlimit:10;" width="32" x="32" y="76"/><line style="fill:none;stroke:#000000;stroke-width:2;stroke-linecap:round;stroke-linejoin:round;stroke-miterlimit:10;" x1="46" x2="50" y1="64" y2="64"/><line style="fill:none;stroke:#000000;stroke-width:2;stroke-linecap:round;stroke-linejoin:round;stroke-miterlimit:10;" x1="20" x2="76" y1="24" y2="24"/><g><path d="M60,42v-4h-3.231c-0.228-1.003-0.624-1.94-1.156-2.785l2.286-2.287l-2.828-2.828l-2.286,2.286     c-0.846-0.532-1.782-0.928-2.785-1.156V28h-4v3.23c-1.003,0.228-1.94,0.624-2.785,1.156l-2.286-2.286l-2.828,2.828l2.286,2.287     C39.854,36.06,39.459,36.997,39.23,38H36v4h3.23c0.229,1.003,0.624,1.94,1.156,2.785l-2.286,2.286l2.828,2.829l2.286-2.286     c0.845,0.532,1.782,0.928,2.785,1.156V52h4v-3.23c1.003-0.228,1.94-0.624,2.785-1.156l2.286,2.286l2.828-2.829l-2.286-2.286     c0.532-0.845,0.928-1.782,1.156-2.785H60z M48,44c-2.209,0-4-1.791-4-4s1.791-4,4-4s4,1.791,4,4S50.209,44,48,44z" style="fill:#D1D1D1;"/><path d="     M60,42v-4h-3.231c-0.228-1.003-0.624-1.94-1.156-2.785l2.286-2.287l-2.828-2.828l-2.286,2.286     c-0.846-0.532-1.782-0.928-2.785-1.156V28h-4v3.23c-1.003,0.228-1.94,0.624-2.785,1.156l-2.286-2.286l-2.828,2.828l2.286,2.287     C39.854,36.06,39.459,36.997,39.23,38H36v4h3.23c0.229,1.003,0.624,1.94,1.156,2.785l-2.286,2.286l2.828,2.829l2.286-2.286     c0.845,0.532,1.782,0.928,2.785,1.156V52h4v-3.23c1.003-0.228,1.94-0.624,2.785-1.156l2.286,2.286l2.828-2.829l-2.286-2.286     c0.532-0.845,0.928-1.782,1.156-2.785H60z" style="fill:none;stroke:#000000;stroke-width:2;stroke-linecap:round;stroke-linejoin:round;stroke-miterlimit:10;"/><circle cx="48" cy="40" r="4" style="fill:none;stroke:#000000;stroke-width:2;stroke-linecap:round;stroke-linejoin:round;stroke-miterlimit:10;"/></g></g></g></svg>