<?xml version="1.0" encoding="UTF-8"?>
<svg xmlns="http://www.w3.org/2000/svg" xmlns:xlink="http://www.w3.org/1999/xlink" width="51.200001pt" height="51.200001pt" viewBox="0 0 51.200001 51.200001" version="1.1">
<g id="surface1">
<path style=" stroke:none;fill-rule:nonzero;fill:rgb(86%,86%,86%);fill-opacity:1;" d="M 13.601562 49.601562 L 4 49.601562 C 3.558594 49.601562 3.199219 49.242188 3.199219 48.800781 L 3.199219 10.398438 C 3.199219 9.957031 3.558594 9.601562 4 9.601562 L 13.601562 9.601562 C 14.042969 9.601562 14.398438 9.957031 14.398438 10.398438 L 14.398438 48.800781 C 14.398438 49.242188 14.042969 49.601562 13.601562 49.601562 Z M 13.601562 49.601562 "/>
<path style=" stroke:none;fill-rule:nonzero;fill:rgb(78%,78%,78%);fill-opacity:1;" d="M 37.601562 49.601562 L 28 49.601562 C 27.558594 49.601562 27.199219 49.242188 27.199219 48.800781 L 27.199219 15.199219 C 27.199219 14.757812 27.558594 14.398438 28 14.398438 L 37.601562 14.398438 C 38.042969 14.398438 38.398438 14.757812 38.398438 15.199219 L 38.398438 48.800781 C 38.398438 49.242188 38.042969 49.601562 37.601562 49.601562 Z M 37.601562 49.601562 "/>
<path style=" stroke:none;fill-rule:nonzero;fill:rgb(75%,75%,75%);fill-opacity:1;" d="M 26.398438 49.601562 L 15.199219 49.601562 C 14.757812 49.601562 14.398438 49.242188 14.398438 48.800781 L 14.398438 2.398438 C 14.398438 1.957031 14.757812 1.601562 15.199219 1.601562 L 26.398438 1.601562 C 26.839844 1.601562 27.199219 1.957031 27.199219 2.398438 L 27.199219 48.800781 C 27.199219 49.242188 26.839844 49.601562 26.398438 49.601562 Z M 26.398438 49.601562 "/>
<path style=" stroke:none;fill-rule:nonzero;fill:rgb(62%,62%,62%);fill-opacity:1;" d="M 16.800781 6.398438 L 24.800781 6.398438 L 24.800781 44.800781 L 16.800781 44.800781 Z M 16.800781 6.398438 "/>
<path style=" stroke:none;fill-rule:nonzero;fill:rgb(73%,73%,73%);fill-opacity:1;" d="M 4.800781 12 L 12.800781 12 L 12.800781 13.601562 L 4.800781 13.601562 Z M 4.800781 12 "/>
<path style=" stroke:none;fill-rule:nonzero;fill:rgb(73%,73%,73%);fill-opacity:1;" d="M 4.800781 15.199219 L 12.800781 15.199219 L 12.800781 16.800781 L 4.800781 16.800781 Z M 4.800781 15.199219 "/>
<path style=" stroke:none;fill-rule:nonzero;fill:rgb(73%,73%,73%);fill-opacity:1;" d="M 4.800781 42.398438 L 12.800781 42.398438 L 12.800781 44 L 4.800781 44 Z M 4.800781 42.398438 "/>
<path style=" stroke:none;fill-rule:nonzero;fill:rgb(73%,73%,73%);fill-opacity:1;" d="M 4.800781 45.601562 L 12.800781 45.601562 L 12.800781 47.199219 L 4.800781 47.199219 Z M 4.800781 45.601562 "/>
<path style=" stroke:none;fill-rule:nonzero;fill:rgb(64%,64%,64%);fill-opacity:1;" d="M 27.199219 16 L 38.398438 16 L 38.398438 17.601562 L 27.199219 17.601562 Z M 27.199219 16 "/>
<path style=" stroke:none;fill-rule:nonzero;fill:rgb(64%,64%,64%);fill-opacity:1;" d="M 27.199219 46.398438 L 38.398438 46.398438 L 38.398438 48 L 27.199219 48 Z M 27.199219 46.398438 "/>
<path style=" stroke:none;fill-rule:nonzero;fill:rgb(51%,51%,51%);fill-opacity:1;" d="M 38.792969 28.542969 L 41.601562 26.078125 L 40.398438 24 L 39.199219 21.921875 L 35.664062 23.117188 C 35.519531 23.027344 35.371094 22.9375 35.21875 22.855469 L 34.488281 19.199219 L 29.6875 19.199219 L 28.957031 22.855469 C 28.800781 22.9375 28.65625 23.027344 28.507812 23.117188 L 24.972656 21.921875 L 23.773438 24 L 22.570312 26.078125 L 25.378906 28.542969 L 25.378906 29.054688 L 22.570312 31.519531 L 23.773438 33.597656 L 24.972656 35.675781 L 28.507812 34.480469 C 28.65625 34.574219 28.800781 34.660156 28.953125 34.742188 L 29.6875 38.398438 L 34.488281 38.398438 L 35.21875 34.742188 C 35.371094 34.664062 35.519531 34.574219 35.664062 34.480469 L 39.199219 35.679688 L 40.398438 33.601562 L 41.601562 31.523438 L 38.792969 29.054688 Z M 32.085938 31.359375 C 30.671875 31.359375 29.527344 30.214844 29.527344 28.800781 C 29.527344 27.386719 30.671875 26.238281 32.085938 26.238281 C 33.5 26.238281 34.644531 27.386719 34.644531 28.800781 C 34.644531 30.214844 33.5 31.359375 32.085938 31.359375 Z M 32.085938 31.359375 "/>
<path style=" stroke:none;fill-rule:nonzero;fill:rgb(36%,36%,36%);fill-opacity:1;" d="M 32.085938 33.679688 C 29.394531 33.679688 27.207031 31.492188 27.207031 28.800781 C 27.207031 26.109375 29.394531 23.921875 32.085938 23.921875 C 34.777344 23.921875 36.964844 26.109375 36.964844 28.800781 C 36.964844 31.492188 34.777344 33.679688 32.085938 33.679688 Z M 32.085938 24.71875 C 29.835938 24.71875 28.003906 26.550781 28.003906 28.800781 C 28.003906 31.050781 29.835938 32.878906 32.085938 32.878906 C 34.335938 32.878906 36.167969 31.050781 36.167969 28.800781 C 36.167969 26.550781 34.335938 24.71875 32.085938 24.71875 Z M 32.085938 24.71875 "/>
<path style=" stroke:none;fill-rule:nonzero;fill:rgb(51%,51%,51%);fill-opacity:1;" d="M 46.246094 15.441406 L 48 13.898438 L 47.25 12.601562 L 46.5 11.300781 L 44.289062 12.046875 C 44.199219 11.992188 44.105469 11.9375 44.011719 11.886719 L 43.554688 9.601562 L 40.554688 9.601562 L 40.097656 11.886719 C 40 11.9375 39.910156 11.992188 39.820312 12.046875 L 37.609375 11.300781 L 36.859375 12.601562 L 36.105469 13.898438 L 37.863281 15.441406 L 37.863281 15.757812 L 36.105469 17.300781 L 36.859375 18.601562 L 37.609375 19.898438 L 39.820312 19.152344 C 39.910156 19.207031 40 19.265625 40.097656 19.3125 L 40.554688 21.601562 L 43.554688 21.601562 L 44.011719 19.3125 C 44.105469 19.265625 44.199219 19.207031 44.289062 19.152344 L 46.5 19.898438 L 47.25 18.601562 L 48 17.300781 L 46.246094 15.757812 Z M 42.054688 17.199219 C 41.167969 17.199219 40.453125 16.484375 40.453125 15.601562 C 40.453125 14.714844 41.167969 14 42.054688 14 C 42.9375 14 43.652344 14.714844 43.652344 15.601562 C 43.652344 16.484375 42.9375 17.199219 42.054688 17.199219 Z M 42.054688 17.199219 "/>
<path style=" stroke:none;fill-rule:nonzero;fill:rgb(36%,36%,36%);fill-opacity:1;" d="M 42.054688 18.800781 C 40.289062 18.800781 38.855469 17.363281 38.855469 15.601562 C 38.855469 13.835938 40.289062 12.398438 42.054688 12.398438 C 43.820312 12.398438 45.253906 13.835938 45.253906 15.601562 C 45.253906 17.363281 43.820312 18.800781 42.054688 18.800781 Z M 42.054688 13.199219 C 40.730469 13.199219 39.652344 14.277344 39.652344 15.601562 C 39.652344 16.921875 40.730469 18 42.054688 18 C 43.375 18 44.453125 16.921875 44.453125 15.601562 C 44.453125 14.277344 43.378906 13.199219 42.054688 13.199219 Z M 42.054688 13.199219 "/>
</g>
</svg>
