<?xml version="1.0" ?><!DOCTYPE svg  PUBLIC '-//W3C//DTD SVG 1.1//EN'  'http://www.w3.org/Graphics/SVG/1.1/DTD/svg11.dtd'><svg enable-background="new 0 0 512 512" height="512px" id="Calque_1" version="1.1" viewBox="0 0 512 512" width="512px" xml:space="preserve" xmlns="http://www.w3.org/2000/svg" xmlns:xlink="http://www.w3.org/1999/xlink"><g><path d="M409.94,163.19l7.449-7.44c3.25,2.7,7.311,4.17,11.591,4.17c4.859,0,9.43-1.89,12.869-5.32l3.101-3.11   c7.09-7.09,7.09-18.63,0-25.73l-29.53-29.53c-3.439-3.44-8-5.33-12.86-5.33c-4.859,0-9.43,1.89-12.859,5.33l-3.12,3.11   c-6.68,6.68-7.061,17.32-1.14,24.46l-7.591,7.59c-25.22-19.84-55.369-33.67-88.27-39.33V78.83h18.08c4.859,0,9.43-1.9,12.859-5.33   c3.44-3.44,5.33-8.01,5.33-12.86V46.29c0-10.03-8.159-18.19-18.189-18.19H204.34c-10.03,0-18.19,8.16-18.19,18.19v14.35   c0,10.03,8.16,18.19,18.19,18.19h18.08v13.23c-32.91,5.66-63.05,19.49-88.26,39.33l-7.6-7.59c5.92-7.14,5.54-17.78-1.14-24.46   l-3.11-3.11c-3.44-3.44-8.01-5.33-12.86-5.33c-4.86,0-9.43,1.89-12.87,5.33l-29.53,29.53c-7.09,7.1-7.09,18.64,0,25.73l3.11,3.11   c3.43,3.43,8,5.32,12.86,5.32c4.28,0,8.34-1.47,11.6-4.17l7.44,7.44c-27.14,33.82-43.41,76.72-43.41,123.35   c0,108.82,88.53,197.36,197.35,197.36c108.82,0,197.36-88.54,197.36-197.36C453.36,239.91,437.08,197.01,409.94,163.19z    M289.58,38.1h18.08c4.52,0,8.189,3.68,8.189,8.19v14.35c0,4.51-3.67,8.19-8.189,8.19h-18.08V38.1z M393.66,106.41l3.109-3.11   c1.54-1.55,3.601-2.4,5.79-2.4c2.181,0,4.24,0.85,5.79,2.4l29.53,29.54c3.19,3.19,3.19,8.39,0,11.58l-3.11,3.11   c-1.539,1.54-3.6,2.39-5.789,2.39c-2.19,0-4.24-0.85-5.79-2.39l-29.53-29.54C390.46,114.8,390.46,109.6,393.66,106.41z    M392.45,130.93l17.81,17.8l-6.8,6.8c-5.58-6.28-11.55-12.2-17.89-17.72L392.45,130.93z M261,38.1h18.58v30.73H261V38.1z    M232.42,38.1H251v30.73h-18.58V38.1z M232.42,78.83h47.16V90.6c-7.74-0.92-15.6-1.41-23.58-1.41c-7.98,0-15.85,0.49-23.58,1.41   V78.83z M204.34,68.83c-4.52,0-8.19-3.68-8.19-8.19V46.29c0-4.51,3.67-8.19,8.19-8.19h18.08v30.73H204.34z M91.15,145.19   c-0.01,0-0.01,0.01-0.01,0.01s-0.01,0-0.01,0.01l-2.32,2.32c-1.55,1.54-3.6,2.39-5.79,2.39s-4.25-0.85-5.79-2.39l-3.11-3.11   c-3.19-3.19-3.19-8.39,0-11.58l29.53-29.54c1.55-1.55,3.61-2.4,5.8-2.4c2.18,0,4.24,0.85,5.79,2.4l3.11,3.11   c1.54,1.55,2.39,3.6,2.39,5.79c0,2.19-0.85,4.24-2.39,5.79l-2.34,2.33L91.15,145.19z M101.75,148.73l17.8-17.8l6.88,6.88   c-6.34,5.52-12.31,11.44-17.89,17.72L101.75,148.73z M256,473.901c-103.31,0-187.35-84.051-187.35-187.36   c0-103.31,84.04-187.35,187.35-187.35c103.31,0,187.36,84.04,187.36,187.35C443.36,389.85,359.309,473.901,256,473.901z" fill="#0065A5"/><path d="M120.74,112.2c0,2.19-0.85,4.24-2.39,5.79l-2.34,2.33l-24.86,24.87c-0.01,0-0.01,0.01-0.01,0.01   s-0.01,0-0.01,0.01l-2.32,2.32c-1.55,1.54-3.6,2.39-5.79,2.39s-4.25-0.85-5.79-2.39l-3.11-3.11c-3.19-3.19-3.19-8.39,0-11.58   l29.53-29.54c1.55-1.55,3.61-2.4,5.8-2.4c2.18,0,4.24,0.85,5.79,2.4l3.11,3.11C119.89,107.96,120.74,110.01,120.74,112.2z" fill="#A2CBEB"/><path d="M222.42,38.1v30.73h-18.08c-4.52,0-8.19-3.68-8.19-8.19V46.29c0-4.51,3.67-8.19,8.19-8.19H222.42z" fill="#A2CBEB"/><path d="M315.849,46.29v14.35c0,4.51-3.67,8.19-8.189,8.19h-18.08V38.1h18.08   C312.179,38.1,315.849,41.78,315.849,46.29z" fill="#A2CBEB"/><path d="M437.88,144.42l-3.11,3.11c-1.539,1.54-3.6,2.39-5.789,2.39c-2.19,0-4.24-0.85-5.79-2.39l-29.53-29.54   c-3.2-3.19-3.2-8.39,0-11.58l3.109-3.11c1.54-1.55,3.601-2.4,5.79-2.4c2.181,0,4.24,0.85,5.79,2.4l29.53,29.54   C441.07,136.03,441.07,141.23,437.88,144.42z" fill="#A2CBEB"/><path d="M256,99.19c-103.31,0-187.35,84.04-187.35,187.35c0,103.31,84.04,187.36,187.35,187.36   c103.31,0,187.36-84.051,187.36-187.36C443.36,183.23,359.309,99.19,256,99.19z M402.769,371.281   c-0.109,0.189-0.229,0.37-0.359,0.54c-14.811,25.319-35.99,46.479-61.34,61.25c-0.11,0.08-0.21,0.17-0.33,0.239   c-0.141,0.08-0.28,0.15-0.431,0.21c-24.84,14.311-53.64,22.5-84.31,22.5c-30.68,0-59.48-8.189-84.33-22.51   c-0.14-0.06-0.27-0.12-0.41-0.2c-0.11-0.06-0.2-0.149-0.31-0.22c-25.36-14.78-46.56-35.95-61.37-61.3   c-0.13-0.16-0.24-0.33-0.35-0.51c-0.05-0.09-0.08-0.19-0.13-0.29c-14.36-24.88-22.58-53.721-22.58-84.45   c0-30.72,8.22-59.56,22.57-84.43c0.05-0.1,0.08-0.21,0.14-0.31c0.07-0.12,0.16-0.22,0.24-0.33c14.81-25.41,36.04-46.64,61.44-61.45   c0.12-0.08,0.23-0.18,0.35-0.25c0.1-0.06,0.21-0.09,0.32-0.14c24.86-14.35,53.69-22.56,84.41-22.57h0.02   c30.71,0.01,59.54,8.22,84.41,22.57c0.1,0.05,0.21,0.08,0.32,0.14c0.13,0.07,0.229,0.17,0.35,0.25   c25.4,14.81,46.62,36.03,61.43,61.43c0.08,0.12,0.181,0.23,0.25,0.35c0.061,0.1,0.091,0.21,0.141,0.32   c14.35,24.87,22.57,53.7,22.57,84.42c0,30.729-8.221,59.56-22.57,84.44C402.86,371.08,402.83,371.18,402.769,371.281z" fill="#A2CBEB"/><path d="M402.91,202.12c-0.05-0.11-0.08-0.22-0.141-0.32c-0.069-0.12-0.17-0.23-0.25-0.35   c-14.81-25.4-36.029-46.62-61.43-61.43c-0.12-0.08-0.22-0.18-0.35-0.25c-0.11-0.06-0.221-0.09-0.32-0.14   c-24.87-14.35-53.7-22.56-84.41-22.57h-0.02c-30.72,0.01-59.55,8.22-84.41,22.57c-0.11,0.05-0.22,0.08-0.32,0.14   c-0.12,0.07-0.23,0.17-0.35,0.25c-25.4,14.81-46.63,36.04-61.44,61.45c-0.08,0.11-0.17,0.21-0.24,0.33   c-0.06,0.1-0.09,0.21-0.14,0.31c-14.35,24.87-22.57,53.71-22.57,84.43c0,30.729,8.22,59.57,22.58,84.45   c0.05,0.1,0.08,0.2,0.13,0.29c0.11,0.18,0.22,0.35,0.35,0.51c14.81,25.35,36.01,46.52,61.37,61.3c0.11,0.07,0.2,0.16,0.31,0.22   c0.14,0.08,0.27,0.141,0.41,0.2c24.85,14.32,53.65,22.51,84.33,22.51c30.67,0,59.47-8.189,84.31-22.5   c0.15-0.06,0.29-0.13,0.431-0.21c0.12-0.069,0.22-0.159,0.33-0.239c25.35-14.771,46.529-35.931,61.34-61.25   c0.13-0.17,0.25-0.351,0.359-0.54c0.061-0.101,0.091-0.2,0.141-0.3c14.35-24.881,22.57-53.711,22.57-84.44   C425.48,255.82,417.26,226.99,402.91,202.12z M396.519,361.89l-7.649-4.409c-2.39-1.391-5.45-0.561-6.83,1.829   c-1.38,2.391-0.56,5.45,1.83,6.83l7.63,4.4c-12.98,20.86-30.63,38.52-51.49,51.5l-4.41-7.63c-1.38-2.391-4.439-3.21-6.83-1.83   c-2.39,1.38-3.21,4.439-1.829,6.83l4.42,7.649c-21.08,11.351-44.98,18.091-70.36,18.87v-22.79c0-2.76-2.24-5-5-5s-5,2.24-5,5v22.79   c-25.38-0.779-49.28-7.52-70.35-18.87l4.41-7.649c1.38-2.391,0.56-5.45-1.83-6.83s-5.45-0.561-6.83,1.83l-4.4,7.63   c-20.86-12.98-38.52-30.63-51.5-51.49l7.63-4.41c2.39-1.38,3.21-4.439,1.83-6.83c-1.38-2.39-4.44-3.21-6.83-1.829l-7.65,4.42   c-11.34-21.08-18.09-44.98-18.87-70.36h22.79c2.76,0,5-2.24,5-5s-2.24-5-5-5H96.61c0.78-25.38,7.53-49.28,18.87-70.35l7.65,4.41   c0.79,0.46,1.65,0.67,2.49,0.67c1.73,0,3.41-0.89,4.34-2.5c1.38-2.39,0.56-5.45-1.83-6.83l-7.63-4.4   c12.98-20.86,30.64-38.52,51.5-51.5l4.4,7.63c0.93,1.61,2.61,2.5,4.34,2.5c0.84,0,1.7-0.21,2.49-0.67   c2.39-1.38,3.21-4.44,1.83-6.83l-4.41-7.65c21.07-11.34,44.97-18.08,70.35-18.87v22.79c0,2.76,2.24,5,5,5s5-2.24,5-5v-22.79   c25.38,0.79,49.28,7.53,70.35,18.87l-4.409,7.65c-1.381,2.39-0.561,5.45,1.829,6.83c0.79,0.45,1.65,0.67,2.49,0.67   c1.73,0,3.41-0.9,4.34-2.5l4.4-7.63c20.86,12.98,38.52,30.64,51.5,51.5l-7.63,4.4c-2.39,1.38-3.21,4.44-1.83,6.83   c0.92,1.6,2.61,2.5,4.33,2.5c0.85,0,1.71-0.22,2.5-0.67l7.649-4.41c11.351,21.07,18.091,44.97,18.87,70.35h-22.79   c-2.76,0-5,2.24-5,5s2.24,5,5,5h22.79C414.61,316.92,407.87,340.821,396.519,361.89z" fill="#0065A5"/><path d="M358.343,222.595L256,280.79l-102.342-58.195c-2.4-1.365-5.454-0.526-6.818,1.875   c-1.365,2.4-0.525,5.453,1.875,6.818l104.8,59.593c0.193,0.11,0.394,0.208,0.599,0.291c0.182,0.074,0.367,0.134,0.552,0.186   c0.019,0.005,0.037,0.014,0.056,0.019c0.42,0.111,0.849,0.167,1.274,0.167c0.001,0,0.003,0,0.004,0s0.003,0,0.004,0   c0.425,0,0.853-0.056,1.274-0.167c0.014-0.004,0.027-0.01,0.041-0.014c0.191-0.053,0.381-0.114,0.567-0.19   c0.204-0.083,0.403-0.18,0.596-0.289l104.804-59.595c2.4-1.365,3.239-4.417,1.875-6.818   C363.796,222.07,360.745,221.229,358.343,222.595z" fill="#0065A5"/></g></svg>