<?xml version="1.0" encoding="UTF-8"?>
<svg xmlns="http://www.w3.org/2000/svg" xmlns:xlink="http://www.w3.org/1999/xlink" width="409.600006pt" height="409.600006pt" viewBox="0 0 409.600006 409.600006" version="1.1">
<g id="surface1">
<path style=" stroke:none;fill-rule:nonzero;fill:rgb(39%,39%,39%);fill-opacity:1;" d="M 160 275.199219 L 326.398438 111.199219 L 356 115.199219 L 401.601562 36 L 375.199219 9.601562 L 300.800781 50.398438 L 300 85.601562 L 132.800781 249.601562 Z M 160 275.199219 "/>
<path style=" stroke:none;fill-rule:nonzero;fill:rgb(21%,21%,21%);fill-opacity:1;" d="M 160 268 L 322.398438 108 C 324 106.398438 324.800781 106.398438 326.398438 106.398438 L 353.601562 109.601562 L 395.199219 36.800781 L 374.398438 16 L 305.601562 52.800781 L 304.800781 85.601562 C 304.800781 86.398438 304.800781 88 303.199219 88.800781 L 140 249.601562 Z M 328 116.800781 L 163.199219 278.398438 C 161.601562 280 158.398438 280 156 278.398438 L 129.601562 252.800781 C 128 251.199219 128 248 129.601562 245.601562 L 295.199219 83.199219 L 295.199219 49.601562 C 295.199219 48 296.800781 46.398438 298.398438 45.601562 L 372.800781 5.601562 C 375.199219 4.800781 377.601562 4.800781 379.199219 6.398438 L 404.800781 32 C 406.398438 33.601562 407.199219 36 405.601562 38.398438 L 360 116.800781 C 359.199219 119.199219 357.601562 120 355.199219 120 Z M 328 116.800781 "/>
<path style=" stroke:none;fill-rule:nonzero;fill:rgb(52%,52%,52%);fill-opacity:1;" d="M 20 389.601562 C 34.398438 404 56.800781 404 71.199219 389.601562 L 200 260.800781 C 213.601562 247.199219 213.601562 224 200 209.601562 C 185.601562 196 162.398438 196 148.800781 209.601562 L 20 338.398438 C 5.601562 352.800781 5.601562 375.199219 20 389.601562 Z M 20 389.601562 "/>
<path style=" stroke:none;fill-rule:nonzero;fill:rgb(21%,21%,21%);fill-opacity:1;" d="M 23.199219 386.398438 C 29.601562 392 37.601562 395.199219 45.601562 395.199219 C 53.601562 395.199219 61.601562 392 68 386.398438 L 196 257.601562 C 202.398438 251.199219 205.601562 243.199219 205.601562 235.199219 C 205.601562 227.199219 202.398438 219.199219 196 213.601562 C 190.398438 207.199219 182.398438 204 174.398438 204 C 166.398438 204 158.398438 207.199219 152 213.601562 L 23.199219 341.601562 L 23.199219 342.398438 C 17.601562 348 14.398438 356 14.398438 364 C 14.398438 372 17.601562 380 23.199219 386.398438 Z M 45.601562 405.601562 C 35.199219 405.601562 24.800781 401.601562 16.800781 392.800781 C 8 384.800781 4 374.398438 4 364 C 4 353.601562 8 343.199219 16 335.199219 L 144.800781 206.398438 C 152.800781 198.398438 163.199219 194.398438 174.398438 194.398438 C 184.800781 194.398438 195.199219 198.398438 203.199219 206.398438 C 211.199219 214.398438 215.199219 224.800781 215.199219 235.199219 C 215.199219 246.398438 211.199219 256.800781 203.199219 264.800781 L 75.199219 392.800781 C 66.398438 401.601562 56 405.601562 45.601562 405.601562 Z M 45.601562 405.601562 "/>
<path style=" stroke:none;fill-rule:nonzero;fill:rgb(35%,35%,35%);fill-opacity:1;" d="M 208.800781 226.398438 L 212 223.199219 L 204.800781 216 C 207.199219 219.199219 208 222.398438 208.800781 226.398438 Z M 193.601562 204.800781 L 186.398438 197.601562 L 183.199219 200 C 186.398438 200.800781 190.398438 202.398438 193.601562 204.800781 Z M 193.601562 204.800781 "/>
<path style=" stroke:none;fill-rule:nonzero;fill:rgb(0%,0%,0%);fill-opacity:1;" d="M 215.199219 227.199219 L 212.800781 229.601562 C 212 230.398438 211.199219 230.398438 210.398438 231.199219 C 208 232 204.800781 230.398438 204 227.199219 C 204 225.601562 203.199219 224.800781 203.199219 223.199219 C 202.398438 221.601562 201.601562 220 200.800781 219.199219 C 199.199219 216.800781 200 214.398438 201.601562 212.800781 C 203.199219 210.398438 206.398438 210.398438 208 212.800781 L 215.199219 220 C 217.601562 221.601562 217.601562 224.800781 215.199219 227.199219 Z M 189.601562 193.601562 L 196.800781 200.800781 C 198.398438 202.398438 199.199219 205.601562 197.601562 207.199219 C 196 209.601562 192.800781 210.398438 190.398438 208.800781 C 189.601562 208 188 207.199219 186.398438 206.398438 C 184.800781 206.398438 183.199219 205.601562 181.601562 204.800781 C 180.800781 204.800781 180 204.800781 179.199219 204 C 177.601562 201.601562 177.601562 198.398438 179.199219 196.800781 L 182.398438 193.601562 C 184.800781 192 187.199219 192 189.601562 193.601562 Z M 189.601562 193.601562 "/>
<path style=" stroke:none;fill-rule:nonzero;fill:rgb(64%,64%,64%);fill-opacity:1;" d="M 68 354.398438 C 70.398438 352.800781 72.800781 352.800781 75.199219 354.398438 C 76.800781 356 76.800781 359.199219 75.199219 361.601562 L 58.398438 377.601562 C 56.800781 380 53.601562 380 52 377.601562 C 49.601562 376 49.601562 372.800781 52 371.199219 Z M 68 354.398438 "/>
<path style=" stroke:none;fill-rule:nonzero;fill:rgb(64%,64%,64%);fill-opacity:1;" d="M 148.800781 273.601562 C 151.199219 271.199219 154.398438 271.199219 156 273.601562 C 158.398438 275.199219 158.398438 278.398438 156 280.800781 L 86.398438 350.398438 C 84 352.800781 80.800781 352.800781 79.199219 350.398438 C 76.800781 348.800781 76.800781 345.601562 79.199219 343.199219 Z M 148.800781 273.601562 "/>
<path style=" stroke:none;fill-rule:nonzero;fill:rgb(92%,92%,92%);fill-opacity:1;" d="M 339.199219 288 C 325.601562 273.601562 302.398438 273.601562 288 288 C 273.601562 302.398438 273.601562 325.601562 288 339.199219 L 347.199219 398.398438 C 336.800781 402.398438 325.601562 404.800781 313.601562 404.800781 C 264 404.800781 223.199219 364 223.199219 313.601562 C 223.199219 302.398438 224.800781 291.199219 229.601562 280.800781 L 128.800781 180 C 118.398438 184.800781 107.199219 186.398438 96 186.398438 C 45.601562 186.398438 4.800781 145.601562 4.800781 96 C 4.800781 84 7.199219 72.800781 11.199219 62.398438 L 70.398438 121.601562 C 84 136 107.199219 136 121.601562 121.601562 C 136 107.199219 136 84 121.601562 70.398438 L 62.398438 11.199219 C 72.800781 7.199219 84 4.800781 96 4.800781 C 145.601562 4.800781 186.398438 45.601562 186.398438 96 C 186.398438 107.199219 184.800781 118.398438 180 128.800781 L 280.800781 229.601562 C 291.199219 224.800781 302.398438 223.199219 313.601562 223.199219 C 364 223.199219 404.800781 264 404.800781 313.601562 C 404.800781 325.601562 402.398438 336.800781 398.398438 347.199219 Z M 339.199219 288 "/>
<path style=" stroke:none;fill-rule:nonzero;fill:rgb(21%,21%,21%);fill-opacity:1;" d="M 336 292 C 329.601562 285.601562 321.601562 282.398438 313.601562 282.398438 C 305.601562 282.398438 297.601562 285.601562 292 292 C 285.601562 297.601562 282.398438 305.601562 282.398438 313.601562 C 282.398438 321.601562 285.601562 329.601562 292 336 L 350.398438 394.398438 C 352 396.800781 352 400 350.398438 401.601562 L 348.800781 403.199219 C 343.199219 404.800781 337.601562 406.398438 331.199219 408 C 325.601562 408.800781 320 409.601562 313.601562 409.601562 C 287.199219 409.601562 263.199219 399.199219 246.398438 381.601562 C 228.800781 364 217.601562 340 217.601562 313.601562 C 217.601562 308 218.398438 301.601562 220 296 C 220.800781 291.199219 221.601562 286.398438 223.199219 281.601562 L 128 186.398438 C 123.199219 188 118.398438 188.800781 113.601562 189.601562 C 108 191.199219 101.601562 192 96 192 C 69.601562 192 45.601562 180.800781 28 163.199219 C 10.398438 146.398438 0 122.398438 0 96 C 0 89.601562 0.800781 84 1.601562 78.398438 C 3.199219 72 4.800781 66.398438 6.398438 60.800781 C 8 58.398438 10.398438 56.800781 12.800781 58.398438 C 13.601562 58.398438 14.398438 58.398438 15.199219 59.199219 L 73.601562 117.601562 C 80 124 88 127.199219 96 127.199219 C 104 127.199219 112 124 117.601562 117.601562 C 124 112 127.199219 104 127.199219 96 C 127.199219 88 124 80 117.601562 73.601562 L 59.199219 15.199219 C 57.601562 12.800781 57.601562 9.601562 59.199219 8 L 60.800781 6.398438 C 66.398438 4.800781 72 3.199219 78.398438 1.601562 C 84 0.800781 89.601562 0 96 0 C 122.398438 0 146.398438 10.398438 163.199219 28 C 180.800781 45.601562 192 69.601562 192 96 C 192 101.601562 191.199219 108 189.601562 113.601562 C 188.800781 118.398438 188 123.199219 186.398438 128 L 281.601562 223.199219 C 286.398438 221.601562 291.199219 220.800781 296 220 C 301.601562 218.398438 308 217.601562 313.601562 217.601562 C 340 217.601562 364 228.800781 381.601562 246.398438 C 399.199219 263.199219 409.601562 287.199219 409.601562 313.601562 C 409.601562 320 408.800781 325.601562 408 331.199219 C 406.398438 337.601562 404.800781 343.199219 403.199219 348.800781 C 401.601562 351.199219 399.199219 352.800781 396.800781 351.199219 C 396 351.199219 395.199219 351.199219 394.398438 350.398438 Z M 313.601562 272.800781 C 324 272.800781 335.199219 276.800781 343.199219 284.800781 L 396 337.601562 C 396.800781 335.199219 397.601562 332 398.398438 329.601562 C 399.199219 324.800781 400 319.199219 400 313.601562 C 400 290.398438 390.398438 268.800781 374.398438 252.800781 C 359.199219 237.601562 337.601562 228 313.601562 228 C 308 228 303.199219 228.800781 297.601562 229.601562 C 292.800781 230.398438 287.199219 232 282.398438 233.601562 C 280.800781 234.398438 278.398438 234.398438 276.800781 232.800781 L 176.800781 132.800781 C 175.199219 131.199219 175.199219 128.800781 176 127.199219 C 177.601562 122.398438 179.199219 116.800781 180 112 C 180.800781 106.398438 181.601562 101.601562 181.601562 96 C 181.601562 72 172 50.398438 156.800781 35.199219 C 140.800781 19.199219 119.199219 9.601562 96 9.601562 C 90.398438 9.601562 84.800781 10.398438 80 11.199219 C 77.601562 12 74.398438 12.800781 72 13.601562 L 124.800781 66.398438 C 132.800781 74.398438 136.800781 85.601562 136.800781 96 C 136.800781 106.398438 132.800781 116.800781 124.800781 124.800781 C 116.800781 132.800781 106.398438 136.800781 96 136.800781 C 85.601562 136.800781 74.398438 132.800781 66.398438 124.800781 L 13.601562 72 C 12.800781 74.398438 12 77.601562 11.199219 80 C 10.398438 84.800781 9.601562 90.398438 9.601562 96 C 9.601562 119.199219 19.199219 140.800781 35.199219 156.800781 C 50.398438 172 72 181.601562 96 181.601562 C 101.601562 181.601562 106.398438 180.800781 112 180 C 116.800781 179.199219 122.398438 177.601562 127.199219 176 C 128.800781 175.199219 131.199219 175.199219 132.800781 176.800781 L 232.800781 276.800781 C 234.398438 278.398438 234.398438 280.800781 233.601562 282.398438 C 232 287.199219 230.398438 292.800781 229.601562 297.601562 C 228.800781 303.199219 228 308 228 313.601562 C 228 337.601562 237.601562 359.199219 252.800781 374.398438 C 268.800781 390.398438 290.398438 400 313.601562 400 C 319.199219 400 324.800781 399.199219 329.601562 398.398438 C 332 397.601562 335.199219 396.800781 337.601562 396 L 284.800781 343.199219 C 276.800781 335.199219 272.800781 324 272.800781 313.601562 C 272.800781 303.199219 276.800781 292.800781 284.800781 284.800781 C 292.800781 276.800781 303.199219 272.800781 313.601562 272.800781 Z M 313.601562 272.800781 "/>
<path style=" stroke:none;fill-rule:nonzero;fill:rgb(100%,100%,100%);fill-opacity:1;" d="M 236 213.601562 C 237.601562 215.199219 237.601562 218.398438 236 220.800781 C 233.601562 222.398438 230.398438 222.398438 228.800781 220.800781 L 159.199219 151.199219 C 156.800781 148.800781 156.800781 145.601562 159.199219 144 C 160.800781 141.601562 164 141.601562 165.601562 144 Z M 236 213.601562 "/>
<path style=" stroke:none;fill-rule:nonzero;fill:rgb(100%,100%,100%);fill-opacity:1;" d="M 267.199219 244.800781 C 268.800781 247.199219 268.800781 249.601562 267.199219 252 C 264.800781 253.601562 261.601562 253.601562 260 252 L 243.199219 235.199219 C 240.800781 232.800781 240.800781 230.398438 243.199219 228 C 244.800781 226.398438 248 226.398438 250.398438 228 Z M 267.199219 244.800781 "/>
</g>
</svg>
